<svg xmlns="http://www.w3.org/2000/svg" version="1.1" xmlns:xlink="http://www.w3.org/1999/xlink" xmlns:svgjs="http://svgjs.dev/svgjs" width="306.37" height="284.4"><svg id="SvgjsSvg1023" data-name="Layer 1" xmlns="http://www.w3.org/2000/svg" viewBox="0 0 306.37 284.4">
  <defs>
    <style>
      .cls-1 {
        fill-rule: evenodd;
      }

      .cls-1, .cls-2 {
        fill: #00a171;
      }
    </style>
  </defs>
  <path class="cls-1" d="M145.22,2.13c3.4,0,6.9,0,10.3.1.8,0,1.6.2,2.4.4-4.7-.5-9.4-.4-14.1.3.4-.4.9-.7,1.5-.9h0l-.1.1Z"></path>
  <path class="cls-1" d="M157.92,2.73c1,0,1.8.3,2.4,1,0,.1-.2.2-.3.1-1,.1-2,.4-2.9.6-.6,0-1.1,0-1.5.3-1.2.1-2.4.2-3.5.3-1.4,0-2.9.2-4.3.6-.5-.2-1-.4-1.5-.6-1.4.4-2.8.5-4.3.3.3-.2.6-.4.9-.4,2.4-.1,4.7-.3,7.1-.6-.9-.3-1.9-.5-2.8-.7-1.1.2-2.2.3-3.4.3v-.9c4.7-.6,9.4-.8,14.1-.3h0Z"></path>
  <path class="cls-1" d="M143.82,3.03v.9c1.1,0,2.3-.1,3.4-.3.9.2,1.9.4,2.8.7-2.4.2-4.7.5-7.1.6-.3,0-.6.2-.9.4,1.4.2,2.8.1,4.3-.3.5.2,1,.4,1.5.6,1.4-.4,2.8-.6,4.3-.6-1.9.8-3.9,1-6,.6-.1.4-.2.8-.1,1.2-1.8.4-3.5.8-5.3,1.2-.4.4-.9.7-1.5.9,0-.6.2-1.2.6-1.6-.1-.2-.2-.3-.3-.4h-2.4c.2-.4.5-.7.9-1,1.1,0,2.2-.1,3.2-.1-1.8-.4-3.5-.3-5.1.3-.5,0-.8-.2-1-.6,0-.2.1-.3.3-.3,1-.5,2-1,2.9-1.6,1.6-.6,3.3-.8,5-.6l-1.5,1.5c.1,0,.2.1.3.1.8-.3,1.4-.8,1.8-1.5h0l-.1-.1Z"></path>
  <path class="cls-1" d="M163.82,4.53c.5,0,.9.3,1.3.6.7-.7,1.4-.7,2.2,0,.4-.1.4-.2,0-.4,2.6-.2,5.1-.2,7.6,0,1,.1,1.9.5,2.6,1-1.3,0-2.6,0-3.8.1.9.3,1.9.5,2.9.6-.7,0-1.4.2-2.1.3-.2.2-.4.5-.6.7,1,.2,2,.5,2.9.9.2,0,.5-.2.7-.3,1.2.6,2.4,1.1,3.7,1.5v-.9h3.2v.9c0,1.1-.5,2.2-1.2,3.2-.2.6-.3,1.2-.3,1.8.5,0,1,0,1.5.2-.9.8-2,1.2-3.2,1.3.5.2.9.4,1.5.4.2.3.3.6.3,1-.6,0-1.2,0-1.8.3.2,0,.5.2.7.3,1.3-.5,2.6-.6,4-.6.1.9,0,1.7-.6,2.3,0,.2.2.3.3.4-.5.3-1.1.5-1.8.4h-1.5v.9c-.4,0-.8,0-1.2.3,1.4,0,2,.7,1.8,2.1-.6-.2-1.2-.2-1.8-.2.5.2.9.4,1.2.7v.3c-.2.5-.6.7-1.2.7.6.2,1.2.2,1.8.2-.3.5-.9.8-1.8,1,.6.2,1.2.2,1.8.2-.2.5-.6.7-1.2.6v.9c1.1-.2,2.2-.5,3.2-.9v1.2c-.7.3-1.4.7-2.1,1-1.8,0-3.5.3-5.1.7-.5-.2-.9-.4-1.3-.6-1,.6-2,1.4-2.9,2.5-.4.2-.8.4-1.2.6-1.2,0-2.3.5-3.4,1v-1.5c-.1.3-.3.5-.4.7-1.3,0-2.4.5-3.5,1-.4,0-.8,0-1.2.2.5,1.1.3,2.1-.7,2.8-.1.3-.2.6-.1.9h-2.1c0,1.5-.4,2.8-1.3,3.8-.1,0-.2-.2-.3-.3-.1.4-.2.8-.1,1.2h-1.5c-.2-.5-.5-1-.9-1.5-1.2-.3-2.3-.4-3.5-.3-.9-2.4-1.8-4.7-2.6-7.1.5-.3.9-.5,1.5-.6.4-1,.3-1.9-.3-2.8-.4,0-.8-.2-1.2-.2-.1-.8,0-1.4.6-1.9-.6-.5-.7-1-.3-1.6.7-.2,1.4-.5,2.1-.9.2.9.5,1,.9.3.5-.5,1.1-.7,1.8-.6,0,.9.3,1.4,1.2,1.5.7-1.1.4-1.7-.9-1.9-.2-.2-.3-.5-.3-.7.3-.5.6-1,.9-1.5-.5-.3-1.1-.3-1.6,0-.5-.2-.5-.5-.1-.9.3,0,.6,0,.9-.2-.9-.5-1.2-1.2-1.2-2.2-.6,0-1.2.2-1.8.6-.5-.2-.9-.5-1.2-.9,1.4-.9,2-2.2,1.8-4,.2-1.5-.3-2.8-1.5-3.7,0-.5-.2-.8-.6-1-1.5-.2-2.9,0-4.4.2h-1.8c0-.5.1-.8.6-1-.2,0-.4-.2-.6-.4,1.3-.3,2.5-.4,3.8-.3,1.4,0,2.8,0,4.1-.3v-.9c-1.7,0-3.4,0-5.1.3-.3,0-.6-.2-.7-.4,2-.3,3.9-.6,5.9-1,.2-.4.2-.9,0-1.5.9,0,1.6-.3,2.4-.6,1.1.2,2.2.2,3.2,0,1.6-.3,3.3-.4,5-.3h0v.3h0Z"></path>
  <path class="cls-1" d="M137.02,6.83c0,.3,0,.5-.3.7.5.2,1,.2,1.5.2v1.2h.9c-.6.2-1.2.4-1.8.6h-.9v-.9c-1.5,0-3-.2-4.4-.6-.1-.2-.2-.4-.3-.6h.3c.9,0,1.8,0,2.6-.2.6-.9,1.2-.9,1.9-.2.1-.2.3-.3.4-.3h.1v.1Z"></path>
  <path class="cls-1" d="M137.02,6.83h2.4c.1.2.2.3.3.4-.4.5-.6,1-.6,1.6h-.9v-1.2c-.5,0-1,0-1.5-.2.2-.2.3-.4.3-.7h0v.1Z"></path>
  <path class="cls-1" d="M177.62,5.73c.7.3,1.4.5,2.1.7-.4,0-.7.2-1,.4-.2.2-.1.4.1.6.6-.2,1.1-.3,1.8-.3,0,.4,0,.8.3,1.2,1.4-.3,2.7-.4,4.1-.2.4.6.3,1-.3,1.3v-.9h-3.2v.9c-1.3-.4-2.5-.9-3.7-1.5-.3,0-.5.2-.7.3-.9-.4-1.9-.7-2.9-.9.1-.3.3-.5.6-.7.7,0,1.4-.2,2.1-.3-1,0-2-.2-2.9-.6,1.3-.1,2.5-.2,3.8-.1h-.2v.1Z"></path>
  <path class="cls-1" d="M153.22,6.83c-1.9.4-3.9.8-5.9,1,.2.3.4.4.7.4,1.7-.3,3.4-.4,5.1-.3v.9c-1.4.2-2.7.3-4.1.3-.7-.2-1.5-.4-2.4-.4-.5-.5-.6-.9-.1-1.3,2.2-.2,4.4-.5,6.6-.6h.1Z"></path>
  <path class="cls-1" d="M134.92,9.53c0,.2.1.3.3.3.4.3.4.7,0,1-.8.5-1.7.7-2.6.7-2.2-.3-4.3-.7-6.5-1.2.4-.4.7-.9.9-1.5,1.4,0,1.8-.8,1.2-2.1.9,0,1.8,0,2.5.6,0,.6-.2,1.1-.7,1.5.1.2.4.3.6.4,1.5.2,2.9.2,4.4.2h0l-.1.1Z"></path>
  <path class="cls-1" d="M152.02,11.83c-1.7-.4-3.3-.7-5-.9,1.5-.2,2.9-.3,4.4-.2.4.2.6.6.6,1h0v.1Z"></path>
  <path class="cls-1" d="M130.22,12.43h.3c.9.5,1.8.8,2.9.9.3.2.4.5.3.9-2.2,0-2.3.3-.1,1.2,0,.6.2,1.2.4,1.8.2,0,.3,0,.3-.3,1,0,1.4.4,1.2,1.2-.2-.3-.5-.5-.9-.6-.2.4-.5.5-.9.4-.9-.6-1.4-1.4-1.3-2.5-.5-.2-1.1-.4-1.6-.6-.1-.5-.3-1-.4-1.5-.1.4-.4.7-.7.9-1.4-.2-2.7-.3-4.1-.3.9-.6,1.8-1.1,2.9-1.3.6-.2,1.2-.2,1.8-.2h-.1Z"></path>
  <path class="cls-1" d="M202.92,13.03c1.3.4,2.6.9,3.8,1.6-.3,0-.6.2-.9.3,1,.2,1.7.7,2.1,1.6.2,0,.4-.2.6-.3.8.6,1.7,1,2.6,1.3.4.3.6.8.6,1.3-.3,0-.6,0-.9-.2-.4-.8-.9-1.3-1.8-1.6-.3.2-.4.3-.1.6.6.5,1.1,1.1,1.6,1.8-.1,0-.2.2-.3.3-1.4-.9-2.8-1.8-4.1-2.7-.2-.4-.4-.8-.4-1.2-.8.4-1.5.3-2.2-.2-.7-.8-1.4-1.4-2.4-1.9.7-.2,1.3-.4,1.8-.9h0v.2h0Z"></path>
  <path class="cls-1" d="M183.52,12.73c.3.2.4.5.3.9h1.2v.9c.8,0,1.4.2,1.8.9-3,0-3.1.6-.3,1.3.4.4.7.9.9,1.3-.1.2-.2.5-.3.7.9,1.3.6,1.8-.9,1.5.4.3.7.6,1.2.7-.2.5-.7.8-1.3.9-.8-.2-1.4-.6-1.9-1.2.6,0,1.2,0,1.8-.4-.1,0-.2-.3-.3-.4.5-.7.7-1.5.6-2.3-1.4,0-2.7,0-4,.6-.2,0-.5-.2-.7-.3.6-.3,1.1-.4,1.8-.3,0-.4,0-.7-.3-1-.5,0-1-.2-1.5-.4,1.2,0,2.3-.6,3.2-1.3-.5-.2-1-.2-1.5-.2,0-.6.1-1.2.3-1.8h-.1v-.1Z"></path>
  <path class="cls-1" d="M99.62,16.83c0,.8-.4,1.4-1.2,1.6.7,0,1.2.3,1.5.7-.8,0-1.6,0-2.3-.2.2-.3.4-.6.6-.9,0,0-.2-.2-.3-.2.5-.5,1.1-.9,1.8-1.2v.2h-.1Z"></path>
  <path class="cls-1" d="M125.52,13.93c1.4,0,2.8,0,4.1.3-.3.3-.3.5,0,.7.4.2.8,0,1.2-.2.5.2,1.1.4,1.6.6,0,1.1.4,1.9,1.3,2.5.4,0,.7,0,.9-.4.4,0,.7.3.9.6,0,.2.1.3.3.3-.4.2-.9.4-1.5.6.8,1.1.8,2.2,0,3.4.3.9.9,1.5,1.8,1.6.4,1.5.2,3-.4,4.4-.2-1-.7-1.9-1.3-2.7.1-.5.3-.9.6-1.3-.1-.2-.2-.3-.3-.4-.3.2-.4.5-.3.9-1,0-2,0-2.9.3v3.5h1.2c0,.5.2.9.6,1.2,0,.2,0,.4-.1.6-.8-.3-1.5-.7-2.2-1.2-.8,0-1.2.4-1.2,1.2-1.4,0-2.4.4-3.1,1.5-.7,0-1.2-.4-1.6-.9-.4-.2-.7-.5-.9-.9v-1.5h-4.7c-.7-.5-.7-1,0-1.6,1.9,0,3.7,0,5.6.2,0-.7.3-1.2.9-1.6.7,0,1.3-.4,1.8-.9.5-.2,1-.2,1.5-.2.4,0,.6-.4.6-.9-.2-2.1-1-3.9-2.4-5.4-.9-.2-1.8-.2-2.7.2-1.5-.5-2.9-.9-4.4-1.3-.4-.3-.7-.7-.9-1,.3,0,.6,0,.9-.3-.4-.4-.4-.7,0-1,1.8-1.1,3.6-2,5.6-2.7.9-.3,1.6-.2,2.4.3-1.7.3-3.2,1-4.4,2.2-.3.4-.4.8-.2,1.2.6-.7,1.2-1.2,1.9-1.8h-.2v-.1Z"></path>
  <path class="cls-1" d="M97.92,18.03s.2,0,.3.2c-.2.3-.4.6-.6.9.8.2,1.6.2,2.3.2-.4.7-.3.9.3.6.3.8.9,1.5,1.6,2.1.7-.3,1.3-.7,1.9-1.2,1.5,0,2.9.5,4.1,1.3-.7.2-1,.6-.9,1.3-.3,0-.6,0-.9.3.4.3.8.4,1.2.2.7-.3,1.4-.8,1.9-1.3.4,0,.8.4,1,.7.5.2,1,.2,1.5.2v1.2c-.8-.3-1.6-.5-2.5-.6-1,0-2.1.2-3.1.3v.9c1.2,0,2.4-.2,3.4-.9.8,0,1,.4.7.9-.2.2-.2.5.3.7-1.9,1.4-4.1,2-6.5,1.9,0,.4,0,.7-.3,1-3.3,1.2-6.2,3-8.7,5.4-.2.4-.4.8-.4,1.2.4,1.3.2,2.5-.6,3.5.6.2,1.2.4,1.8.4,1.2,1.5,2.4,2.9,3.5,4.4.8,0,1.6.2,2.3.3l.4.4c-.7,1.5-1.3,3-1.9,4.6,0,1.2.6,2.2,1.5,3.1,1.1,0,2.2-.5,3.1-1.2.3-1.6.6-3.1.9-4.7l.4-.4c1,0,2,.4,2.9.7,0-.5-.2-.9-.6-1.2.8-.3,1.5-.4,2.3-.3v-1.8c.5-.8.8-1.8.9-2.8-.2-.8-.3-1.5-.4-2.2.7-.5,1.3-.9,1.9-1.5.7-1.7,1.5-3.3,2.5-4.7.3-.2.7-.3,1-.3.8.2,1.6.4,2.3.6.7.2,1.4.5,2.1.9.3.7.5,1.3.7,2.1.3.2.6.3,1,.3,0,.8.2,1.6.6,2.3,0,.8-.5,1.4-1.2,1.9.6,0,1.2.2,1.8.4,0,.6.5,1,1,1.2.7-.3,1.5-.5,2.2-.6h1.5c.2.7.5,1.2,1,1.8,0-1-.1-1.8-.6-2.7.2-.3.5-.3.7-.2.4.2.7.6.9,1,.3,2.1.3,4.3,0,6.5h1.2c.3.4.6.8.9,1.3,1.2.4,2.4,1,3.5,1.8-.5.3-1.1.5-1.8.4-.6,0-1.2.3-1.8.7.6,0,1.2,0,1.8-.4,1.3.4,2.6.8,3.8,1.2-.2,1.2-.5,2.3-.7,3.5-.4.3-.9.5-1.3.7.4,0,.8.2,1.2.3-.4.3-.6.7-.9,1-.6.5-1.2,1-1.8,1.6h1.2c.2.6.5,1.3.7,1.9,1-.7,2-.7,3.1,0-.3.4-.6.8-.9,1.2,1,.5.9.9-.3,1.5-.4-.3-.8-.3-1.2,0,.6.4,1.1.9,1.5,1.5,0,.4-.3.6-.6.6s-.6,0-.9-.3c.2-.4.3-.8.3-1.2h-.9c-.6-.6-1.3-1-2.1-1.5-1.4.4-2.8.4-4.1,0,.4-.6.3-1.1-.3-1.5,1.6-1.4,3.1-2.9,4.7-4.4.5-.2.6-.4.3-.7-.9-.2-1.8-.2-2.6.2-.6.2-1.1.5-1.5.9-.7.3-1.4.5-2.2.6-1.6-.2-3.1-.5-4.6-1-1.9-.2-3.7-.2-5.6-.2-1.9.3-3.7.9-5.3,1.8,0,.4,0,.7.3.9-.4.3-.8.6-1.2.9,1.7-.7,3.5-1.3,5.3-1.9.7-.2,1.4-.2,2.1-.2,1.8,0,2.3.9,1.5,2.3-.5,0-1,.3-1.5.6-.5-.3-1-.5-1.5-.4.5.5,1.1.7,1.8.7,0,.8-.2,1.6-.3,2.3v1.5c1.5.3,1.5.5,0,.6-4.1.4-8,1.3-11.8,2.7,0,.9-.2,1.8-.3,2.7-2.3.2-4.6.7-6.8,1.5v1.2c-.2.7-.6,1.2-1.2,1.6-.5,0-1-.2-1.5-.3.5,1.3,0,2.3-1,3.1-.2-1-.2-2,.2-2.9-.2-.2-.5,0-.7.3-.7,1.5-.7,3-.2,4.4-.6.6-.6,1.1,0,1.6-2.6,1.4-5.1,3-7.7,4.6-.7,0-1.3,0-1.8-.6-.3.3-.4.7-.3,1.2-.6,0-1.2.2-1.6.6-.5-.3-1.1-.5-1.8-.6-.7,1.2-1.1,2.5-1.2,3.8,0-.3-.2-.6-.4-.9-.4.6-1,.9-1.8.9v-1.2h-.9c-.3-1.3-1.2-1.9-2.7-1.8-.8,0-1.5.4-2.1.9,0,.2.2.4.3.6h-.3c-.6.4-1.1.9-1.6,1.5,0-.4-.2-.8-.2-1.2h-2.9c-1,0-1.8.2-2.3.9v-.9c-.6.4-1.3.7-2.1.9v-.9h-.9c0,.4,0,.8.3,1.2,0,.2-.2.4-.4.6-.2,2.3-.6,4.5-1,6.8-.3,1.5-.5,3-.6,4.6,0,1.5.3,3.1.6,4.6-.2.9,0,1.7.7,2.4.2.6.2,1.2,0,1.8-.9,1.1-2,1.6-3.4,1.8-.9-.7-1.7-1.5-2.3-2.4.2-.8.6-1.5,1.2-2.1-.2-.6-.4-1.2-.6-1.8-.2-2.6-.4-5.3-.4-7.9,0,2.6-.2,5.2-.4,7.8,0,.9.3,1.7.6,2.5-1.5.2-2.2-.5-1.9-2.1-.3-.2-.6-.3-1-.3,0-3.4,0-6.9-.3-10.3,0-.8.2-1.4.6-2.1-.3-.3-.7-.4-1.2-.3v1.8h-.9c-.2-1.8-.3-3.5-.6-5.3,0-2.1,0-4.2.3-6.3,0-1-.3-1.5-1.3-1.6,0-.3,0-.7-.2-1,0-2.4,0-4.8.3-7.2.2.3.4.6.6.9.2-1.4,0-2.8-.3-4.1,1.8-6.3,4.5-12.2,8.2-17.7h1.2c0-1,.4-1.9,1-2.7,0,.3.2.6.4.9.3-.7.4-1.3.3-2.1.8-.7,1.7-1.3,2.7-1.8,0-.6,0-1.2.2-1.8.8,1,1.7,1.1,2.8.4-.5-.3-1.1-.5-1.8-.4,0-.7.2-1.4.3-2.1.8,0,1.4.5,1.9,1.2,1-.7,1-1.4,0-2.1-.2-.5-.2-1,0-1.5.6-.8,1.2-1.6,1.6-2.3,6.6-7.6,14-14.2,22.3-19.8,1.2-.7,2.3-1.4,3.5-1.9h.8v-.1Z"></path>
  <path class="cls-1" d="M123.22,10.73c.6,0,1.1.2,1.5.7-2.1,1.2-4.4,1.9-6.8,2.2,0,.4,0,.8-.2,1.2l-2.3,2.3c0,.9-.4,1.6-1.3,2.2.7,0,1.3-.2,1.8-.7.3.5.3,1-.2,1.5-.6.2-1,.6-1.3,1.2,0,0,.2.2.3.3,1.1-.9,2.4-1.5,3.8-1.9.4-1,1.2-1.6,2.3-1.8-.8-.2-1.4-.5-1.9-1-.2-.5,0-.8.4-.9.2.4.5.7.9,1,1.5.4,2.9.9,4.4,1.3.9-.3,1.8-.4,2.6-.2,1.3,1.5,2.1,3.4,2.4,5.4,0,.5-.2.7-.6.9-.2-2.2-1-4.3-2.2-6.2-.4.4-1,.6-1.6.6-1.1,0-2.2-.4-3.2-.9,0,.5,0,1.1.6,1.6-.7.7-1.4,1.1-2.3,1.3.4-.5.6-1.1.6-1.8-.7,0-1.2,0-1.8.4.7.2.7.5,0,.9-1.2,0-2.4.3-3.5.4v1.5c.6,0,1.2,0,1.8.2.2.4.5.7.9.7-.8.4-1.7.7-2.7.9-.2.3-.4.6-.7.9-.3-.5-.7-1-1.2-1.5-.9,1.2-2,1.7-3.4,1.5.3-.5,0-.8-.7-.9-1,.7-2.2,1-3.4.9v-.9c1,0,2.1-.2,3.1-.3.9,0,1.7.3,2.5.6v-1.2c-.5,0-1,0-1.5-.2-.3-.4-.6-.6-1-.7-.6.5-1.2,1-1.9,1.3-.4.2-.8.2-1.2-.2.2-.3.5-.4.9-.3,0-.7.2-1.2.9-1.3-1.2-.9-2.6-1.3-4.1-1.3-.6.4-1.2.8-1.9,1.2-.7-.5-1.3-1.2-1.6-2.1.8-1.5,1.9-2.1,3.5-1.9-.4.5-.4.9,0,1.3.5.4,1.1.6,1.8.6.8-.3,1.6-.6,2.3-.9.3,0,.5,0,.7.3,0,.4,0,.7.2.9,2.4-.4,3.6-1.8,3.5-4.1,3.4-1.4,6.6-3.1,9.7-5.2.4,0,.8-.2,1.2-.2h0v.4h-.1Z"></path>
  <path class="cls-1" d="M120.22,21.03c0,.4,0,.7-.3.9-.7,0-1,.5-.9,1.2-.3.2-.6.3-.9.3s-.7-.3-.9-.7c-.6-.2-1.2-.2-1.8-.2v-1.5c1.2-.2,2.3-.3,3.5-.4.7-.4.7-.7,0-.9.5-.4,1.1-.5,1.8-.4,0,.7-.2,1.2-.6,1.8h.1v-.1Z"></path>
  <path class="cls-1" d="M119.92,21.83c0,.6-.4,1-.9,1.2,0-.7.2-1.1.9-1.2Z"></path>
  <path class="cls-1" d="M135.82,18.33c.5.2,1,.3,1.5.3.3,1.1.3,2.3,0,3.5-1.8-.2-2.1.4-1.2,1.8-.9-.2-1.5-.7-1.8-1.6.8-1.1.8-2.3,0-3.4.5-.2,1-.4,1.5-.6h0Z"></path>
  <path class="cls-1" d="M184.02,21.83c.7,0,1.4.2,2.1.4.4.4.4.9,0,1.3-1-.2-1.7-.8-2.1-1.8h0v.1Z"></path>
  <path class="cls-1" d="M154.92,22.13c-.4.4-.4.7.1.9.6-.3,1.1-.3,1.6,0-.3.5-.6,1-.9,1.5,0,.3.1.5.3.7,1.2.2,1.5.8.9,1.9-.9,0-1.3-.6-1.2-1.5-.7,0-1.3,0-1.8.6.4-1,1-2,1.8-2.8-1.4.2-2.7.4-4.1.6-.5-.5-.7-1.2-.6-1.9.5,0,1,0,1.5-.2-.1,0-.2-.3-.3-.4,1-.4,1.9-.2,2.6.6h.1Z"></path>
  <path class="cls-1" d="M153.22,26.03c-.6.4-1.3.7-2.1.9.5-.3.8-.8.9-1.5.6,0,1.2,0,1.8.3-.1.2-.3.3-.6.3h0Z"></path>
  <path class="cls-1" d="M183.22,26.83c1.2,0,2.2.3,3.2.9.5,0,.6,0,.3.3-.5.2-1,.4-1.5.6v-1.2c-1,.4-2.1.7-3.2.9v-.9c.6,0,1,0,1.2-.6h0Z"></path>
  <path class="cls-1" d="M136.12,23.93c1.3,0,2.2.5,2.6,1.8.8.4,1.5.9,2.1,1.6-.7.2-1.3.6-1.8,1-.8.4-1.6.8-2.4,1.3-.4.2-.8.2-1.2,0-.8-.6-1-1.4-.7-2.2-1.5-1.3-2.2-.9-2.2,1.2h-1.2v-3.5c1-.2,1.9-.3,2.9-.3,0-.3,0-.6.3-.9.1.2.2.3.3.4-.3.4-.5.8-.6,1.3.6.8,1.1,1.7,1.3,2.7.7-1.4.8-2.9.4-4.4h.2,0Z"></path>
  <path class="cls-1" d="M151.12,26.83c-.4.6-.3,1.2.3,1.6-.5.5-.7,1.2-.6,1.9.4,0,.8,0,1.2.2.6.9.7,1.8.3,2.8-.5-.3-1.1-.4-1.8-.3,0-.7,0-1.2-.3-1.8,0-.7-.3-1.3-.6-1.9.1-.5.4-.8.9-.9-.5-.8-.3-1.4.6-1.6h0Z"></path>
  <path class="cls-1" d="M133.22,29.83h.9v2.9h-1.2c0,.5-.1.9-.6,1.2-.9-.6-1.8-1.2-2.6-1.8-.1,0-.2.2-.3.3.9.7,1.1,1.6.6,2.7-1.8-.7-3.4-1.5-5-2.3-.2-.4-.4-.8-.6-1.2,0-.3.3-.5.6-.6.4.5.9.8,1.6.9.7-1.1,1.7-1.6,3.1-1.5,0-.8.4-1.2,1.2-1.2.7.5,1.4.9,2.2,1.2.1-.2.2-.4.1-.6h0Z"></path>
  <path class="cls-1" d="M130.52,30.73c1,.2,1.9.3,2.9.3v.9c-.9,0-1.8,0-2.6-.2-.2-.3-.3-.6-.3-1h0Z"></path>
  <path class="cls-1" d="M230.52,34.53c-.8.2-1.2-.2-1.2-1.2h-.9c0,.4,0,.8-.3,1.2-.2,0-.3-.2-.4-.3-.4.2-.9.4-1.3.4-.3.2-.6.4-.7.7-.4,2-.5,4.1-.4,6.2-.2-.6-.4-1.2-.6-1.9v-5.7c.4,0,.7,0,1,.3,0-.4,0-.8-.1-1.2.4.3.8.3,1.2,0-.3-.3-.3-.6,0-.9,1.2,0,2.4.5,3.5,1.2.3.3.4.7.3,1.2h-.1Z"></path>
  <path class="cls-1" d="M197.62,38.03c-1.6-1.3-3.5-1.7-5.6-1.3-.9,0-1.7.4-2.4,1,.8.2,1.4.6,2.1,1-.9-.2-1.8,0-2.6.2-.6-.6-1.4-1-2.4-1.2.8-.2,1.6-.2,2.4-.2-.8-.8-1.8-1.2-2.9-1.3.3-.8.8-1.4,1.5-1.8,1.1.5,1.9,1.3,2.4,2.3.4-.3.7-.7.7-1.2.2.2.4.5.7.6.8-.2,1.5-.2,2.4,0,.6,0,1-.3,1.5-.6,1.3.3,2.1,1.1,2.4,2.3h0l-.2.2h0Z"></path>
  <path class="cls-1" d="M119.02,32.43c.8,0,1.6,0,2.3.2.4.8.8,1.7,1.2,2.5,2.4.4,2.7,1.4.9,2.9-.3-.7-.5-1.5-.6-2.3-.4,0-.7,0-1-.3-.2-.7-.4-1.4-.7-2.1-.7-.3-1.4-.6-2.1-.9h0Z"></path>
  <path class="cls-1" d="M189.12,39.23c1,.3,1.9.7,2.9,1,.2.3.3.6.3,1-.7-.3-1.4-.7-2.1-1-.7,0-1.4-.2-2.1-.3.3-.3.6-.6.9-.7h.1Z"></path>
  <path class="cls-1" d="M132.02,47.43h-1.2c.3-2.2.3-4.3,0-6.5-.1-.5-.4-.8-.9-1-.3-.2-.5,0-.7.2.4.8.6,1.7.6,2.7-.5-.5-.8-1.1-1-1.8h-1.5c.9-.8,1.8-1.6,2.6-2.5.3-.2.5,0,.7.2.6,2.1,1.1,4.1,1.6,6.2-.4.5-.8,1-1.2,1.5.3.4.6.8.9,1.2h0v-.2h.1Z"></path>
  <path class="cls-1" d="M197.62,38.03c.4,0,.7,0,.9.3-1.1,1.2-2.5,1.8-4.1,1.8v1.2c-.4,0-.7,0-1-.3-.2.2-.4.4-.4.6-.3,0-.5,0-.6-.3,0-.4,0-.7-.3-1-1-.4-2-.7-2.9-1v-.3c.8-.3,1.7-.3,2.6-.2-.6-.5-1.3-.8-2.1-1,.6-.6,1.4-.9,2.4-1,2.1-.4,3.9,0,5.6,1.3h0l-.1-.1Z"></path>
  <path class="cls-1" d="M198.52,38.33c.7.5.7,1,0,1.6-1.8.9-3.6,1.4-5.6,1.6,0-.2.2-.4.4-.6.3.2.6.3,1,.3v-1.2c1.6,0,3-.6,4.1-1.8h.1v.1Z"></path>
  <path class="cls-1" d="M165.22,34.23c0,.6-.1,1-.6,1.3.4.2.6.6.4,1-.6.5-1,1-1.3,1.6-.5,0-1,.2-1.5,0,0,1.7-.5,3.2-1.6,4.4-1,.4-1.9.4-2.8,0h1.5c0-.4,0-.8.1-1.2.1,0,.2.2.3.3.9-1.1,1.4-2.3,1.3-3.8h2.1c0-.3,0-.6.1-.9,1-.7,1.3-1.7.7-2.8.4,0,.8-.2,1.2-.2h0v.2l.1.1Z"></path>
  <path class="cls-1" d="M237.02,38.63c1.5,1.5,2.8,3,4.1,4.7-.1,0-.2.2-.3.3-.6-.5-1.1-.9-1.8-1.3-.3-.2-.5-.2-.6.2-.3.3-.6.7-.9,1.2-1.5-1.1-1.2-1.7.9-1.8,0-.5,0-1-.3-1.5-.6-.4-1-1-1.2-1.8h.1Z"></path>
  <path class="cls-1" d="M223.22,47.43c0-.2-.1-.3-.3-.4.4,0,.7-.2,1-.4.6-1.2,1.1-2.5,1.3-3.8h.9c0-2.2,0-4.3.4-6.5.9-.4,1.7-1,2.4-1.8.2.5.2,1,0,1.5-.7.6-1.2,1.3-1.8,2.1-.1,2-.2,3.9-.1,5.9-.4,0-.6,0-.9.3-.2.6-.4,1.2-.4,1.8-.5.3-.8.8-1,1.3-.5.2-1,.2-1.5.2h0v-.2h0Z"></path>
  <path class="cls-1" d="M72.02,39.83c-.4.8-1,1.6-1.6,2.3-.2.5-.2,1,0,1.5,1,.7,1,1.4,0,2.1-.5-.7-1.1-1.1-1.9-1.2,0,.7-.2,1.4-.3,2.1.6,0,1.2,0,1.8.4-1.1.7-2,.5-2.8-.4-.2.6-.2,1.2-.2,1.8-1,.5-1.9,1.1-2.7,1.8,0,.7,0,1.4-.3,2.1-.2-.3-.4-.6-.4-.9-.7.8-1,1.6-1,2.7h-1.2c3.1-5,6.6-9.7,10.6-14.1h0v-.2Z"></path>
  <path class="cls-1" d="M247.02,51.23c.2.3.3.6.3.9-.3,0-.5,0-.7-.3-1.1-1.3-2.1-2.7-3.1-4.1-.5-.2-.9-.4-1.5-.4-.2-.2-.3-.4-.3-.7.3.4.7.5,1.2.4-.5-.3-.8-.8-.7-1.3.3.4.8.7,1.3.7,1.2,1.6,2.4,3.2,3.5,4.8h0Z"></path>
  <path class="cls-1" d="M110.82,43.33v1.8c-.8,0-1.6,0-2.3.3.4.3.6.7.6,1.2-1-.4-2-.6-2.9-.7l-.4.4c-.3,1.6-.6,3.1-.9,4.7-.9.7-2,1.1-3.1,1.2.7-.4,1.5-.9,2.2-1.5.8-1.7,1.2-3.4,1.3-5.3,2.1,0,4-.8,5.6-2.1h-.1Z"></path>
  <path class="cls-1" d="M91.12,55.73c-.5-.3-1.1-.4-1.6-.6-1.3.2-2.4.7-3.4,1.5-.2-.5-.3-1-.3-1.5,1.3,0,2.5-.4,3.7-.9.8.2,1.7.4,2.5.6,0,.5,0,1-.2,1.5-.2-.3-.4-.4-.7-.6h0Z"></path>
  <path class="cls-1" d="M210.52,53.93c.8.5.6,1-.3,1.5-.3,0-.5-.3-.6-.6.2-.4.5-.7.9-.9h0Z"></path>
  <path class="cls-1" d="M224.62,54.53h1.2c-.1,1.7.7,2.4,2.4,2.3-.4.6-1,.7-1.8.4-.7-.3-1.3-.7-1.8-1.3v-1.5h0v.1Z"></path>
  <path class="cls-1" d="M214.32,56.23c.6-.4,1.3-.4,2.1,0,.1.2.2.4.3.6-.3,1-.5,1.9-.6,2.9,0,.2-.1.3-.3.3-.4-1.1-.3-2,.3-2.9-.5-.6-1.1-.9-1.8-.9Z"></path>
  <path class="cls-1" d="M212.02,55.43v.9c.6.2,1.2.4,1.8.6,0,.8-.2,1.6-.6,2.3.4,0,.7,0,1-.3.1,1,.2,2,.1,2.9-.2,0-.3,0-.4-.3,0-.7-.2-1.4-.4-2.1-.4.2-.6.5-.7.9-.1-.7-.2-1.4-.1-2.1-.4,0-.6,0-.9-.3.2-.4.3-.8.3-1.2-.6,0-1-.3-1.2-.9l1.2-.6h0v.2h-.1Z"></path>
  <path class="cls-1" d="M119.02,57.13c-1.6,1-3.2,1.9-5,2.7-.3-.2-.4-.5-.3-.9,1.7-.9,3.4-1.5,5.3-1.8h0Z"></path>
  <path class="cls-1" d="M122.92,58.03c1.3,0,2.5.5,3.5,1.2,0,.6-.3,1-.9,1.2-.9-.8-1.8-1.6-2.7-2.3h0l.1-.1Z"></path>
  <path class="cls-1" d="M230.52,34.53c.7.2,1.4.4,2.1.4.2.3.4.5.6.7,1.4.8,2.7,1.8,3.8,2.9.1.7.5,1.3,1.2,1.8.3.4.4.9.3,1.5-2.1,0-2.4.6-.9,1.8.3-.4.6-.8.9-1.2,1.5,1,2.6,2.4,3.2,4.1,0,.3,0,.5.3.7.5,0,1,.2,1.5.4,1,1.4,2,2.8,3.1,4.1.2.2.4.3.7.3,2.1,3,4,6.1,5.6,9.4,0,.6,0,1.2-.3,1.8-.5-.3-.7,0-.6.6,0,.5.3.9.7,1.2,0-.5.3-.9.7-1.2.3.8.4,1.6.3,2.3-.4,0-.8,0-1.2.3.6.6.8,1.2.6,1.9,0,.4.2.7.4,1,.6-2.7,1.3-2.7,1.9,0,.2-.6.5-.7.9-.3.4.7.7,1.5.9,2.3.7,2.5,1.3,5.1,1.6,7.7,1,.9,1.6,2.1,1.8,3.5.2.4.4.4.4,0,.3.3.4.7.3,1.2-.1,1.2-.3,2.3-.4,3.5-.4.4-.8.7-1.3.9-.6.2-1,.4-1.5.9-.6-1.2-1-2.5-1.2-3.8-.1-.8-.1-1.7,0-2.7-.9,0-1.8.2-2.6.3,0,.7,0,1.3-.3,1.9.2,2.9.4,5.8.4,8.7s.3.8.7.9c.2,0,.3,0,.3.3-.7,0-1.4-.2-2.1-.3,0-2.4,0-4.9-.1-7.3,0-.7-.2-1.4-.4-2.1-.3,2.2-.3,4.5,0,6.8,0,.7-.1,1.4-.1,2.1-.2.3-.4.6-.7.9.1.2.2.4.3.6-.3,0-.5.3-.6.6-1.4.2-1.9,1-1.5,2.3-.5-.7-.8-1.6-.7-2.7-.4-.4-.8-.3-1,.3.8.9,1.1,2,.9,3.2.6,0,1,0,1.2-.6.2.3.5.5.9.6,1.1.4,1.3,1.1.6,2.1-1.8-1.7-2-1.6-.7.3.4,2.3-.1,2.5-1.5.9-.4-.8-.5-1.6-.1-2.3-.3-.4-.6-.8-1-1.2-.1-.5-.2-1-.4-1.5-.3-.6-.6-1.2-1-1.8,0-1.3-.2-2.6-.6-3.8-2.6-1.8-4.6-4.2-5.9-7.1,0,.2-.2.4-.4.6-.2-.4-.4-.8-.6-1.2-.2-.3-.6-.4-.9-.2-.6,1.6-.2,2.8,1.3,3.7.6,1,1.1,2.1,1.5,3.2.5.6,1.1.9,1.9.9,0,.4,0,.8.1,1.2,1.1.7,1.9,1.5,2.5,2.7,0,.2-.1.4-.1.6-.4-.4-.8-.8-1.3-1.2-.4.8-.3,1.5.3,2.2-.3.6-.5,1.2-.6,1.9-.3,0-.6,0-.9-.2.2-.3.3-.6.3-1-.6-2.7-2.1-4.6-4.6-5.9-.5-1-1.1-1.9-1.9-2.7.4-.9.5-1.9.4-2.9-.3.2-.6.3-1,.3.2-.6.2-1.2,0-1.8-.2.3-.5.5-.9.6-.7-.5-1.5-.6-2.4-.4-1.1,1-2.3,1.6-3.8,1.6s-1.4,0-2.1.2c0,.9-.1,1.8-.3,2.8-.7.7-1.6,1.1-2.6,1.2-.3.7-.7,1.3-1.2,1.8-.4-.3-.8-.3-1,.3-.1.5-.2,1-.1,1.5-.1-1.7-.6-3.2-1.5-4.7.8,0,1.5-.2,2.2-.6,1.2.8,1.8.4,1.6-1.2-1.1,0-2.1-.5-2.9-1.3-.9-.2-1.8-.2-2.6-.2v1.2c.9,0,1.8,0,2.6.2.4.3.4.6,0,.9-1.8.3-3.4-.2-4.7-1.3-.7.8-1.6,1.1-2.6.9,0,.8,0,1.6-.3,2.3-.3-1.8-.4-3.7-.3-5.6h3.5c1.3.2,2.5.3,3.8.3.3-1.7.3-3.3.1-5-.3-.7-.8-1.2-1.5-1.5-.2-.6-.4-1.2-.7-1.8-2,0-3.2-1-3.5-2.9,1.5,0,3,0,4.4.6,0-.5,0-1-.3-1.5.1,0,.3-.2.4-.3.4.3.8.5,1.2.6,1.6-.3,2.5-1.1,2.8-2.7.9-.2,1.7-.7,2.2-1.5.2-.9.6-1.7,1-2.5,1.1-.5,2.3-.8,3.5-.7,0-.7-.3-1.4-.6-2.1.2-.4.4-.8.6-1.2.2.3.4.6.6.9.7.8,1.4,1.6,2.2,2.3.5-.2.9-.3,1.3-.6.8.4,1.5.9,2.2,1.5.9-1.2,2-1.6,3.4-1.3.6,1,1,.9,1.2-.2h.9c-.5-1.4-1-2.7-1.5-4.1,0-.5.3-.9.7-1.2.4.7.9,1,1.6,1.2-.2-1.9-1.1-3.1-2.9-3.5v-.9c.8,0,1.4-.2,2.1-.6.6.2,1.2.3,1.8.3h.9c.4-2.2-.5-3.2-2.6-2.9,0-.3,0-.6-.3-.9-.7-.4-1.4-.7-2.1-.7.7,1,1.4,1.8,2.4,2.5-1.6,1-3.1.7-4.3-.9-.9-1.6-1.8-3.1-2.6-4.7v-4.7c-.6-.9-1.4-1.4-2.5-1.5,0,.5,0,1,.1,1.5,1.2,1.2,1.2,2.4,0,3.5-.1,2.9,1,5.2,3.5,6.8.3,1.2,0,2.2-.7,3.1.9,1.4,1.2,2.9,1,4.6-.4.3-.8.4-1.3.3v1.2c-.9,0-1.4-.3-1.5-1.2.2-.4.5-.7,1-.9.1-.4.2-.8.1-1.2h-.9v.9h-.9c-1.5-2.1-2.9-4.3-4.4-6.5-.4.6-.8,1.2-1.2,1.8-1.7,0-2.4-.7-2.4-2.3h-1.2c-.2-.3-.5-.4-.9-.3,0-.7.1-1.3.6-1.8,0,0-.1-.2-.1-.3-.2.2-.4.4-.7.6-.2-.7-.5-1.3-1-1.8-.5-1-.6-1.9-.1-2.9.2-.3.5-.5.9-.6.5,0,1,0,1.5-.2.2-.6.5-1,1-1.3,0-.6.2-1.2.4-1.8.2-.3.5-.4.9-.3,0-2,0-3.9.1-5.9.5-.8,1.1-1.4,1.8-2.1.2-.5.2-1,0-1.5-.6.8-1.4,1.4-2.4,1.8-.4,2.1-.5,4.3-.4,6.5h-.9v-1.2c-.1-2.1,0-4.1.4-6.2.1-.3.4-.6.7-.7.5,0,.9-.2,1.3-.4.1,0,.3.2.4.3.3-.3.4-.7.3-1.2h.9c0,1,.4,1.4,1.2,1.2h0v.2h0Z"></path>
  <path class="cls-1" d="M244.32,56.83c0-.3.1-.6.3-.9-.6-.7-1.2-1.1-2.1-1.2-.9-.7-1.7-1.5-2.4-2.5.7,0,1.4.3,2.1.7.3.2.4.5.3.9,2.2-.2,3.1.8,2.6,2.9h-.9l.1.1Z"></path>
  <path class="cls-1" d="M237.92,59.23c1.1.3,1.4,1,.9,2.1-.7-.5-1-1.2-.9-2.1Z"></path>
  <path class="cls-1" d="M214.32,56.23c.7,0,1.3.3,1.8.9-.6.9-.7,1.9-.3,2.9.2,0,.3,0,.3-.3h.3c.3.6.6,1.2.9,1.9-.2.6-.6.8-1.2.7v-.9c-.6,0-1.1,0-1.5.3h-.3c0-1,0-2-.1-2.9-.3.2-.6.3-1,.3.3-.7.5-1.5.6-2.3-.6-.2-1.2-.4-1.8-.6v-.9c0-.3.1-.6.3-.9.7-.3,1.4-.4,2.1-.3-.2.8-.2,1.4,0,2.1,0,0-.1,0-.1,0Z"></path>
  <path class="cls-1" d="M88.52,60.73c-.8,0-1.6.2-2.3.3v1.2c-.7-.2-1.4-.5-2.1-.9.8,0,1.5-.4,2.1-.9-.7-.4-1.4-.8-2.1-1.2,1.1-.3,2.2-.5,3.2-.6,0,.3,0,.6.2.9.6.2.9.6,1,1.2h0Z"></path>
  <path class="cls-1" d="M216.42,59.83c1.1.5,1.9,1.4,2.2,2.7,1.4,1.1,2.3,2.6,2.5,4.4.6,0,1.2,0,1.8.2.3.2.5.4.6.7-.2.8-.6,1.5-1.2,2.1-.3.2-.6.4-1,.6-.2-1-.4-1.9-.4-2.9-.8,0-1.6.2-2.4.6-.7-.5-1.5-.6-2.4-.4.3.4.5.8.6,1.3-.8-.3-1.6-.7-2.4-1,.5-.3.9-.7,1.2-1.2-1-1.6-.6-2.2,1.2-1.6v1.2c-.3,0-.6,0-.9.2.9,0,1.9.2,2.8.4.3,0,.5-.2.7-.3.4-.8.4-1.6,0-2.3-.4.6-.7,1.3-.9,2.1h-1.2c-.1-.9.3-1.3,1.2-1.2,0-.7,0-1.4-.3-2.1-.4.4-.9.7-1.5.9-.5-.5-.9-1.1-1-1.8-.3-.2-.6-.3-1-.3.4-.3.9-.4,1.5-.3v.9c.6,0,1,0,1.2-.7-.3-.7-.6-1.3-.9-1.9h0v-.3h0Z"></path>
  <path class="cls-1" d="M86.42,62.13c.3,0,.6,0,.9.2-.7.5-1.2,1-1.8,1.6v-1.5c.4,0,.7,0,.9-.3h0Z"></path>
  <path class="cls-1" d="M130.52,61.83c.6.4.7.9.3,1.5,1.4.4,2.7.4,4.1,0,.8.4,1.4.9,2.1,1.5-.6.8-1.4,1.1-2.4.9,1.1-.2,1.3-.7.6-1.3-1.9-.3-3.7-.6-5.6-.7,0-.8.3-1.3.9-1.8h0v-.1Z"></path>
  <path class="cls-1" d="M208.22,64.83c.2-.3.3-.6.3-.9s-.1-.3-.3-.4c.5-.3.9-.7,1.3-1,0,.3.2.6.4.9.4-.6.4-1.2,0-1.8.1-.3.3-.5.6-.6.4.3.6.7.6,1.2-.3,1.5-.3,2.9,0,4.3-.2.3-.5.4-.9.4-.8-.2-1.6-.3-2.4-.4.3-.5.4-1,.3-1.6h0l.1-.1Z"></path>
  <path class="cls-1" d="M231.12,60.43c.2.3.6.7.9,1-.8.6-.8,1.1,0,1.6.7-.4,1.3-.8,1.8-1.5h.9v-.9h.9c0,.4,0,.8-.1,1.2-.5,0-.9.4-1,.9-.3.7-.4,1.5-.3,2.3-.9,0-1.2-.2-.9-.9-.5-1.1-.8-1.1-1,0-.2-.2-.4-.3-.7-.3-.2-.3-.4-.6-.6-.9-.2.4-.4.8-.6,1.2-.5-1-1-2-1.5-3.1,0-.4.3-.7.6-.9-.2,0-.4-.2-.6-.4.5-.4,1-.8,1.6-1.2.6.4.8,1,.7,1.8h0l-.1.1Z"></path>
  <path class="cls-1" d="M231.12,60.43c.1,1.2-.4,1.9-1.5,2.1-.4-.9-.3-1.8.1-2.7.3-.2.6-.3,1-.3,0,.4,0,.7.3.9h.1Z"></path>
  <path class="cls-1" d="M211.42,67.13c-1.2.2-2.4.2-3.5.2-.4-.9-.3-1.8.3-2.5,0,.6,0,1.1-.3,1.6.8,0,1.6.3,2.4.4.4,0,.7-.2.9-.4-.3-1.4-.3-2.8,0-4.3,0-.5-.2-.9-.6-1.2-.3,0-.5.3-.6.6.4.6.4,1.2,0,1.8-.2-.3-.4-.6-.4-.9-.4.4-.9.7-1.3,1,.2,0,.3.3.3.4-.4,0-.7,0-1-.3,0-.7-.2-1.3-.4-1.9.3,0,.6-.2.9-.2.3.3.7.4,1.2.3v-1.5c1.1,0,2.2,0,3.2.4,1.1.9,1.1,1.8,0,2.7,1,1,1.2,2.1.6,3.4-.5,0-1,0-1.5.3h-.2v.1Z"></path>
  <path class="cls-1" d="M138.82,64.23c1.6.2,1.8,1,.6,2.3-.5.4-.8.3-.9-.3.3,0,.5-.2.6-.6-.4-.6-.9-1.1-1.5-1.5.4-.3.8-.3,1.2,0h0v.1Z"></path>
  <path class="cls-1" d="M87.32,63.93c-.2,1.6-.4,3.1-.6,4.7-.5,0-1,0-1.5-.3.9-1.2,1.5-2.6,1.6-4.1,0-.2.3-.3.4-.3h.1Z"></path>
  <path class="cls-1" d="M90.82,64.23c.2.5.6.7,1.2.6,0,.6,0,1.1-.3,1.5-.5-.5-1.1-.9-1.8-1.2l.9-.9h0Z"></path>
  <path class="cls-1" d="M90.82,61.53c1.2.9,1.2,1.8,0,2.7-.4-.4-.7-.9-.9-1.5.2-.4.5-.8.9-1.2Z"></path>
  <path class="cls-1" d="M216.72,65.13v-1.2c.6-.2,1.1-.5,1.5-.9.3.7.4,1.3.3,2.1-.9,0-1.3.3-1.2,1.2h1.2c.1-.7.4-1.4.9-2.1.4.8.4,1.6,0,2.3-.2,0-.5.2-.7.3-.9-.2-1.9-.3-2.8-.4.3,0,.6-.2.9-.2v-1.2h0l-.1.1Z"></path>
  <path class="cls-1" d="M252.92,61.53c1.3,2.4,2.5,5,3.5,7.7-.4-.4-.7-.3-.9.3-.6-2.7-1.3-2.7-1.9,0-.2-.3-.3-.7-.4-1,.2-.7,0-1.3-.6-1.9.4-.3.7-.4,1.2-.3,0-.8,0-1.6-.3-2.3-.4.3-.7.7-.7,1.2-.4-.3-.7-.7-.7-1.2s.1-.9.6-.6c.3-.6.4-1.2.3-1.8h-.1v-.1Z"></path>
  <path class="cls-1" d="M96.12,66.23c.8.7,1.9,1.1,3.1,1.2.5,0,1-.3,1.3-.6.3,0,.6,0,.9.3-1.3,1.5-2.7,1.6-4.1.3-.5.2-1,.3-1.5.3h-2.3c.5-.4,1.1-.6,1.8-.6v-.9h.9s-.1,0-.1,0Z"></path>
  <path class="cls-1" d="M120.22,64.23c.5.7,1.1,1.3,1.8,1.8.8.2,1.6.3,2.3.6.6-1,1.5-1.7,2.7-2.1.6.6.8,1.4.3,2.2-1.4.7-2.9,1-4.4,1-.7-.7-1.6-1-2.7-.9v-.6c1.5,0,1.5-.3,0-.6v-1.5h0v.1Z"></path>
  <path class="cls-1" d="M120.22,66.83c1.1,0,1.9.2,2.7.9-.8.3-1.7.5-2.7.6-.8,0-1.5.2-2.2.6-.2,0-.3-.2-.4-.3.9-.6,1.8-1.2,2.7-1.8h-.1Z"></path>
  <path class="cls-1" d="M120.22,66.83c-.8.6-1.7,1.2-2.7,1.8.2,0,.3.2.4.3.7-.4,1.4-.6,2.2-.6-.9.3-1.7.8-2.3,1.5h-1.2c-.2-.6-.2-1.2,0-1.8,1-.9,2.2-1.3,3.5-1.2h.1Z"></path>
  <path class="cls-1" d="M222.32,69.83c1.1,0,1.2.4.6,1-1.8.2-3.6.2-5.3-.2-.9.2-1.8.5-2.6.9-.3-.8,0-1.5.6-2.1.7-.2,1.4-.3,2.1-.4-.3,0-.6-.2-.9-.2,0-.5-.3-.9-.6-1.3.8-.2,1.6,0,2.4.4.7-.4,1.5-.6,2.4-.6,0,1,.2,2,.4,2.9.4-.2.7-.4,1-.6h0v.2h-.1Z"></path>
  <path class="cls-1" d="M108.22,71.53c.4,0,.6.4.6.9-1.7,0-3.3,0-5,.2.5,0,1,.2,1.5.3-1.1.4-2.3.6-3.5.4,0,.4,0,.7-.3.9v-1.2c2.2-.8,4.4-1.3,6.8-1.5h-.1Z"></path>
  <path class="cls-1" d="M219.02,77.13v-1.5c.5,0,.9.2,1.3.6.5,0,.8-.4,1-.9.4,0,.7.3.9.7-.6.5-1,1.2-1.2,2.1-.2,0-.4,0-.6.2-.5-.4-1-.8-1.5-1.2,0,0,.1,0,.1,0Z"></path>
  <path class="cls-1" d="M257.32,71.53c1.7,3.5,3,7.2,3.8,11.2,0,.4-.2.4-.4,0-.2-1.4-.8-2.6-1.8-3.5-.4-2.6-.9-5.1-1.6-7.7Z"></path>
  <path class="cls-1" d="M53.22,71.53c.4,1.4.5,2.7.3,4.1-.2-.3-.4-.6-.6-.9-.2,2.4-.3,4.8-.3,7.2s0,.7.2,1c1,0,1.4.6,1.3,1.6-.3,2.1-.3,4.2-.3,6.3-.3-.3-.4-.7-.3-1.2,0-2,0-3.9-.2-5.9-.3-.4-.6-.4-.9,0-.2,2-.2,4,.2,5.9,0,2.6,0,5.1.3,7.7-.4.6-.4,1.1,0,1.8.2,0,.3-.3.3-.6.4.5.3,1-.3,1.5,0,0-.2-.2-.3-.3-.2-1.3-.5-2.6-.9-3.8.3-1.7,0-3.4-.9-5,.4-3.6.9-7.1,1.5-10.7-.9-3-.6-5.9.9-8.7h0Z"></path>
  <path class="cls-1" d="M257.02,85.43c-.5-.2-.8-.5-1.2-.9-.2,0-.3.2-.4.3-.2,2.4-.4,4.7-.7,7.1.2.9.4,1.8.6,2.7-.4,0-.7-.4-.7-.9,0-2.9-.2-5.8-.4-8.7.3-.6.4-1.2.3-1.9.9,0,1.8-.2,2.6-.3-.1.9-.1,1.8,0,2.7h0l-.1-.1Z"></path>
  <path class="cls-1" d="M237.32,89.53c-.5-1.4-1.3-2.6-2.4-3.7-.4-.2-.8-.2-1.2.2-.7.8-1.5,1.4-2.5,1.8-.6-.2-1.2-.5-1.6-.9,1.5,0,2.8-.6,3.8-1.6.8-.2,1.6,0,2.4.4.3,0,.6-.3.9-.6.2.6.2,1.2,0,1.8.4,0,.7,0,1-.3.1,1,0,2-.4,2.9h0Z"></path>
  <path class="cls-1" d="M213.82,85.13c-.1,1.9,0,3.7.3,5.6.3-.8.4-1.5.3-2.3,1.1.2,1.9,0,2.6-.9,1.4,1.2,2.9,1.6,4.7,1.3.4-.3.4-.6,0-.9-.9-.2-1.8-.2-2.6-.2v-1.2c.9,0,1.8,0,2.6.2.8.8,1.8,1.2,2.9,1.3.1,1.6-.4,2-1.6,1.2-.7.4-1.4.6-2.2.6.9,1.5,1.3,3,1.5,4.7.3.2.4.5.3.9-.8,0-1.5-.2-2.2-.6-.2.4-.2.8.1,1.2l1.8.9c-.2.3-.5.5-.9.6-1.2.5-2.5.6-3.8.4l-1.2-.3c.4-.2.4-.4,0-.6h2.6c.5-.2.6-.4.3-.7h-5c-.4-1.5-.9-2.9-1.3-4.4-.2-.4-.6-.6-1-.6,0,1.1.2,2.2.6,3.2-.4,0-.6,0-.9.3l.6.3c.5-.2,1-.3,1.5-.3v1.2h-2.9c-.4-.7-.3-1.4.3-2.1-.4-.8-.6-1.7-.6-2.7h.9c-.5-2.2-.7-4.5-.6-6.8,1.1,0,2,0,2.9.6h0v.1Z"></path>
  <path class="cls-1" d="M89.32,86.53c-1.3.6-2.4,1.6-3.1,2.9-.2,2.5,0,5,.2,7.5,0,1.2,0,2.3-.6,3.4-.4.3-.8.4-1.2.2-1.1-1.7-1.6-3.5-1.5-5.4.3,1.4.7,2.8,1.2,4.1.4.9.9,1.1,1.5.3-.3-.2-.5-.5-.6-.9.4-.6.6-1.2.6-1.9-.4-2-.4-4,0-6,0-.3-.2-.6-.3-.9-.8,3-1.2,3-1.2,0h-.9c.2.9.2,1.8.3,2.8,0,.8-.2,1.4-.6,1.9.3-.6.3-1.2.2-1.8-.5-.4-.8-.8-.9-1.5-.7.2-1.4.2-2.2,0-.2-.5-.4-1-.6-1.5h.9v1.2c.7,0,1.3-.3,1.8-.9.2.3.4.6.4.9,0-1.3.5-2.6,1.2-3.8.7,0,1.2.3,1.8.6.5-.4,1-.6,1.6-.6,0-.4,0-.8.3-1.2.5.5,1.1.7,1.8.6h-.1Z"></path>
  <path class="cls-1" d="M79.62,89.83c-1.4-.3-2.9-.4-4.4-.3,0-.2-.2-.4-.3-.6.6-.5,1.3-.8,2.1-.9,1.4-.2,2.3.4,2.7,1.8h-.1Z"></path>
  <path class="cls-1" d="M67.92,90.73c-.3.2-.4.5-.3.9-.8,0-1.4,0-1.9.6-.7,1.6-1.1,3.2-1.2,5-.2.5-.4.8-.7,1.2.5-2.2.8-4.5,1-6.8.2-.2.3-.3.4-.6-.2-.4-.3-.8-.3-1.2h.9v.9c.7-.2,1.4-.5,2.1-.9v.9Z"></path>
  <path class="cls-1" d="M74.92,89.53c.2.8.2,1.6,0,2.3-.7-.5-1.5-.7-2.3-.6v-.9c-.9,0-1.7,0-2.3-.6h2.9c0,.4,0,.8.2,1.2.5-.6,1-1.1,1.6-1.5h0l-.1.1Z"></path>
  <path class="cls-1" d="M217.32,85.13h-3.5c-.9-.5-1.9-.7-2.9-.6,0,2.3.1,4.5.6,6.8h-.9c0,.9.2,1.8.6,2.7-.6.7-.7,1.3-.3,2.1v.6h-.9c0-.7,0-1.4.3-2.1-.4-.6-.7-1.3-.9-2.1,1.1-1.9,1.4-4,1-6.2,0-.4-.2-.7-.4-.9-.2-.4-.3-.8-.3-1.2.8,0,1.6-.3,2.4-.6,1.8.6,3.5,1.1,5.3,1.5h-.1Z"></path>
  <path class="cls-1" d="M58.72,110.93c-2.8-2.1-3.8-4.9-2.9-8.4,0-1.2-.2-2.3-.6-3.4-.3-1-.6-2-.9-2.9h.9v-1.8c.4,0,.8,0,1.2.3-.4.6-.6,1.3-.6,2.1.3,3.4.4,6.9.3,10.3.4,0,.7,0,1,.3-.3,1.6.4,2.3,1.9,2.1-.3-.8-.5-1.6-.6-2.5.2-2.6.3-5.2.4-7.8,0,2.7.2,5.3.4,7.9.2.6.4,1.2.6,1.8-.6.6-1,1.2-1.2,2.1h0l.1-.1Z"></path>
  <path class="cls-1" d="M83.22,95.13v-.6c.4-.5.6-1.1.6-1.9s0-1.9-.3-2.8h.9c0,3,.4,3,1.2,0l.3.9c-.4,2-.4,4,0,6,0,.7-.2,1.3-.6,1.9,0,.3.3.6.6.9-.6.8-1.1.7-1.5-.3-.4-1.4-.8-2.7-1.2-4.1Z"></path>
  <path class="cls-1" d="M264.12,97.43c.3,1,.4,2.1.3,3.2.3,6.3-.2,12.6-1.6,18.8,0-2.1-.2-4.1-.4-6.2-.3,1.6-.4,3.1-.3,4.7-.4,0-.8,0-1.2-.3.3-.3.5-.7.6-1.2v-12.7c-.5.1-1.1.3-1.6.6-.6-.2-1.2-.4-1.8-.6-.7.1-1,.5-1,1.2-.2,0-.3-.1-.3-.3,0-1.1-.2-2.2-.6-3.2h-.9c0-.9.2-1.5.9-2.1-.8-.5-1.3-1.1-1.8-1.9.2-.5.5-.5.9,0,.5.2,1,.2,1.5,0-.4-.2-.6-.6-.6-1v-.6c.5.2.7.6.6,1.2.4,0,.7,0,1-.3.1-.6.2-1.2.1-1.8.5.2,1,.2,1.5,0,.4.4.8.9,1.2,1.3-.1,0-.2.2-.3.3.9.5,1.9.7,2.9.7.1,2.3.4,2.3.9,0h0v.2h0Z"></path>
  <path class="cls-1" d="M251.72,96.03v.9h-1.2c.4.8.7,1.5.9,2.3-.4,0-.7-.3-.9-.6-.2,0-.3,0-.3-.3-.4-1.3,0-2.1,1.5-2.3h0Z"></path>
  <path class="cls-1" d="M221.42,97.43c-.4.3-.8.6-1.2,1-1.8-.4-3.5-.2-5.1.7-.4,0-.7-.3-.9-.6-.1-.6-.4-1.1-.7-1.6-.9,0-1.8-.2-2.6-.4v-.6h2.9v-1.2c-.5,0-1,0-1.5.3-.2,0-.4-.2-.6-.3.2-.3.5-.4.9-.3-.4-1-.6-2.1-.6-3.2.5,0,.8.2,1,.6.4,1.5.9,2.9,1.3,4.4h5c.3.3.2.6-.3.7h-2.6c.4.2.4.4,0,.6.4,0,.8.2,1.2.3,1.3.2,2.6,0,3.8-.4h0Z"></path>
  <path class="cls-1" d="M250.22,98.33c0,.2.1.3.3.3-.2.5-.6.7-1.2.6.2-1.2-.1-2.3-.9-3.2.2-.6.6-.7,1-.3,0,1,.2,1.9.7,2.7h0l.1-.1Z"></path>
  <path class="cls-1" d="M234.92,92.13c.4,0,.8,0,1.2.3.4,1.3.4,2.5,0,3.8-.6.2-1.1.3-1.8.3,0-1.4-.1-2.8-.3-4.1.4,0,.7,0,.9-.3h0Z"></path>
  <path class="cls-1" d="M223.52,92.73c-.4.8-.4,1.7,0,2.5-.3.6-.7,1.1-1.2,1.6l-1.8-.9c-.3-.4-.4-.8-.1-1.2.7.4,1.4.6,2.2.6,0-.4,0-.7-.3-.9,0-.5,0-1,.1-1.5.3-.6.6-.7,1-.3h.1v.1Z"></path>
  <path class="cls-1" d="M234.92,88.63c.7.3,1,.8.9,1.6,0,.6-.1,1-.6,1.3-1-.9-1.1-1.9-.3-2.9h0Z"></path>
  <path class="cls-1" d="M52.92,97.43c.2.4.3.8.3,1.2s0,.4-.3.6c-.4-.6-.4-1.2,0-1.8h0Z"></path>
  <path class="cls-1" d="M256.12,96.53c0,.5.2.8.6,1-.5.2-1,.2-1.5,0-.3-.5-.6-.5-.9,0,.4.8,1,1.4,1.8,1.9-.7.5-1,1.2-.9,2.1h.9c.4,1,.6,2.1.6,3.2-.3-.4-.7-.7-1.2-.9,0-1.3-.6-2.3-1.5-3.2.2-.4.3-.8.3-1.2-.2-1-.4-2-.6-2.9h2.4Z"></path>
  <path class="cls-1" d="M242.92,99.23c0,1,0,2-.3,2.9-1.1-.7-2.1-1.5-2.9-2.7.1-.4.4-.6.7-.6.8.2,1.6.3,2.5.3h0v.1Z"></path>
  <path class="cls-1" d="M232.02,100.13c-.1.2-.3.4-.6.4.6.2,1.2.4,1.8.7-1.6,0-3.1.2-4.7.3-1.8,0-3.6-.2-5.3-.6-1,0-1.1.5-.3,1-1.1.5-2.1.9-3.2,1.3-.5-.3-1-.5-1.5-.7-.4-.2-.4-.4,0-.6-1.4,0-2.7,0-4-.2-.3,1.3-1.1,1.9-2.5,1.8,1.3-1.2,2.4-2.6,3.2-4.1.5.4,1,.8,1.5,1.3,1.3.2,2.5.5,3.7,1,1.7-.9,3.4-1.6,5.1-2.2,2.3,0,4.5,0,6.8.4h0v.2h0Z"></path>
  <path class="cls-1" d="M232.02,100.13h1.2c.7.8,1.6,1.1,2.6.9,0,1.1-.7,1.4-1.8,1.2v.9c.8.1,1.5-.1,2.1-.6.7,1,.4,1.5-.9,1.5.5.7.9,1.5,1.2,2.4-.3.8-.6,1.6-.9,2.4h1.2v-.9h1.2c1.5,1.1,3.2,2,5,2.6.2.7.4,1.4.4,2.1,1,.5,2,1.1,2.8,1.8v.9c1.6.4,2.4-.2,2.4-1.8,1.1,0,1.1-.2.1-.6-.1-1.2.4-1.6,1.6-1.3,1.2,1.4,2.7,2.6,4.4,3.5.4.7.1,1.1-.7,1-.6-.4-1.2-.8-1.8-1.2-.1.5-.2,1-.1,1.5h.9v.9c1,0,1.9.3,2.7.9.2,0,.4-.1.6-.1-.8-.8-.6-1.4.6-1.6.9.3,1.5.8,2.1,1.5-.4.3-.7.4-1.2.3.4,1.9.6,3.9.7,5.9.2.2.5.4.7.6.2,1,.4,2,.6,2.9,0,4.9-.1,9.8-.6,14.7-.2,2.8-.4,5.5-.7,8.2-2.2,5.9-4.8,11.6-7.9,17.1-1.8,3.4-4.1,6.4-6.8,9.1-2.5,4.8-5.8,8.9-9.9,12.5-1.2.3-2.3.6-3.5.7-2.1.2-4.3.3-6.5.3v.9c-3.2,0-6.3.1-9.4.6v.9c-1.6.2-3.1.4-4.7.6,0-.8,0-1.6.1-2.4,2.8-2.9,5.6-5.6,8.5-8.2.5-1,.8-2.1,1-3.2.6-.4,1-.8,1.3-1.5.2-2,.5-3.9.7-5.9-.3-1.8-.3-3.5-.1-5.3,1.2-1.8,2.4-3.5,3.5-5.3.2-1,0-1.9-.4-2.6-1-.4-2-.7-3.1-.9-.2-.4-.1-.8.1-1.2-.5-.6-.6-1.2-.3-2.1-2.3-.2-4.6-.4-6.9-.6-1.9,1.1-3.9,1.4-6,1.2-.7-.2-1.5-.3-2.2-.3-1.5.2-3.1.5-4.6.7-2.1-2.2-4.1-4.5-5.9-6.9.1-1.4,0-2.8-.3-4.1-1-.6-1.7-1.5-2.1-2.6-1.1-.2-1.9-.9-2.4-2.1,0-.7.4-1.3.9-1.8-.2-.7-.5-1.4-.9-2.1.5-.4,1-.8,1.5-1.2.5-1.2,1-2.4,1.6-3.5.1-1.6.2-3.1.4-4.7-.1-.7-.6-1.2-1.2-1.6.8-1.4,1.7-2.8,2.5-4.3.5-.6,1.1-1.1,1.9-1.3.2-.6.5-1,.9-1.3.9-.5,1.9-1.1,2.8-1.8-.2-1,.2-1.7,1.2-2.1.5.7,1,.6,1.3-.3,0-.3-.1-.5-.3-.7.6-.2,1.2-.1,1.8.1.3-.2.4-.5.3-.9.7,0,1.4-.1,2.1-.3v-2.1c0-1.3.2-2.6.6-3.8.4-.7.9-1.4,1.5-2.1.6-.4,1.3-.6,2.1-.6,1.4.2,2.2-.4,2.5-1.8,1.3,0,2.6,0,4,.2-.4.2-.4.4,0,.6.5.2,1,.5,1.5.7,1.1-.4,2.2-.9,3.2-1.3-.8-.5-.7-.9.3-1,1.7.4,3.5.6,5.3.6s3.1-.2,4.7-.3c-.6-.3-1.1-.6-1.8-.7.3,0,.5-.2.6-.4h0l.1-.1Z"></path>
  <path class="cls-1" d="M233.22,100.13c1,.4,2.1.4,3.1,0,1.4.4,1.8,1.2,1,2.3.4.5.7,1,.9,1.6-.3.9-.8,1.6-1.5,2.2.4.5.8,1,1.2,1.5h-1.2v.9h-1.2c.3-.8.6-1.6.9-2.4-.3-.9-.7-1.6-1.2-2.4,1.3,0,1.6-.5.9-1.5-.6.5-1.3.7-2.1.6v-.9c1.1.3,1.7,0,1.8-1.2-1.1.2-2,0-2.6-.9h0v.2h0Z"></path>
  <path class="cls-1" d="M261.42,104.83h-1.5c0,.5,0,.9-.4,1.2-.4-.5-.7-1.1-1-1.6-.3-.1-.6-.2-.9-.1,0,.4,0,.8-.3,1.2-.2,0-.3-.1-.3-.3,0-.7.4-1.1,1-1.2.6.2,1.2.4,1.8.6.5-.3,1.1-.4,1.6-.6v.9h0v-.1Z"></path>
  <path class="cls-1" d="M80.52,104.23c1.9-.1,3.7.2,5.3,1.2,2.4,2.1,4.9,3.9,7.7,5.6.3.2.4.5.3.9-1.9.4-3.8.1-5.6-.6.2-.4.5-.6.9-.9-.5-.4-1-.8-1.6-1.2l-.3-1.2c-1.5-.2-2.9-.8-4.3-1.6-.3-.4-.4-.8-.3-1.3-1.2.5-2.5.9-3.8,1.2.2-1.1.8-1.7,1.8-2.1h-.1Z"></path>
  <path class="cls-1" d="M74.92,108.03v-1.5c-1.1,0-2.2.2-3.2.3,0,.7,0,1.4.3,2.1-.2.3-.5.4-.9.3,0,.7-.2,1.3-.6,1.9-.8.2-1.4.6-1.8,1.3-.3-.2-.4-.5-.3-.9-.7,0-1.4,0-2.1.3.3.4.6.8.9,1.2-.2.1-.4.2-.6.3-.5-.6-1-.9-1.8-.9,0,.5-.2.9-.6,1.2,1.1.2,2.2.4,3.2.6,0,.3-.2.6-.3.9,1,.9,1.4,2.1,1.2,3.5-.7-1.4-1.6-2.8-2.7-4-.8.4-1.7.5-2.7.6-.8-.5-1.5-1.1-2.1-1.9,1.4-.1,2.5-.7,3.4-1.8.2-.6.2-1.2,0-1.8-.6-.6-.9-1.4-.7-2.4.5.8.9,1.7,1.3,2.6.3.6.8.8,1.5.9.9-.1,1.9-.3,2.8-.6.6-.4,1-1,1.2-1.8.3-.7.5-1.5.6-2.4,1.5-.2,2.9-.3,4.4-.3,0,.6,0,1.2-.2,1.8,0,.2-.3.3-.4.3h0l.2.2h0Z"></path>
  <path class="cls-1" d="M207.62,110.13v2.1c-.7.1-1.4.2-2.1.3,0,.4,0,.6-.3.9-.6-.3-1.2-.4-1.8-.1.2.2.3.5.3.7-.4.9-.8,1-1.3.3-1,.4-1.4,1.1-1.2,2.1-.9.6-1.9,1.2-2.8,1.8,0-.5.1-1,.4-1.5,1.3-.9,2.4-2,3.1-3.4,2.3-.4,4.1-1.4,5.6-3.1h.1v-.1Z"></path>
  <path class="cls-1" d="M87.02,114.23c1.2-.6,2.2-.3,2.9.9-1.3.5-2.3.2-2.9-.9Z"></path>
  <path class="cls-1" d="M95.22,112.43c1.9.3,3.8.8,5.6,1.3.7.7,1.3,1.3,2.1,1.9-1.7.1-3.3.4-4.8.9-.4-.4-1-.8-1.6-1h-2.9c-.2-.3-.4-.6-.6-.9,1.1.1,2.2,0,3.2-.1-.2-.7-.5-1.4-.9-2.1h-.1Z"></path>
  <path class="cls-1" d="M104.92,116.53c.8,0,1.6,0,2.3.1.4.4.3.7-.3.9-1.1.4-1.8,0-2.1-1h.1Z"></path>
  <path class="cls-1" d="M264.32,100.73c.4,2.2.7,4.4.7,6.8.2,8.9-.4,17.7-2.1,26.5-.5,2.4-1.2,4.8-1.9,7.1,0-.9,0-1.8-.3-2.6,0-2.4.2-4.7.6-7.1-.5-2.8-.7-5.7-.6-8.5.5-.2.7-.6.6-1.2h-.9c0-.7,0-1.4-.3-2.1-.8-.5-.8-1.1,0-1.6-.5-.2-.9,0-1.2.4-.3,1.2-.2,2.4.3,3.5.1,1.9.2,3.7.3,5.6-.2-.9-.4-1.9-.6-2.9-.3-.1-.5-.3-.7-.6,0-2-.3-4-.7-5.9.4,0,.8,0,1.2-.3-.5-.7-1.2-1.2-2.1-1.5-1.2.2-1.4.8-.6,1.6-.2,0-.4.1-.6.1-.8-.6-1.7-.9-2.6-.9v-.9h-.9c0-.5,0-1,.1-1.5.6.4,1.2.8,1.8,1.2.9,0,1.1-.3.7-1-1.7-.9-3.2-2.1-4.4-3.5-1.2-.3-1.8.1-1.6,1.3,1,.4.9.6-.1.6,0,1.6-.8,2.1-2.4,1.8v-.9c.5.6,1,.7,1.6.3.3-1,.5-2.1.6-3.2.9-.7,1.8-.8,2.8-.1,1,1.3,2.3,2.3,3.8,2.9.5.8,1.2,1.2,2.1,1.2.3-.4.7-.7,1.2-.7.6.4,1.2.6,1.8.7.4-.6.6-1.2.7-1.9.2-2.5.5-4.9.7-7.4v10.6c0,.5-.3.9-.6,1.2.4.3.7.4,1.2.3-.1-1.6,0-3.1.3-4.7.2,2.1.4,4.1.4,6.2,1.4-6.2,1.9-12.5,1.6-18.8h0l.1-.1Z"></path>
  <path class="cls-1" d="M74.92,108.03c-.3,1.9-.9,3.6-1.8,5.3-.2,1.1-.3,2.2-.6,3.2,1.9,0,3.7.2,5.6.4.3.5.6.9.9,1.3,0,.8,0,1.6-.2,2.4-.2.4-.4.4-.6,0,0,1.1,0,2.2-.2,3.4,0,1.3.2,2.5.6,3.7-.2.3-.5.4-.9.3-.7-.1-1.3-.5-1.8-1-.2-1.9-.9-3.5-2.2-4.9,0-.3-.2-.6-.2-.9-.5,0-1,0-1.5-.1-1.2-1-2.5-1.8-3.8-2.5.2-1.4-.2-2.6-1.2-3.5,0-.3.2-.6.3-.9-1.1-.2-2.2-.4-3.2-.6.4-.3.6-.7.6-1.2.7,0,1.3.3,1.8.9.2-.1.4-.2.6-.3-.3-.4-.6-.8-.9-1.2.7-.3,1.3-.4,2.1-.3,0,.4,0,.6.3.9.4-.7,1-1.2,1.8-1.3.3-.6.5-1.2.6-1.9.3,0,.6,0,.9-.3-.3-.7-.4-1.4-.3-2.1,1.1-.1,2.2-.2,3.2-.3v1.5h.1Z"></path>
  <path class="cls-1" d="M260.82,122.73h-.3c.1-.7-.2-1.1-.9-1.2-.2-1.1-.4-2.2-.6-3.2.2-.5.6-.7,1.2-.4-.8.5-.8,1.1,0,1.6.3.7.4,1.4.3,2.1h.9c.1.6,0,1-.6,1.2h0v-.1Z"></path>
  <path class="cls-1" d="M99.62,128.33c-.5.3-1.1.5-1.8.6v1.5h.9c0,.6-.3,1.1-.9,1.5-1.4.5-2.2,0-2.3-1.5.2-1,.3-1.9.3-2.9h-2.7c1.1-.1,2.1-.6,2.9-1.3.7-.3,1.2,0,1.5.6-.2.4-.5.6-.9.7-.2,1.1-.5,2.1-.9,3.1.2.8.7,1.1,1.5,1,0-1.1-.2-2.1-.3-3.2,1.1.2,1.9-.2,2.3-1.2.3.4.4.7.3,1.2h0l.1-.1Z"></path>
  <path class="cls-1" d="M99.92,128.33h1.8c0,.5,0,1,.3,1.5-.4,0-.7-.3-.9-.6-.2.8-.4,1.6-.6,2.4-.2-.1-.3-.4-.4-.6-.2-.9-.2-1.8-.2-2.6h0v-.1Z"></path>
  <path class="cls-1" d="M79.02,118.33c.4.2.6.5.6,1-.7,2.4-.9,4.8-.7,7.2.8.9,1.6,2,2.2,3.1,1.3-.1,2.6-.2,3.8-.3,1.3.4,2.3,1.2,3.2,2.2,1.3-.8,2.2-2,2.7-3.5.5.2,1,.3,1.5.3,0,.5,0,1-.2,1.5-.3-.3-.7-.4-1-.1-.4.9-1,1.7-1.8,2.4.5.6.4.9-.3,1.2.2.2.3.5.3.7-.6,1.8-1.1,3.5-1.5,5.3-.2-1.6-.3-3.1-.4-4.7-.6-1.3-1.1-2.5-1.6-3.8-1.2-.5-1.9-.2-2.3,1,.4.9,0,1.1-.9.9-.9-.9-2-1.6-3.2-2.1-.6-.8-1.1-1.6-1.5-2.5.3,0,.6,0,.9-.3-.4-1.2-.6-2.4-.6-3.7s0-2.3.2-3.4c.2.4.4.4.6,0,.2-.8.2-1.6.2-2.4h-.2,0Z"></path>
  <path class="cls-1" d="M93.22,127.43h2.7c0,1,0,2-.3,2.9,0,1.5.9,2,2.3,1.5.5-.4.8-.8.9-1.5h-.9v-1.5c.6,0,1.2-.3,1.8-.6h.3c0,.9,0,1.8.2,2.6,0,.2.2.4.4.6.2-.8.4-1.6.6-2.4.2.3.5.5.9.6,1.1.5,2.4.8,3.7.9.3.1.4.3.4.6-.3.5-.8.7-1.5.7,2,.3,3.9.1,5.7-.4.2.1.5.2.7.3-.4.4-.4.9,0,1.3.8.1,1.6.2,2.3.1,0,1.1-.7,1.4-1.8,1-.2-.2-.3-.4-.6-.4-.4.3-.4.6,0,.9,2.4.9,2.3,1.5-.3,1.8,1.1.3,2.2.2,3.2-.3.8.2,1.5.2,2.3,0,.4,0,.7.2.9.6-.3,0-.5.1-.6.4.4.6.6,1.2.6,1.9h1.2c.2.9.7,1.7,1.5,2.4h5c.6,0,1.1.2,1.5.6,2.8,1.1,4.2,3.2,4.3,6.2.5.4.9.9,1.3,1.5-1.4,1.3-2.8,2.6-4.1,4,0,.1.2.2.3.1-.3.2-.6.5-.9.9,1.6.5,3.3.6,5,.3,1,0,1.8-.4,2.4-1.3.2,0,.5-.1.7-.1.7.3,1.4.6,2.2.9.7.4,1.5.8,2.4,1.2.2.7.4,1.4.4,2.1.7-.3,1.4-.4,2.2-.1,1.8.8,3.6,1.2,5.6,1.5.4.6.9,1.1,1.5,1.6,0,.3,0,.5.3.7-.4.5-.6,1-.6,1.6h-.9v1.2c.7-.5,1.5-.9,2.4-1.2v1.5c-.4,0-.8,0-1.2.3,1.2.2,2.3-.2,3.2-1.2.8.4,1.3,1.1,1.5,2.1-.5,1-.7,2.1-.6,3.2-.9,1.4-2.2,2.3-3.8,2.6-.3,1.7-1.3,2.7-2.9,2.9h-.9c-.4,1.9-.7,3.9-.9,5.9h-.9c0,1.1-.2,2.2-.6,3.2,0,.2-.1.3-.3.3-.6,0-.9.2-1.2.7-.7.1-1.4.2-2.1.1,0,.6-.2,1.1-.7,1.5-1-.4-2.1-.4-3.1,0-.8.3-1.5.7-2.1,1.2-.5.6-1.2,1-2.1,1.2-.3,0-.5,0-.7.3-.1.8-.2,1.6-.3,2.4,0-.7-.3-1.4-.6-2.1-.4.2-.6.5-.7.9.8,1,.8,2,0,2.9-1.4.3-2.7.4-4.1.3v.9h-.9c0,.7,0,1.4.3,2.1.5-.9,1.2-1.6,2.1-2.2.6-.4,1.2-.4,1.8,0-.5.6-1.1,1.1-1.8,1.6-.3.8-.4,1.5-.3,2.4-1,0-1.9.1-2.8.6-1.6-.5-3.2-.7-4.8-.4,1,0,1.9.3,2.7.7.2,0,.4.2.6.4-4.4.9-8.8,2-13.1,3.4-.7-.9-1.4-1.8-2.1-2.6,0-2.7-.3-5.2-1.3-7.6-.8-4.4-1.4-8.8-1.8-13.2h-.9c-.4-1.4-.9-2.9-1.5-4.4-2.7-2.2-5.5-4.3-8.4-6.5-2.3-4.6-5-8.9-8.1-12.9.4-.2.4-.4,0-.7,1.2-.4,1.4-1.2.7-2.2-.4.4-.5.9-.4,1.5h-1.2c0-.5,0-1,.2-1.5.8-.5.9-1.1.2-1.6.6-.5,1.1-1.1,1.5-1.8.3-.1.6-.2.9-.1,0-.4,0-.8-.2-1.2-.7.5-1.6.8-2.5.9,0-.9,0-1.9-.3-2.8.6-.6.9-1.3.9-2.2h.9v-2.1c1-.5,1.6-1.2,1.8-2.4.4-1.8.9-3.5,1.5-5.3,0-.3,0-.5-.3-.7.7-.2.8-.6.3-1.2.8-.7,1.3-1.4,1.8-2.4.4-.2.7-.1,1,.1,0-.5.2-1,.2-1.5-.5,0-1-.1-1.5-.3,0-.3.3-.5.6-.6.6.2,1.2.2,1.8,0h0l-.1-.1Z"></path>
  <path class="cls-1" d="M116.42,136.23c-.8.2-1.6.2-2.3,0-1.1.5-2.1.6-3.2.3,2.6-.2,2.7-.8.3-1.8-.4-.3-.4-.6,0-.9.2,0,.4.2.6.4,1.1.4,1.7,0,1.8-1-.8,0-1.6,0-2.3-.1-.4-.4-.4-.9,0-1.3-.2-.1-.5-.2-.7-.3-1.9.6-3.8.7-5.7.4.7,0,1.2-.3,1.5-.7.8.4,1.6.4,2.3-.1,1.2-.3,2.4-.2,3.5.3-.4.1-.6.4-.4.7.8.4,1.7.8,2.5,1.2.4.8.2,1.4-.6,1.9.8.1,1.6.2,2.3.3.3.2.5.4.6.7h-.2Z"></path>
  <path class="cls-1" d="M260.82,138.33c.3.8.4,1.7.3,2.6,0,.7-.1,1.4-.3,2.1-.2.7-.5,1.4-.7,2.1.1-2.3.4-4.5.7-6.8h0Z"></path>
  <path class="cls-1" d="M117.32,136.83c.7.5,1,1.2.9,2.1,1.1,0,1.7.5,2.1,1.5,1.7.1,3.2.5,4.7,1.2h-5c-.8-.6-1.2-1.4-1.5-2.4h-1.2c0-.7,0-1.4-.6-1.9,0-.3.3-.4.6-.4h0v-.1Z"></path>
  <path class="cls-1" d="M193.22,141.83c.4,1.1,1,2,2.1,2.6.3,1.4.4,2.7.3,4.1-.2-.8-.4-1.7-.4-2.6-.7-1.1-1.4-2.2-2.1-3.2-.2-.4-.2-.7.1-.9h0Z"></path>
  <path class="cls-1" d="M133.82,153.63c-.3.7-.8.9-1.5.9-.2-.8-.6-1.1-1.5-.9v.9h-1.2v-.9c.7,0,1.3-.3,1.8-.9.8.4,1.5.7,2.4.9h0Z"></path>
  <path class="cls-1" d="M86.12,141.53v2.1h-.9c0,.9-.3,1.6-.9,2.2.2.9.3,1.9.3,2.8.9,0,1.8-.3,2.5-.9,0,.4.2.8.2,1.2-.3,0-.6,0-.9.1-.4.7-.9,1.3-1.5,1.8.7.6.7,1.1-.2,1.6-.2.5-.2,1-.2,1.5h1.2c0-.6,0-1.1.4-1.5.7,1,.5,1.8-.7,2.2.4.3.4.5,0,.7-.4-.2-.7-.5-1-.9-.2-.9-.5-1.8-1-2.6.4-.9,1-1.6,1.8-2.1-.4-.4-.8-.8-1.3-1.2-.4-2.3.2-4.2,1.8-5.9,0-.5.2-.9.4-1.2h0v.1Z"></path>
  <path class="cls-1" d="M224.32,158.63h-3.8c0-1,0-2-.1-2.9-.3-.5-.7-.9-1.3-1-1.2-.2-2.4-.2-3.5,0-1.7.7-3.4,1.2-5.3,1.3-.8-.1-1.5-.4-2.1-.9,2.2.3,4.2-.1,6-1.2,2.3.2,4.6.4,6.9.6-.3.8-.2,1.5.3,2.1-.3.4-.3.8-.1,1.2,1.1.1,2.1.4,3.1.9h0l-.1-.1Z"></path>
  <path class="cls-1" d="M133.82,153.63c-.8-.2-1.6-.5-2.4-.9-.4.6-1,.9-1.8.9v.9h1.2v-.9c.8-.2,1.3.1,1.5.9v.6c-1.7.3-3.4.2-5-.3.2-.4.5-.7.9-.9,1.2-.2,2.2-.8,2.9-1.8,1,.2,1.9.3,2.9.3,0,.5,0,.9-.3,1.2h.1Z"></path>
  <path class="cls-1" d="M149.62,160.73c1.4,1.6,3.1,2.5,5.1,2.9.4,1.9,0,3.7-1,5.3,0-1.1.1-2.2.6-3.2-.1-.9-.6-1.6-1.5-2.1-.9.9-2,1.3-3.2,1.2.4-.3.7-.4,1.2-.3v-1.5c-.9.3-1.6.7-2.4,1.2v-1.2h.9c0-.6.2-1.1.6-1.6-.2-.2-.3-.4-.3-.7h0Z"></path>
  <path class="cls-1" d="M147.02,174.53c-.5,1.3-.7,2.7-.7,4.1-.7,1.3-1.2,2.7-1.5,4.1-.3.4-.6.6-1,.9.4-1,.6-2.1.6-3.2h.9c.2-2,.5-4,.9-5.9h.9-.1Z"></path>
  <path class="cls-1" d="M103.52,179.23h.9c.3,4.5.9,8.9,1.8,13.2-.5-.6-.8-1.3-1-2.1-.3-1.6-.5-3.3-.6-5,0-1-.4-2-.9-2.9-.2-1.1-.2-2.1-.2-3.2h0Z"></path>
  <path class="cls-1" d="M143.52,183.93c-.5.5-.9,1.1-1,1.8-.3.4-.6.6-1,.7-2.4,0-4.8.3-7.1,1,.6-.5,1.3-.9,2.1-1.2,1-.4,2.1-.4,3.1,0,.6-.3.8-.8.7-1.5.7,0,1.4,0,2.1-.1.2-.5.6-.8,1.2-.7h-.1Z"></path>
  <path class="cls-1" d="M230.22,189.83c-2.1.6-4.2,1.1-6.5,1.5-3.1.6-6.2,1-9.4,1.2v-.9c3.1-.5,6.2-.7,9.4-.6v-.9c2.2,0,4.3,0,6.5-.3h0Z"></path>
  <path class="cls-1" d="M132.32,188.63c-.2,1.5-.4,2.9-.7,4.4-1.2.6-1.9,1.5-2.2,2.8-.5.2-1,.5-1.5.7-.2.6-.5,1.1-.9,1.5,0-.8,0-1.6.3-2.4.6-.5,1.2-1,1.8-1.6-.5-.4-1.1-.4-1.8,0-.9.6-1.5,1.3-2.1,2.2-.3-.7-.4-1.4-.3-2.1h.9v-.9c1.4,0,2.8,0,4.1-.3.8-1,.8-1.9,0-2.9.1-.4.4-.7.7-.9.3.6.5,1.3.6,2.1.1-.8.2-1.6.3-2.4.2-.2.4-.3.7-.3h0l.1.1Z"></path>
  <path class="cls-1" d="M127.02,198.03c0,.2-.1.3-.3.4-1,.2-2,.5-2.9.7-.5-.1-1-.3-1.5-.6-.2,0-.3.1-.3.3-.8-.5-1.7-.7-2.7-.7,1.7-.2,3.3-.1,4.8.4.9-.4,1.8-.6,2.8-.6h.1v.1Z"></path>
  <path class="cls-2" d="M38.12,277.43c-6,6-14.2,6.9-18.3,5.8,8.5-50.6,57.6-70,48.9-68.9-36.6,4.8-61.9-7.6-66.8-41.7-5.8-39.7,42.5-74,42.4-71.6-3.4,84.5,62.8,107.9,59.4,108.9-61.8,17.6-63.1,65.1-65.5,67.5h-.1Z"></path>
  <path class="cls-2" d="M178.22,200.73c-45.1,0-80.6,11.9-102.3,23.4,4.8,6.1,34.3,39,116,18.8,73-18,94.2-78,92.8-76.5-27.8,30.4-58.3,34.3-106.5,34.3h0Z"></path>
  <path class="cls-2" d="M300.12.43s-23.4,30.7-57.2,35.3c55,57.8,18.8,135-5,154.6-7.9,6.5,42.8-13.2,50-32.6,29.8-80.8,12.4-150.9,12.2-157.3h0Z"></path>
</svg><style>@media (prefers-color-scheme: light) { :root { filter: none; } }
@media (prefers-color-scheme: dark) { :root { filter: none; } }
</style></svg>