<?xml version="1.0" encoding="UTF-8"?>
<svg id="Layer_1" xmlns="http://www.w3.org/2000/svg" version="1.1" viewBox="0 0 1703.9 353">
  <!-- Generator: Adobe Illustrator 29.1.0, SVG Export Plug-In . SVG Version: 2.1.0 Build 142)  -->
  <defs>
    <style>
      .st0 {
        fill-rule: evenodd;
      }

      .st0, .st1 {
        fill: #10b981;
      }

      .st2 {
        isolation: isolate;
      }
    </style>
  </defs>
  <path class="st0" d="M148,27.8c3.4,0,6.9,0,10.3.1.8,0,1.6.2,2.4.4-4.7-.5-9.4-.4-14.1.3.4-.4.9-.7,1.5-.9h0Z"/>
  <path class="st0" d="M160.7,28.4c1,0,1.8.3,2.4,1,0,.1-.2.2-.3.1-1,.1-2,.4-2.9.6-.6,0-1.1,0-1.5.3-1.2.1-2.4.2-3.5.3-1.4,0-2.9.2-4.3.6-.5-.2-1-.4-1.5-.6-1.4.4-2.8.5-4.3.3.3-.2.6-.4.9-.4,2.4-.1,4.7-.3,7.1-.6-.9-.3-1.9-.5-2.8-.7-1.1.2-2.2.3-3.4.3v-.9c4.7-.6,9.4-.8,14.1-.3h0Z"/>
  <path class="st0" d="M146.6,28.7v.9c1.1,0,2.3-.1,3.4-.3.9.2,1.9.4,2.8.7-2.4.2-4.7.5-7.1.6-.3,0-.6.2-.9.4,1.4.2,2.8.1,4.3-.3.5.2,1,.4,1.5.6,1.4-.4,2.8-.6,4.3-.6-1.9.8-3.9,1-6,.6-.1.4-.2.8-.1,1.2-1.8.4-3.5.8-5.3,1.2-.4.4-.9.7-1.5.9,0-.6.2-1.2.6-1.6-.1-.2-.2-.3-.3-.4-.8.1-1.5.1-2.4,0,.2-.4.5-.7.9-1,1.1,0,2.2-.1,3.2-.1-1.8-.4-3.5-.3-5.1.3-.5,0-.8-.2-1-.6,0-.2.1-.3.3-.3,1-.5,2-1,2.9-1.6,1.6-.6,3.3-.8,5-.6-.5.5-1,1-1.5,1.5.1,0,.2.1.3.1.8-.3,1.4-.8,1.8-1.5h0Z"/>
  <path class="st0" d="M166.6,30.2c.5,0,.9.3,1.3.6.7-.7,1.4-.7,2.2,0,.4-.1.4-.2,0-.4,2.6-.2,5.1-.2,7.6,0,1,.1,1.9.5,2.6,1-1.3,0-2.6,0-3.8.1.9.3,1.9.5,2.9.6-.7,0-1.4.2-2.1.3-.2.2-.4.5-.6.7,1,.2,2,.5,2.9.9.2-.1.5-.2.7-.3,1.2.6,2.4,1.1,3.7,1.5v-.9h3.2v.9c0,1.1-.5,2.2-1.2,3.2-.2.6-.3,1.2-.3,1.8.5,0,1,0,1.5.2-.9.8-2,1.2-3.2,1.3.5.2.9.4,1.5.4.2.3.3.6.3,1-.6,0-1.2,0-1.8.3.2,0,.5.2.7.3,1.3-.5,2.6-.6,4-.6.1.9,0,1.7-.6,2.3,0,.2.2.3.3.4-.5.3-1.1.5-1.8.4h-1.5v.9c-.4,0-.8,0-1.2.3,1.4,0,2,.7,1.8,2.1-.6-.2-1.2-.2-1.8-.2.5.2.9.4,1.2.7v.3c-.2.5-.6.7-1.2.7.6.2,1.2.2,1.8.2-.3.5-.9.8-1.8,1,.6.2,1.2.2,1.8.2-.2.5-.6.7-1.2.6v.9c1.1-.2,2.2-.5,3.2-.9v1.2c-.7.3-1.4.7-2.1,1-1.8,0-3.5.3-5.1.7-.5-.2-.9-.4-1.3-.6-1,.6-2,1.4-2.9,2.5-.4.2-.8.4-1.2.6-1.2.1-2.3.5-3.4,1,0-.5,0-1,0-1.5-.1.3-.3.5-.4.7-1.3,0-2.4.5-3.5,1-.4,0-.8,0-1.2.2.5,1.1.3,2.1-.7,2.8-.1.3-.2.6-.1.9h-2.1c0,1.5-.4,2.8-1.3,3.8-.1,0-.2-.2-.3-.3-.1.4-.2.8-.1,1.2h-1.5c-.2-.5-.5-1-.9-1.5-1.2-.3-2.3-.4-3.5-.3-.9-2.4-1.8-4.7-2.6-7.1.5-.3.9-.5,1.5-.6.4-1,.3-1.9-.3-2.8-.4-.1-.8-.2-1.2-.2-.1-.8,0-1.4.6-1.9-.6-.5-.7-1-.3-1.6.7-.2,1.4-.5,2.1-.9.2.9.5,1,.9.3.5-.5,1.1-.7,1.8-.6,0,.9.3,1.4,1.2,1.5.7-1.1.4-1.7-.9-1.9-.2-.2-.3-.5-.3-.7.3-.5.6-1,.9-1.5-.5-.3-1.1-.3-1.6,0-.5-.2-.5-.5-.1-.9.3,0,.6,0,.9-.2-.9-.5-1.2-1.2-1.2-2.2-.6,0-1.2.2-1.8.6-.5-.2-.9-.5-1.2-.9,1.4-.9,2-2.2,1.8-4,.2-1.5-.3-2.8-1.5-3.7,0-.5-.2-.8-.6-1-1.5-.2-2.9,0-4.4.2h-1.8c0-.5.1-.8.6-1-.2,0-.4-.2-.6-.4,1.3-.3,2.5-.4,3.8-.3,1.4,0,2.8-.1,4.1-.3v-.9c-1.7,0-3.4,0-5.1.3-.3,0-.6-.2-.7-.4,2-.3,3.9-.6,5.9-1,.2-.4.2-.9,0-1.5.9,0,1.6-.3,2.4-.6,1.1.2,2.2.2,3.2,0,1.6-.3,3.3-.4,5-.3h0Z"/>
  <path class="st0" d="M139.8,32.5c0,.3,0,.5-.3.7.5.2,1,.2,1.5.2v1.2h.9c-.6.2-1.2.4-1.8.6h-.9v-.9c-1.5,0-3-.2-4.4-.6-.1-.2-.2-.4-.3-.6h.3c.9,0,1.8,0,2.6-.2.6-.9,1.2-.9,1.9-.2.1-.2.3-.3.4-.3h0Z"/>
  <path class="st0" d="M139.8,32.5c.8.1,1.6.1,2.4,0,.1.2.2.3.3.4-.4.5-.6,1-.6,1.6h-.9v-1.2c-.5,0-1,0-1.5-.2.2-.2.3-.4.3-.7h0Z"/>
  <path class="st0" d="M180.4,31.4c.7.3,1.4.5,2.1.7-.4,0-.7.2-1,.4-.2.2-.1.4.1.6.6-.2,1.1-.3,1.8-.3,0,.4,0,.8.3,1.2,1.4-.3,2.7-.4,4.1-.2.4.6.3,1-.3,1.3v-.9h-3.2v.9c-1.3-.4-2.5-.9-3.7-1.5-.3,0-.5.2-.7.3-.9-.4-1.9-.7-2.9-.9.1-.3.3-.5.6-.7.7,0,1.4-.2,2.1-.3-1,0-2-.2-2.9-.6,1.3-.1,2.5-.2,3.8-.1h0Z"/>
  <path class="st0" d="M156,32.5c-1.9.4-3.9.8-5.9,1,.2.3.4.4.7.4,1.7-.3,3.4-.4,5.1-.3v.9c-1.4.2-2.7.3-4.1.3-.7-.2-1.5-.4-2.4-.4-.5-.5-.6-.9-.1-1.3,2.2-.2,4.4-.5,6.6-.6h0Z"/>
  <path class="st0" d="M137.7,35.2c0,.2.1.3.3.3.4.3.4.7,0,1-.8.5-1.7.7-2.6.7-2.2-.3-4.3-.7-6.5-1.2.4-.4.7-.9.9-1.5,1.4,0,1.8-.8,1.2-2.1.9,0,1.8,0,2.5.6,0,.6-.2,1.1-.7,1.5.1.2.4.3.6.4,1.5.2,2.9.2,4.4.2h0Z"/>
  <path class="st0" d="M154.8,37.5c-1.7-.4-3.3-.7-5-.9,1.5-.2,2.9-.3,4.4-.2.4.2.6.6.6,1Z"/>
  <path class="st0" d="M133,38.1h.3c.9.5,1.8.8,2.9.9.3.2.4.5.3.9-2.2-.1-2.3.3-.1,1.2,0,.6.2,1.2.4,1.8.2,0,.3-.1.3-.3,1,0,1.4.4,1.2,1.2-.2-.3-.5-.5-.9-.6-.2.4-.5.5-.9.4-.9-.6-1.4-1.4-1.3-2.5-.5-.2-1.1-.4-1.6-.6-.1-.5-.3-1-.4-1.5-.1.4-.4.7-.7.9-1.4-.2-2.7-.3-4.1-.3.9-.6,1.8-1.1,2.9-1.3.6-.2,1.2-.2,1.8-.2h0Z"/>
  <path class="st0" d="M205.7,38.7c1.3.4,2.6.9,3.8,1.6-.3,0-.6.2-.9.3,1,.2,1.7.7,2.1,1.6.2,0,.4-.2.6-.3.8.6,1.7,1,2.6,1.3.4.3.6.8.6,1.3-.3,0-.6,0-.9-.2-.4-.8-.9-1.3-1.8-1.6-.3.2-.4.3-.1.6.6.5,1.1,1.1,1.6,1.8-.1,0-.2.2-.3.3-1.4-.9-2.8-1.8-4.1-2.7-.2-.4-.4-.8-.4-1.2-.8.4-1.5.3-2.2-.2-.7-.8-1.4-1.4-2.4-1.9.7-.2,1.3-.4,1.8-.9h0Z"/>
  <path class="st0" d="M186.3,38.4c.3.2.4.5.3.9h1.2v.9c.8-.1,1.4.2,1.8.9-3,.1-3.1.6-.3,1.3.4.4.7.9.9,1.3-.1.2-.2.5-.3.7.9,1.3.6,1.8-.9,1.5.4.3.7.6,1.2.7-.2.5-.7.8-1.3.9-.8-.2-1.4-.6-1.9-1.2.6,0,1.2-.1,1.8-.4-.1-.1-.2-.3-.3-.4.5-.7.7-1.5.6-2.3-1.4,0-2.7.1-4,.6-.2,0-.5-.2-.7-.3.6-.3,1.1-.4,1.8-.3,0-.4,0-.7-.3-1-.5,0-1-.2-1.5-.4,1.2-.1,2.3-.6,3.2-1.3-.5-.2-1-.2-1.5-.2,0-.6.1-1.2.3-1.8h0Z"/>
  <path class="st0" d="M102.4,42.5c0,.8-.4,1.4-1.2,1.6.7,0,1.2.3,1.5.7-.8,0-1.6,0-2.3-.2.2-.3.4-.6.6-.9,0-.1-.2-.2-.3-.2.5-.5,1.1-.9,1.8-1.2Z"/>
  <path class="st0" d="M128.3,39.6c1.4,0,2.8,0,4.1.3-.3.3-.3.5,0,.7.4.2.8.1,1.2-.2.5.2,1.1.4,1.6.6,0,1.1.4,1.9,1.3,2.5.4,0,.7,0,.9-.4.4.1.7.3.9.6,0,.2.1.3.3.3-.4.2-.9.4-1.5.6.8,1.1.8,2.2,0,3.4.3.9.9,1.5,1.8,1.6.4,1.5.2,3-.4,4.4-.2-1-.7-1.9-1.3-2.7.1-.5.3-.9.6-1.3-.1-.2-.2-.3-.3-.4-.3.2-.4.5-.3.9-1,0-2,.1-2.9.3v3.5h1.2c0,.5.2.9.6,1.2,0,.2,0,.4-.1.6-.8-.3-1.5-.7-2.2-1.2-.8,0-1.2.4-1.2,1.2-1.4,0-2.4.4-3.1,1.5-.7-.1-1.2-.4-1.6-.9-.4-.2-.7-.5-.9-.9v-1.5h-4.7c-.7-.5-.7-1,0-1.6,1.9-.1,3.7,0,5.6.2,0-.7.3-1.2.9-1.6.7-.1,1.3-.4,1.8-.9.5-.2,1-.2,1.5-.2.4-.1.6-.4.6-.9-.2-2.1-1-3.9-2.4-5.4-.9-.2-1.8-.2-2.7.2-1.5-.5-2.9-.9-4.4-1.3-.4-.3-.7-.7-.9-1,.3,0,.6,0,.9-.3-.4-.4-.4-.7,0-1,1.8-1.1,3.6-2,5.6-2.7.9-.3,1.6-.2,2.4.3-1.7.3-3.2,1-4.4,2.2-.3.4-.4.8-.2,1.2.6-.7,1.2-1.2,1.9-1.8h0Z"/>
  <path class="st0" d="M100.7,43.7c.1,0,.2,0,.3.2-.2.3-.4.6-.6.9.8.2,1.6.2,2.3.2-.4.7-.3.9.3.6.3.8.9,1.5,1.6,2.1.7-.3,1.3-.7,1.9-1.2,1.5,0,2.9.5,4.1,1.3-.7.2-1,.6-.9,1.3-.3,0-.6,0-.9.3.4.3.8.4,1.2.2.7-.3,1.4-.8,1.9-1.3.4.1.8.4,1,.7.5.2,1,.2,1.5.2v1.2c-.8-.3-1.6-.5-2.5-.6-1,0-2.1.2-3.1.3v.9c1.2,0,2.4-.2,3.4-.9.8,0,1,.4.7.9-.2.2-.2.5.3.7-1.9,1.4-4.1,2-6.5,1.9,0,.4,0,.7-.3,1-3.3,1.2-6.2,3-8.7,5.4-.2.4-.4.8-.4,1.2.4,1.3.2,2.5-.6,3.5.6.2,1.2.4,1.8.4,1.2,1.5,2.4,2.9,3.5,4.4.8,0,1.6.2,2.3.3l.4.4c-.7,1.5-1.3,3-1.9,4.6.1,1.2.6,2.2,1.5,3.1,1.1-.1,2.2-.5,3.1-1.2.3-1.6.6-3.1.9-4.7l.4-.4c1,.1,2,.4,2.9.7,0-.5-.2-.9-.6-1.2.8-.3,1.5-.4,2.3-.3v-1.8c.5-.8.8-1.8.9-2.8-.2-.8-.3-1.5-.4-2.2.7-.5,1.3-.9,1.9-1.5.7-1.7,1.5-3.3,2.5-4.7.3-.2.7-.3,1-.3.8.2,1.6.4,2.3.6.7.2,1.4.5,2.1.9.3.7.5,1.3.7,2.1.3.2.6.3,1,.3,0,.8.2,1.6.6,2.3-.1.8-.5,1.4-1.2,1.9.6,0,1.2.2,1.8.4.1.6.5,1,1,1.2.7-.3,1.5-.5,2.2-.6h1.5c.2.7.5,1.2,1,1.8,0-1-.1-1.8-.6-2.7.2-.3.5-.3.7-.2.4.2.7.6.9,1,.3,2.1.3,4.3,0,6.5h1.2c.3.4.6.8.9,1.3,1.2.4,2.4,1,3.5,1.8-.5.3-1.1.5-1.8.4-.6,0-1.2.3-1.8.7.6,0,1.2-.1,1.8-.4,1.3.4,2.6.8,3.8,1.2-.2,1.2-.5,2.3-.7,3.5-.4.3-.9.5-1.3.7.4,0,.8.2,1.2.3-.4.3-.6.7-.9,1-.6.5-1.2,1-1.8,1.6h1.2c.2.6.5,1.3.7,1.9,1-.7,2-.7,3.1,0-.3.4-.6.8-.9,1.2,1,.5.9.9-.3,1.5-.4-.3-.8-.3-1.2,0,.6.4,1.1.9,1.5,1.5,0,.4-.3.6-.6.6-.4,0-.6,0-.9-.3.2-.4.3-.8.3-1.2h-.9c-.6-.6-1.3-1-2.1-1.5-1.4.4-2.8.4-4.1,0,.4-.6.3-1.1-.3-1.5,1.6-1.4,3.1-2.9,4.7-4.4.5-.2.6-.4.3-.7-.9-.2-1.8-.2-2.6.2-.6.2-1.1.5-1.5.9-.7.3-1.4.5-2.2.6-1.6-.2-3.1-.5-4.6-1-1.9-.2-3.7-.2-5.6-.2-1.9.3-3.7.9-5.3,1.8,0,.4,0,.7.3.9-.4.3-.8.6-1.2.9,1.7-.7,3.5-1.3,5.3-1.9.7-.2,1.4-.2,2.1-.2,1.8.1,2.3.9,1.5,2.3-.5.1-1,.3-1.5.6-.5-.3-1-.5-1.5-.4.5.5,1.1.7,1.8.7,0,.8-.2,1.6-.3,2.3v1.5c1.5.3,1.5.5,0,.6-4.1.4-8,1.3-11.8,2.7-.1.9-.2,1.8-.3,2.7-2.3.2-4.6.7-6.8,1.5v1.2c-.2.7-.6,1.2-1.2,1.6-.5,0-1-.2-1.5-.3.5,1.3.1,2.3-1,3.1-.2-1-.2-2,.2-2.9-.2-.2-.5-.1-.7.3-.7,1.5-.7,3-.2,4.4-.6.6-.6,1.1,0,1.6-2.6,1.4-5.1,3-7.7,4.6-.7,0-1.3-.1-1.8-.6-.3.3-.4.7-.3,1.2-.6,0-1.2.2-1.6.6-.5-.3-1.1-.5-1.8-.6-.7,1.2-1.1,2.5-1.2,3.8,0-.3-.2-.6-.4-.9-.4.6-1,.9-1.8.9v-1.2h-.9c-.3-1.3-1.2-1.9-2.7-1.8-.8,0-1.5.4-2.1.9.1.2.2.4.3.6h-.3c-.6.4-1.1.9-1.6,1.5-.1-.4-.2-.8-.2-1.2h-2.9c-1-.1-1.8.2-2.3.9v-.9c-.6.4-1.3.7-2.1.9v-.9h-.9c0,.4,0,.8.3,1.2,0,.2-.2.4-.4.6-.2,2.3-.6,4.5-1,6.8-.3,1.5-.5,3-.6,4.6.1,1.5.3,3.1.6,4.6-.2.9,0,1.7.7,2.4.2.6.2,1.2,0,1.8-.9,1.1-2,1.6-3.4,1.8-.9-.7-1.7-1.5-2.3-2.4.2-.8.6-1.5,1.2-2.1-.2-.6-.4-1.2-.6-1.8-.2-2.6-.4-5.3-.4-7.9,0,2.6-.2,5.2-.4,7.8.1.9.3,1.7.6,2.5-1.5.2-2.2-.5-1.9-2.1-.3-.2-.6-.3-1-.3,0-3.4,0-6.9-.3-10.3,0-.8.2-1.4.6-2.1-.3-.3-.7-.4-1.2-.3v1.8h-.9c-.2-1.8-.3-3.5-.6-5.3,0-2.1,0-4.2.3-6.3,0-1-.3-1.5-1.3-1.6,0-.3,0-.7-.2-1,0-2.4.1-4.8.3-7.2.2.3.4.6.6.9.2-1.4,0-2.8-.3-4.1,1.8-6.3,4.5-12.2,8.2-17.7h1.2c0-1,.4-1.9,1-2.7,0,.3.2.6.4.9.3-.7.4-1.3.3-2.1.8-.7,1.7-1.3,2.7-1.8,0-.6,0-1.2.2-1.8.8,1,1.7,1.1,2.8.4-.5-.3-1.1-.5-1.8-.4,0-.7.2-1.4.3-2.1.8,0,1.4.5,1.9,1.2,1-.7,1-1.4,0-2.1-.2-.5-.2-1,0-1.5.6-.8,1.2-1.6,1.6-2.3,6.6-7.6,14-14.2,22.3-19.8,1.2-.7,2.3-1.4,3.5-1.9h0Z"/>
  <path class="st0" d="M126,36.4c.6,0,1.1.2,1.5.7-2.1,1.2-4.4,1.9-6.8,2.2,0,.4,0,.8-.2,1.2l-2.3,2.3c0,.9-.4,1.6-1.3,2.2.7,0,1.3-.2,1.8-.7.3.5.3,1-.2,1.5-.6.2-1,.6-1.3,1.2,0,0,.2.2.3.3,1.1-.9,2.4-1.5,3.8-1.9.4-1,1.2-1.6,2.3-1.8-.8-.2-1.4-.5-1.9-1-.2-.5,0-.8.4-.9.2.4.5.7.9,1,1.5.4,2.9.9,4.4,1.3.9-.3,1.8-.4,2.6-.2,1.3,1.5,2.1,3.4,2.4,5.4,0,.5-.2.7-.6.9-.2-2.2-1-4.3-2.2-6.2-.4.4-1,.6-1.6.6-1.1-.1-2.2-.4-3.2-.9,0,.5.1,1.1.6,1.6-.7.7-1.4,1.1-2.3,1.3.4-.5.6-1.1.6-1.8-.7,0-1.2,0-1.8.4.7.2.7.5,0,.9-1.2.1-2.4.3-3.5.4v1.5c.6,0,1.2,0,1.8.2.2.4.5.7.9.7-.8.4-1.7.7-2.7.9-.2.3-.4.6-.7.9-.3-.5-.7-1-1.2-1.5-.9,1.2-2,1.7-3.4,1.5.3-.5,0-.8-.7-.9-1,.7-2.2,1-3.4.9v-.9c1-.1,2.1-.2,3.1-.3.9.1,1.7.3,2.5.6v-1.2c-.5,0-1,0-1.5-.2-.3-.4-.6-.6-1-.7-.6.5-1.2,1-1.9,1.3-.4.2-.8.2-1.2-.2.2-.3.5-.4.9-.3-.1-.7.2-1.2.9-1.3-1.2-.9-2.6-1.3-4.1-1.3-.6.4-1.2.8-1.9,1.2-.7-.5-1.3-1.2-1.6-2.1.8-1.5,1.9-2.1,3.5-1.9-.4.5-.4.9,0,1.3.5.4,1.1.6,1.8.6.8-.3,1.6-.6,2.3-.9.3,0,.5.1.7.3,0,.4,0,.7.2.9,2.4-.4,3.6-1.8,3.5-4.1,3.4-1.4,6.6-3.1,9.7-5.2.4-.1.8-.2,1.2-.2h0Z"/>
  <path class="st0" d="M123,46.7c0,.4,0,.7-.3.9-.7,0-1,.5-.9,1.2-.3.2-.6.3-.9.3-.4,0-.7-.3-.9-.7-.6-.2-1.2-.2-1.8-.2v-1.5c1.2-.2,2.3-.3,3.5-.4.7-.4.7-.7,0-.9.5-.4,1.1-.5,1.8-.4,0,.7-.2,1.2-.6,1.8h0Z"/>
  <path class="st0" d="M122.7,47.5c0,.6-.4,1-.9,1.2-.1-.7.2-1.1.9-1.2Z"/>
  <path class="st0" d="M138.6,44c.5.2,1,.3,1.5.3.3,1.1.3,2.3,0,3.5-1.8-.2-2.1.4-1.2,1.8-.9-.2-1.5-.7-1.8-1.6.8-1.1.8-2.3,0-3.4.5-.2,1-.4,1.5-.6h0Z"/>
  <path class="st0" d="M186.8,47.5c.7,0,1.4.2,2.1.4.4.4.4.9,0,1.3-1-.2-1.7-.8-2.1-1.8Z"/>
  <path class="st0" d="M157.7,47.8c-.4.4-.4.7.1.9.6-.3,1.1-.3,1.6,0-.3.5-.6,1-.9,1.5,0,.3.1.5.3.7,1.2.2,1.5.8.9,1.9-.9,0-1.3-.6-1.2-1.5-.7,0-1.3.1-1.8.6.4-1,1-2,1.8-2.8-1.4.2-2.7.4-4.1.6-.5-.5-.7-1.2-.6-1.9.5,0,1,0,1.5-.2-.1-.1-.2-.3-.3-.4,1-.4,1.9-.2,2.6.6h0Z"/>
  <path class="st0" d="M156,51.7c-.6.4-1.3.7-2.1.9.5-.3.8-.8.9-1.5.6,0,1.2,0,1.8.3-.1.2-.3.3-.6.3h0Z"/>
  <path class="st0" d="M186,52.5c1.2,0,2.2.3,3.2.9.5,0,.6,0,.3.3-.5.2-1,.4-1.5.6v-1.2c-1,.4-2.1.7-3.2.9v-.9c.6,0,1,0,1.2-.6h0Z"/>
  <path class="st0" d="M138.9,49.6c1.3,0,2.2.5,2.6,1.8.8.4,1.5.9,2.1,1.6-.7.2-1.3.6-1.8,1-.8.4-1.6.8-2.4,1.3-.4.2-.8.2-1.2,0-.8-.6-1-1.4-.7-2.2-1.5-1.3-2.2-.9-2.2,1.2h-1.2v-3.5c1-.2,1.9-.3,2.9-.3,0-.3,0-.6.3-.9.1.2.2.3.3.4-.3.4-.5.8-.6,1.3.6.8,1.1,1.7,1.3,2.7.7-1.4.8-2.9.4-4.4h0Z"/>
  <path class="st0" d="M153.9,52.5c-.4.6-.3,1.2.3,1.6-.5.5-.7,1.2-.6,1.9.4,0,.8,0,1.2.2.6.9.7,1.8.3,2.8-.5-.3-1.1-.4-1.8-.3,0-.7,0-1.2-.3-1.8,0-.7-.3-1.3-.6-1.9.1-.5.4-.8.9-.9-.5-.8-.3-1.4.6-1.6h0Z"/>
  <path class="st0" d="M136,55.5h.9v2.9h-1.2c0,.5-.1.9-.6,1.2-.9-.6-1.8-1.2-2.6-1.8-.1,0-.2.2-.3.3.9.7,1.1,1.6.6,2.7-1.8-.7-3.4-1.5-5-2.3-.2-.4-.4-.8-.6-1.2,0-.3.3-.5.6-.6.4.5.9.8,1.6.9.7-1.1,1.7-1.6,3.1-1.5,0-.8.4-1.2,1.2-1.2.7.5,1.4.9,2.2,1.2.1-.2.2-.4.1-.6h0Z"/>
  <path class="st0" d="M133.3,56.4c1,.2,1.9.3,2.9.3v.9c-.9,0-1.8,0-2.6-.2-.2-.3-.3-.6-.3-1h0Z"/>
  <path class="st0" d="M233.3,60.2c-.8.2-1.2-.2-1.2-1.2h-.9c0,.4,0,.8-.3,1.2-.2,0-.3-.2-.4-.3-.4.2-.9.4-1.3.4-.3.2-.6.4-.7.7-.4,2-.5,4.1-.4,6.2-.2-.6-.4-1.2-.6-1.9,0-1.9,0-3.8,0-5.7.4,0,.7,0,1,.3,0-.4,0-.8-.1-1.2.4.3.8.3,1.2,0-.3-.3-.3-.6,0-.9,1.2,0,2.4.5,3.5,1.2.3.3.4.7.3,1.2h0Z"/>
  <path class="st0" d="M200.4,63.7c-1.6-1.3-3.5-1.7-5.6-1.3-.9,0-1.7.4-2.4,1,.8.2,1.4.6,2.1,1-.9-.2-1.8-.1-2.6.2-.6-.6-1.4-1-2.4-1.2.8-.2,1.6-.2,2.4-.2-.8-.8-1.8-1.2-2.9-1.3.3-.8.8-1.4,1.5-1.8,1.1.5,1.9,1.3,2.4,2.3.4-.3.7-.7.7-1.2.2.2.4.5.7.6.8-.2,1.5-.2,2.4,0,.6,0,1-.3,1.5-.6,1.3.3,2.1,1.1,2.4,2.3h0Z"/>
  <path class="st0" d="M121.8,58.1c.8,0,1.6,0,2.3.2.4.8.8,1.7,1.2,2.5,2.4.4,2.7,1.4.9,2.9-.3-.7-.5-1.5-.6-2.3-.4,0-.7,0-1-.3-.2-.7-.4-1.4-.7-2.1-.7-.3-1.4-.6-2.1-.9h0Z"/>
  <path class="st0" d="M191.9,64.9c1,.3,1.9.7,2.9,1,.2.3.3.6.3,1-.7-.3-1.4-.7-2.1-1-.7,0-1.4-.2-2.1-.3.3-.3.6-.6.9-.7h0Z"/>
  <path class="st0" d="M134.8,73.1h-1.2c.3-2.2.3-4.3,0-6.5-.1-.5-.4-.8-.9-1-.3-.2-.5-.1-.7.2.4.8.6,1.7.6,2.7-.5-.5-.8-1.1-1-1.8h-1.5c.9-.8,1.8-1.6,2.6-2.5.3-.2.5-.1.7.2.6,2.1,1.1,4.1,1.6,6.2-.4.5-.8,1-1.2,1.5.3.4.6.8.9,1.2h0Z"/>
  <path class="st0" d="M200.4,63.7c.4,0,.7,0,.9.3-1.1,1.2-2.5,1.8-4.1,1.8v1.2c-.4,0-.7,0-1-.3-.2.2-.4.4-.4.6-.3,0-.5,0-.6-.3,0-.4,0-.7-.3-1-1-.4-2-.7-2.9-1v-.3c.8-.3,1.7-.3,2.6-.2-.6-.5-1.3-.8-2.1-1,.6-.6,1.4-.9,2.4-1,2.1-.4,3.9,0,5.6,1.3h0Z"/>
  <path class="st0" d="M201.3,64c.7.5.7,1,0,1.6-1.8.9-3.6,1.4-5.6,1.6,0-.2.2-.4.4-.6.3.2.6.3,1,.3v-1.2c1.6,0,3-.6,4.1-1.8Z"/>
  <path class="st0" d="M168,59.9c0,.6-.1,1-.6,1.3.4.2.6.6.4,1-.6.5-1,1-1.3,1.6-.5.1-1,.2-1.5.1,0,1.7-.5,3.2-1.6,4.4-1,.4-1.9.4-2.8,0h1.5c0-.4,0-.8.1-1.2.1,0,.2.2.3.3.9-1.1,1.4-2.3,1.3-3.8h2.1c0-.3,0-.6.1-.9,1-.7,1.3-1.7.7-2.8.4-.1.8-.2,1.2-.2h0Z"/>
  <path class="st0" d="M239.8,64.3c1.5,1.5,2.8,3,4.1,4.7-.1,0-.2.2-.3.3-.6-.5-1.1-.9-1.8-1.3-.3-.2-.5-.2-.6.2-.3.3-.6.7-.9,1.2-1.5-1.1-1.2-1.7.9-1.8,0-.5,0-1-.3-1.5-.6-.4-1-1-1.2-1.8h0Z"/>
  <path class="st0" d="M226,73.1c0-.2-.1-.3-.3-.4.4,0,.7-.2,1-.4.6-1.2,1.1-2.5,1.3-3.8h.9c0-2.2,0-4.3.4-6.5.9-.4,1.7-1,2.4-1.8.2.5.2,1,0,1.5-.7.6-1.2,1.3-1.8,2.1-.1,2-.2,3.9-.1,5.9-.4,0-.6,0-.9.3-.2.6-.4,1.2-.4,1.8-.5.3-.8.8-1,1.3-.5.2-1,.2-1.5.2h0Z"/>
  <path class="st0" d="M74.8,65.5c-.4.8-1,1.6-1.6,2.3-.2.5-.2,1,0,1.5,1,.7,1,1.4,0,2.1-.5-.7-1.1-1.1-1.9-1.2-.1.7-.2,1.4-.3,2.1.6,0,1.2.1,1.8.4-1.1.7-2,.5-2.8-.4-.2.6-.2,1.2-.2,1.8-1,.5-1.9,1.1-2.7,1.8,0,.7,0,1.4-.3,2.1-.2-.3-.4-.6-.4-.9-.7.8-1,1.6-1,2.7h-1.2c3.1-5,6.6-9.7,10.6-14.1h0Z"/>
  <path class="st0" d="M249.8,76.9c.2.3.3.6.3.9-.3,0-.5,0-.7-.3-1.1-1.3-2.1-2.7-3.1-4.1-.5-.2-.9-.4-1.5-.4-.2-.2-.3-.4-.3-.7.3.4.7.5,1.2.4-.5-.3-.8-.8-.7-1.3.3.4.8.7,1.3.7,1.2,1.6,2.4,3.2,3.5,4.8h0Z"/>
  <path class="st0" d="M113.6,69v1.8c-.8,0-1.6,0-2.3.3.4.3.6.7.6,1.2-1-.4-2-.6-2.9-.7l-.4.4c-.3,1.6-.6,3.1-.9,4.7-.9.7-2,1.1-3.1,1.2.7-.4,1.5-.9,2.2-1.5.8-1.7,1.2-3.4,1.3-5.3,2.1-.1,4-.8,5.6-2.1h0Z"/>
  <path class="st0" d="M93.9,81.4c-.5-.3-1.1-.4-1.6-.6-1.3.2-2.4.7-3.4,1.5-.2-.5-.3-1-.3-1.5,1.3,0,2.5-.4,3.7-.9.8.2,1.7.4,2.5.6,0,.5,0,1-.2,1.5-.2-.3-.4-.4-.7-.6h0Z"/>
  <path class="st0" d="M213.3,79.6c.8.5.6,1-.3,1.5-.3,0-.5-.3-.6-.6.2-.4.5-.7.9-.9h0Z"/>
  <path class="st0" d="M227.4,80.2h1.2c-.1,1.7.7,2.4,2.4,2.3-.4.6-1,.7-1.8.4-.7-.3-1.3-.7-1.8-1.3v-1.5h0Z"/>
  <path class="st0" d="M217.1,81.9c.6-.4,1.3-.4,2.1,0,.1.2.2.4.3.6-.3,1-.5,1.9-.6,2.9,0,.2-.1.3-.3.3-.4-1.1-.3-2,.3-2.9-.5-.6-1.1-.9-1.8-.9Z"/>
  <path class="st0" d="M214.8,81.1v.9c.6.2,1.2.4,1.8.6,0,.8-.2,1.6-.6,2.3.4,0,.7,0,1-.3.1,1,.2,2,.1,2.9-.2,0-.3-.1-.4-.3,0-.7-.2-1.4-.4-2.1-.4.2-.6.5-.7.9-.1-.7-.2-1.4-.1-2.1-.4,0-.6,0-.9-.3.2-.4.3-.8.3-1.2-.6,0-1-.3-1.2-.9.4-.2.8-.4,1.2-.6h0Z"/>
  <path class="st0" d="M121.8,82.8c-1.6,1-3.2,1.9-5,2.7-.3-.2-.4-.5-.3-.9,1.7-.9,3.4-1.5,5.3-1.8h0Z"/>
  <path class="st0" d="M125.7,83.7c1.3,0,2.5.5,3.5,1.2,0,.6-.3,1-.9,1.2-.9-.8-1.8-1.6-2.7-2.3h0Z"/>
  <path class="st0" d="M233.3,60.2c.7.2,1.4.4,2.1.4.2.3.4.5.6.7,1.4.8,2.7,1.8,3.8,2.9.1.7.5,1.3,1.2,1.8.3.4.4.9.3,1.5-2.1,0-2.4.6-.9,1.8.3-.4.6-.8.9-1.2,1.5,1,2.6,2.4,3.2,4.1,0,.3,0,.5.3.7.5,0,1,.2,1.5.4,1,1.4,2,2.8,3.1,4.1.2.2.4.3.7.3,2.1,3,4,6.1,5.6,9.4,0,.6,0,1.2-.3,1.8-.5-.3-.7-.1-.6.6,0,.5.3.9.7,1.2,0-.5.3-.9.7-1.2.3.8.4,1.6.3,2.3-.4,0-.8,0-1.2.3.6.6.8,1.2.6,1.9.1.4.2.7.4,1,.6-2.7,1.3-2.7,1.9,0,.2-.6.5-.7.9-.3.4.7.7,1.5.9,2.3.7,2.5,1.3,5.1,1.6,7.7,1,.9,1.6,2.1,1.8,3.5.2.4.4.4.4,0,.3.3.4.7.3,1.2-.1,1.2-.3,2.3-.4,3.5-.4.4-.8.7-1.3.9-.6.2-1,.4-1.5.9-.6-1.2-1-2.5-1.2-3.8-.1-.8-.1-1.7,0-2.7-.9,0-1.8.2-2.6.3,0,.7,0,1.3-.3,1.9.2,2.9.4,5.8.4,8.7,0,.5.3.8.7.9.2,0,.3,0,.3.3-.7,0-1.4-.2-2.1-.3,0-2.4,0-4.9-.1-7.3,0-.7-.2-1.4-.4-2.1-.3,2.2-.3,4.5,0,6.8,0,.7-.1,1.4-.1,2.1-.2.3-.4.6-.7.9.1.2.2.4.3.6-.3,0-.5.3-.6.6-1.4.2-1.9,1-1.5,2.3-.5-.7-.8-1.6-.7-2.7-.4-.4-.8-.3-1,.3.8.9,1.1,2,.9,3.2.6,0,1,0,1.2-.6.2.3.5.5.9.6,1.1.4,1.3,1.1.6,2.1-1.8-1.7-2-1.6-.7.3.4,2.3-.1,2.5-1.5.9-.4-.8-.5-1.6-.1-2.3-.3-.4-.6-.8-1-1.2-.1-.5-.2-1-.4-1.5-.3-.6-.6-1.2-1-1.8,0-1.3-.2-2.6-.6-3.8-2.6-1.8-4.6-4.2-5.9-7.1,0,.2-.2.4-.4.6-.2-.4-.4-.8-.6-1.2-.2-.3-.6-.4-.9-.2-.6,1.6-.2,2.8,1.3,3.7.6,1,1.1,2.1,1.5,3.2.5.6,1.1.9,1.9.9,0,.4,0,.8.1,1.2,1.1.7,1.9,1.5,2.5,2.7,0,.2-.1.4-.1.6-.4-.4-.8-.8-1.3-1.2-.4.8-.3,1.5.3,2.2-.3.6-.5,1.2-.6,1.9-.3,0-.6,0-.9-.2.2-.3.3-.6.3-1-.6-2.7-2.1-4.6-4.6-5.9-.5-1-1.1-1.9-1.9-2.7.4-.9.5-1.9.4-2.9-.3.2-.6.3-1,.3.2-.6.2-1.2,0-1.8-.2.3-.5.5-.9.6-.7-.5-1.5-.6-2.4-.4-1.1,1-2.3,1.6-3.8,1.6-.7,0-1.4,0-2.1.2,0,.9-.1,1.8-.3,2.8-.7.7-1.6,1.1-2.6,1.2-.3.7-.7,1.3-1.2,1.8-.4-.3-.8-.3-1,.3-.1.5-.2,1-.1,1.5-.1-1.7-.6-3.2-1.5-4.7.8,0,1.5-.2,2.2-.6,1.2.8,1.8.4,1.6-1.2-1.1,0-2.1-.5-2.9-1.3-.9-.2-1.8-.2-2.6-.2v1.2c.9,0,1.8,0,2.6.2.4.3.4.6,0,.9-1.8.3-3.4-.2-4.7-1.3-.7.8-1.6,1.1-2.6.9,0,.8,0,1.6-.3,2.3-.3-1.8-.4-3.7-.3-5.6h3.5c1.3.2,2.5.3,3.8.3.3-1.7.3-3.3.1-5-.3-.7-.8-1.2-1.5-1.5-.2-.6-.4-1.2-.7-1.8-2,0-3.2-1-3.5-2.9,1.5,0,3,.1,4.4.6,0-.5,0-1-.3-1.5.1,0,.3-.2.4-.3.4.3.8.5,1.2.6,1.6-.3,2.5-1.1,2.8-2.7.9-.2,1.7-.7,2.2-1.5.2-.9.6-1.7,1-2.5,1.1-.5,2.3-.8,3.5-.7,0-.7-.3-1.4-.6-2.1.2-.4.4-.8.6-1.2.2.3.4.6.6.9.7.8,1.4,1.6,2.2,2.3.5-.2.9-.3,1.3-.6.8.4,1.5.9,2.2,1.5.9-1.2,2-1.6,3.4-1.3.6,1,1,.9,1.2-.2h.9c-.5-1.4-1-2.7-1.5-4.1,0-.5.3-.9.7-1.2.4.7.9,1,1.6,1.2-.2-1.9-1.1-3.1-2.9-3.5v-.9c.8,0,1.4-.2,2.1-.6.6.2,1.2.3,1.8.3h.9c.4-2.2-.5-3.2-2.6-2.9,0-.3,0-.6-.3-.9-.7-.4-1.4-.7-2.1-.7.7,1,1.4,1.8,2.4,2.5-1.6,1-3.1.7-4.3-.9-.9-1.6-1.8-3.1-2.6-4.7,0-1.6,0-3.1,0-4.7-.6-.9-1.4-1.4-2.5-1.5,0,.5,0,1,.1,1.5,1.2,1.2,1.2,2.4,0,3.5-.1,2.9,1,5.2,3.5,6.8.3,1.2,0,2.2-.7,3.1.9,1.4,1.2,2.9,1,4.6-.4.3-.8.4-1.3.3v1.2c-.9,0-1.4-.3-1.5-1.2.2-.4.5-.7,1-.9.1-.4.2-.8.1-1.2h-.9v.9h-.9c-1.5-2.1-2.9-4.3-4.4-6.5-.4.6-.8,1.2-1.2,1.8-1.7,0-2.4-.7-2.4-2.3h-1.2c-.2-.3-.5-.4-.9-.3,0-.7.1-1.3.6-1.8,0,0-.1-.2-.1-.3-.2.2-.4.4-.7.6-.2-.7-.5-1.3-1-1.8-.5-1-.6-1.9-.1-2.9.2-.3.5-.5.9-.6.5,0,1,0,1.5-.2.2-.6.5-1,1-1.3,0-.6.2-1.2.4-1.8.2-.3.5-.4.9-.3,0-2,0-3.9.1-5.9.5-.8,1.1-1.4,1.8-2.1.2-.5.2-1,0-1.5-.6.8-1.4,1.4-2.4,1.8-.4,2.1-.5,4.3-.4,6.5h-.9v-1.2c-.1-2.1,0-4.1.4-6.2.1-.3.4-.6.7-.7.5,0,.9-.2,1.3-.4.1.1.3.2.4.3.3-.3.4-.7.3-1.2h.9c0,1,.4,1.4,1.2,1.2h0Z"/>
  <path class="st0" d="M247.1,82.5c0-.3.1-.6.3-.9-.6-.7-1.2-1.1-2.1-1.2-.9-.7-1.7-1.5-2.4-2.5.7,0,1.4.3,2.1.7.3.2.4.5.3.9,2.2-.2,3.1.8,2.6,2.9h-.9,0Z"/>
  <path class="st0" d="M240.7,84.9c1.1.3,1.4,1,.9,2.1-.7-.5-1-1.2-.9-2.1Z"/>
  <path class="st0" d="M217.1,81.9c.7,0,1.3.3,1.8.9-.6.9-.7,1.9-.3,2.9.2,0,.3-.1.3-.3h.3c.3.6.6,1.2.9,1.9-.2.6-.6.8-1.2.7v-.9c-.6,0-1.1,0-1.5.3h-.3c0-1,0-2-.1-2.9-.3.2-.6.3-1,.3.3-.7.5-1.5.6-2.3-.6-.2-1.2-.4-1.8-.6v-.9c0-.3.1-.6.3-.9.7-.3,1.4-.4,2.1-.3-.2.8-.2,1.4,0,2.1h0Z"/>
  <path class="st0" d="M91.3,86.4c-.8,0-1.6.2-2.3.3v1.2c-.7-.2-1.4-.5-2.1-.9.8-.1,1.5-.4,2.1-.9-.7-.4-1.4-.8-2.1-1.2,1.1-.3,2.2-.5,3.2-.6,0,.3,0,.6.2.9.6.2.9.6,1,1.2h0Z"/>
  <path class="st0" d="M219.2,85.5c1.1.5,1.9,1.4,2.2,2.7,1.4,1.1,2.3,2.6,2.5,4.4.6,0,1.2,0,1.8.2.3.2.5.4.6.7-.2.8-.6,1.5-1.2,2.1-.3.2-.6.4-1,.6-.2-1-.4-1.9-.4-2.9-.8,0-1.6.2-2.4.6-.7-.5-1.5-.6-2.4-.4.3.4.5.8.6,1.3-.8-.3-1.6-.7-2.4-1,.5-.3.9-.7,1.2-1.2-1-1.6-.6-2.2,1.2-1.6v1.2c-.3,0-.6,0-.9.2.9,0,1.9.2,2.8.4.3,0,.5-.2.7-.3.4-.8.4-1.6,0-2.3-.4.6-.7,1.3-.9,2.1h-1.2c-.1-.9.3-1.3,1.2-1.2,0-.7,0-1.4-.3-2.1-.4.4-.9.7-1.5.9-.5-.5-.9-1.1-1-1.8-.3-.2-.6-.3-1-.3.4-.3.9-.4,1.5-.3v.9c.6,0,1-.1,1.2-.7-.3-.7-.6-1.3-.9-1.9h0Z"/>
  <path class="st0" d="M89.2,87.8c.3,0,.6,0,.9.2-.7.5-1.2,1-1.8,1.6v-1.5c.4,0,.7,0,.9-.3h0Z"/>
  <path class="st0" d="M133.3,87.5c.6.4.7.9.3,1.5,1.4.4,2.7.4,4.1,0,.8.4,1.4.9,2.1,1.5-.6.8-1.4,1.1-2.4.9,1.1-.2,1.3-.7.6-1.3-1.9-.3-3.7-.6-5.6-.7,0-.8.3-1.3.9-1.8h0Z"/>
  <path class="st0" d="M211,90.5c.2-.3.3-.6.3-.9,0-.2-.1-.3-.3-.4.5-.3.9-.7,1.3-1,0,.3.2.6.4.9.4-.6.4-1.2,0-1.8.1-.3.3-.5.6-.6.4.3.6.7.6,1.2-.3,1.5-.3,2.9,0,4.3-.2.3-.5.4-.9.4-.8-.2-1.6-.3-2.4-.4.3-.5.4-1,.3-1.6h0Z"/>
  <path class="st0" d="M233.9,86.1c.2.3.6.7.9,1-.8.6-.8,1.1,0,1.6.7-.4,1.3-.8,1.8-1.5h.9v-.9h.9c0,.4,0,.8-.1,1.2-.5.1-.9.4-1,.9-.3.7-.4,1.5-.3,2.3-.9.1-1.2-.2-.9-.9-.5-1.1-.8-1.1-1,0-.2-.2-.4-.3-.7-.3-.2-.3-.4-.6-.6-.9-.2.4-.4.8-.6,1.2-.5-1-1-2-1.5-3.1,0-.4.3-.7.6-.9-.2,0-.4-.2-.6-.4.5-.4,1-.8,1.6-1.2.6.4.8,1,.7,1.8h0Z"/>
  <path class="st0" d="M233.9,86.1c.1,1.2-.4,1.9-1.5,2.1-.4-.9-.3-1.8.1-2.7.3-.2.6-.3,1-.3,0,.4,0,.7.3.9h0Z"/>
  <path class="st0" d="M214.2,92.8c-1.2.2-2.4.2-3.5.2-.4-.9-.3-1.8.3-2.5,0,.6,0,1.1-.3,1.6.8.1,1.6.3,2.4.4.4,0,.7-.2.9-.4-.3-1.4-.3-2.8,0-4.3,0-.5-.2-.9-.6-1.2-.3,0-.5.3-.6.6.4.6.4,1.2,0,1.8-.2-.3-.4-.6-.4-.9-.4.4-.9.7-1.3,1,.2.1.3.3.3.4-.4,0-.7,0-1-.3,0-.7-.2-1.3-.4-1.9.3-.1.6-.2.9-.2.3.3.7.4,1.2.3v-1.5c1.1,0,2.2.1,3.2.4,1.1.9,1.1,1.8,0,2.7,1,1,1.2,2.1.6,3.4-.5,0-1,.1-1.5.3Z"/>
  <path class="st0" d="M141.6,89.9c1.6.2,1.8,1,.6,2.3-.5.4-.8.3-.9-.3.3,0,.5-.2.6-.6-.4-.6-.9-1.1-1.5-1.5.4-.3.8-.3,1.2,0h0Z"/>
  <path class="st0" d="M90.1,89.6c-.2,1.6-.4,3.1-.6,4.7-.5,0-1,0-1.5-.3.9-1.2,1.5-2.6,1.6-4.1.1-.2.3-.3.4-.3h0Z"/>
  <path class="st0" d="M93.6,89.9c.2.5.6.7,1.2.6,0,.6,0,1.1-.3,1.5-.5-.5-1.1-.9-1.8-1.2l.9-.9h0Z"/>
  <path class="st0" d="M93.6,87.2c1.2.9,1.2,1.8,0,2.7-.4-.4-.7-.9-.9-1.5.2-.4.5-.8.9-1.2Z"/>
  <path class="st0" d="M219.5,90.8v-1.2c.6-.2,1.1-.5,1.5-.9.3.7.4,1.3.3,2.1-.9,0-1.3.3-1.2,1.2h1.2c.1-.7.4-1.4.9-2.1.4.8.4,1.6,0,2.3-.2.1-.5.2-.7.3-.9-.2-1.9-.3-2.8-.4.3-.1.6-.2.9-.2v-1.2h0Z"/>
  <path class="st0" d="M255.7,87.2c1.3,2.4,2.5,5,3.5,7.7-.4-.4-.7-.3-.9.3-.6-2.7-1.3-2.7-1.9,0-.2-.3-.3-.7-.4-1,.2-.7,0-1.3-.6-1.9.4-.3.7-.4,1.2-.3,0-.8,0-1.6-.3-2.3-.4.3-.7.7-.7,1.2-.4-.3-.7-.7-.7-1.2,0-.7.1-.9.6-.6.3-.6.4-1.2.3-1.8h0Z"/>
  <path class="st0" d="M98.9,91.9c.8.7,1.9,1.1,3.1,1.2.5,0,1-.3,1.3-.6.3,0,.6,0,.9.3-1.3,1.5-2.7,1.6-4.1.3-.5.2-1,.3-1.5.3h-2.3c.5-.4,1.1-.6,1.8-.6v-.9h.9Z"/>
  <path class="st0" d="M123,89.9c.5.7,1.1,1.3,1.8,1.8.8.2,1.6.3,2.3.6.6-1,1.5-1.7,2.7-2.1.6.6.8,1.4.3,2.2-1.4.7-2.9,1-4.4,1-.7-.7-1.6-1-2.7-.9v-.6c1.5,0,1.5-.3,0-.6v-1.5h0Z"/>
  <path class="st0" d="M123,92.5c1.1-.1,1.9.2,2.7.9-.8.3-1.7.5-2.7.6-.8,0-1.5.2-2.2.6-.2,0-.3-.2-.4-.3.9-.6,1.8-1.2,2.7-1.8h0Z"/>
  <path class="st0" d="M123,92.5c-.8.6-1.7,1.2-2.7,1.8.2,0,.3.2.4.3.7-.4,1.4-.6,2.2-.6-.9.3-1.7.8-2.3,1.5h-1.2c-.2-.6-.2-1.2,0-1.8,1-.9,2.2-1.3,3.5-1.2h0Z"/>
  <path class="st0" d="M225.1,95.5c1.1,0,1.2.4.6,1-1.8.2-3.6.2-5.3-.2-.9.2-1.8.5-2.6.9-.3-.8,0-1.5.6-2.1.7-.2,1.4-.3,2.1-.4-.3-.1-.6-.2-.9-.2,0-.5-.3-.9-.6-1.3.8-.2,1.6,0,2.4.4.7-.4,1.5-.6,2.4-.6,0,1,.2,2,.4,2.9.4-.2.7-.4,1-.6h0Z"/>
  <path class="st0" d="M111,97.2c.4.1.6.4.6.9-1.7,0-3.3,0-5,.2.5,0,1,.2,1.5.3-1.1.4-2.3.6-3.5.4,0,.4,0,.7-.3.9v-1.2c2.2-.8,4.4-1.3,6.8-1.5h0Z"/>
  <path class="st0" d="M221.8,102.8v-1.5c.5,0,.9.2,1.3.6.5-.1.8-.4,1-.9.4.1.7.3.9.7-.6.5-1,1.2-1.2,2.1-.2,0-.4,0-.6.2-.5-.4-1-.8-1.5-1.2h0Z"/>
  <path class="st0" d="M260.1,97.2c1.7,3.5,3,7.2,3.8,11.2,0,.4-.2.4-.4,0-.2-1.4-.8-2.6-1.8-3.5-.4-2.6-.9-5.1-1.6-7.7Z"/>
  <path class="st0" d="M56,97.2c.4,1.4.5,2.7.3,4.1-.2-.3-.4-.6-.6-.9-.2,2.4-.3,4.8-.3,7.2,0,.3,0,.7.2,1,1,0,1.4.6,1.3,1.6-.3,2.1-.3,4.2-.3,6.3-.3-.3-.4-.7-.3-1.2,0-2,0-3.9-.2-5.9-.3-.4-.6-.4-.9,0-.2,2-.2,4,.2,5.9,0,2.6,0,5.1.3,7.7-.4.6-.4,1.1,0,1.8.2-.1.3-.3.3-.6.4.5.3,1-.3,1.5,0,0-.2-.2-.3-.3-.2-1.3-.5-2.6-.9-3.8.3-1.7,0-3.4-.9-5,.4-3.6.9-7.1,1.5-10.7-.9-3-.6-5.9.9-8.7h0Z"/>
  <path class="st0" d="M259.8,111.1c-.5-.2-.8-.5-1.2-.9-.2,0-.3.2-.4.3-.2,2.4-.4,4.7-.7,7.1.2.9.4,1.8.6,2.7-.4-.1-.7-.4-.7-.9,0-2.9-.2-5.8-.4-8.7.3-.6.4-1.2.3-1.9.9-.1,1.8-.2,2.6-.3-.1.9-.1,1.8,0,2.7h0Z"/>
  <path class="st0" d="M240.1,115.2c-.5-1.4-1.3-2.6-2.4-3.7-.4-.2-.8-.2-1.2.2-.7.8-1.5,1.4-2.5,1.8-.6-.2-1.2-.5-1.6-.9,1.5,0,2.8-.6,3.8-1.6.8-.2,1.6,0,2.4.4.3-.1.6-.3.9-.6.2.6.2,1.2,0,1.8.4,0,.7,0,1-.3.1,1,0,2-.4,2.9h0Z"/>
  <path class="st0" d="M216.6,110.8c-.1,1.9,0,3.7.3,5.6.3-.8.4-1.5.3-2.3,1.1.2,1.9-.1,2.6-.9,1.4,1.2,2.9,1.6,4.7,1.3.4-.3.4-.6,0-.9-.9-.2-1.8-.2-2.6-.2v-1.2c.9,0,1.8,0,2.6.2.8.8,1.8,1.2,2.9,1.3.1,1.6-.4,2-1.6,1.2-.7.4-1.4.6-2.2.6.9,1.5,1.3,3,1.5,4.7.3.2.4.5.3.9-.8,0-1.5-.2-2.2-.6-.2.4-.2.8.1,1.2l1.8.9c-.2.3-.5.5-.9.6-1.2.5-2.5.6-3.8.4l-1.2-.3c.4-.2.4-.4,0-.6.9,0,1.8,0,2.6,0,.5-.2.6-.4.3-.7-1.6-.1-3.3-.1-5,0-.4-1.5-.9-2.9-1.3-4.4-.2-.4-.6-.6-1-.6,0,1.1.2,2.2.6,3.2-.4,0-.6,0-.9.3l.6.3c.5-.2,1-.3,1.5-.3v1.2h-2.9c-.4-.7-.3-1.4.3-2.1-.4-.8-.6-1.7-.6-2.7h.9c-.5-2.2-.7-4.5-.6-6.8,1.1,0,2,0,2.9.6h0Z"/>
  <path class="st0" d="M92.1,112.2c-1.3.6-2.4,1.6-3.1,2.9-.2,2.5,0,5,.2,7.5,0,1.2-.1,2.3-.6,3.4-.4.3-.8.4-1.2.2-1.1-1.7-1.6-3.5-1.5-5.4.3,1.4.7,2.8,1.2,4.1.4.9.9,1.1,1.5.3-.3-.2-.5-.5-.6-.9.4-.6.6-1.2.6-1.9-.4-2-.4-4,0-6,0-.3-.2-.6-.3-.9-.8,3-1.2,3-1.2,0h-.9c.2.9.2,1.8.3,2.8,0,.8-.2,1.4-.6,1.9.3-.6.3-1.2.2-1.8-.5-.4-.8-.8-.9-1.5-.7.2-1.4.2-2.2,0-.2-.5-.4-1-.6-1.5h.9v1.2c.7,0,1.3-.3,1.8-.9.2.3.4.6.4.9.1-1.3.5-2.6,1.2-3.8.7,0,1.2.3,1.8.6.5-.4,1-.6,1.6-.6,0-.4,0-.8.3-1.2.5.5,1.1.7,1.8.6h0Z"/>
  <path class="st0" d="M82.4,115.5c-1.4-.3-2.9-.4-4.4-.3,0-.2-.2-.4-.3-.6.6-.5,1.3-.8,2.1-.9,1.4-.2,2.3.4,2.7,1.8h0Z"/>
  <path class="st0" d="M70.7,116.4c-.3.2-.4.5-.3.9-.8-.1-1.4,0-1.9.6-.7,1.6-1.1,3.2-1.2,5-.2.5-.4.8-.7,1.2.5-2.2.8-4.5,1-6.8.2-.2.3-.3.4-.6-.2-.4-.3-.8-.3-1.2h.9v.9c.7-.2,1.4-.5,2.1-.9,0,0,0,.9,0,.9Z"/>
  <path class="st0" d="M77.7,115.2c.2.8.2,1.6,0,2.3-.7-.5-1.5-.7-2.3-.6v-.9c-.9,0-1.7-.1-2.3-.6h2.9c0,.4,0,.8.2,1.2.5-.6,1-1.1,1.6-1.5h0Z"/>
  <path class="st0" d="M220.1,110.8h-3.5c-.9-.5-1.9-.7-2.9-.6,0,2.3.1,4.5.6,6.8h-.9c0,.9.2,1.8.6,2.7-.6.7-.7,1.3-.3,2.1v.6h-.9c0-.7,0-1.4.3-2.1-.4-.6-.7-1.3-.9-2.1,1.1-1.9,1.4-4,1-6.2,0-.4-.2-.7-.4-.9-.2-.4-.3-.8-.3-1.2.8-.1,1.6-.3,2.4-.6,1.8.6,3.5,1.1,5.3,1.5h0Z"/>
  <path class="st0" d="M61.5,136.6c-2.8-2.1-3.8-4.9-2.9-8.4,0-1.2-.2-2.3-.6-3.4-.3-1-.6-2-.9-2.9h.9v-1.8c.4,0,.8,0,1.2.3-.4.6-.6,1.3-.6,2.1.3,3.4.4,6.9.3,10.3.4,0,.7,0,1,.3-.3,1.6.4,2.3,1.9,2.1-.3-.8-.5-1.6-.6-2.5.2-2.6.3-5.2.4-7.8,0,2.7.2,5.3.4,7.9.2.6.4,1.2.6,1.8-.6.6-1,1.2-1.2,2.1h0Z"/>
  <path class="st0" d="M86,120.8v-.6c.4-.5.6-1.1.6-1.9,0-.9-.1-1.9-.3-2.8h.9c0,3,.4,3,1.2,0l.3.9c-.4,2-.4,4,0,6,0,.7-.2,1.3-.6,1.9.1.3.3.6.6.9-.6.8-1.1.7-1.5-.3-.4-1.4-.8-2.7-1.2-4.1Z"/>
  <path class="st0" d="M266.9,123.1c.3,1,.4,2.1.3,3.2.3,6.3-.2,12.6-1.6,18.8,0-2.1-.2-4.1-.4-6.2-.3,1.6-.4,3.1-.3,4.7-.4,0-.8,0-1.2-.3.3-.3.5-.7.6-1.2,0-3.5,0-7,0-10.6v-2.1c-.5.1-1.1.3-1.6.6-.6-.2-1.2-.4-1.8-.6-.7.1-1,.5-1,1.2-.2,0-.3-.1-.3-.3,0-1.1-.2-2.2-.6-3.2h-.9c0-.9.2-1.5.9-2.1-.8-.5-1.3-1.1-1.8-1.9.2-.5.5-.5.9,0,.5.2,1,.2,1.5,0-.4-.2-.6-.6-.6-1v-.6c.5.2.7.6.6,1.2.4,0,.7,0,1-.3.1-.6.2-1.2.1-1.8.5.2,1,.2,1.5,0,.4.4.8.9,1.2,1.3-.1,0-.2.2-.3.3.9.5,1.9.7,2.9.7.1,2.3.4,2.3.9,0h0Z"/>
  <path class="st0" d="M254.5,121.7v.9c-.5-.1-.9-.1-1.2,0,.4.8.7,1.5.9,2.3-.4,0-.7-.3-.9-.6-.2,0-.3,0-.3-.3-.4-1.3,0-2.1,1.5-2.3h0Z"/>
  <path class="st0" d="M224.2,123.1c-.4.3-.8.6-1.2,1-1.8-.4-3.5-.2-5.1.7-.4,0-.7-.3-.9-.6-.1-.6-.4-1.1-.7-1.6-.9,0-1.8-.2-2.6-.4v-.6h2.9v-1.2c-.5,0-1,.1-1.5.3-.2,0-.4-.2-.6-.3.2-.3.5-.4.9-.3-.4-1-.6-2.1-.6-3.2.5,0,.8.2,1,.6.4,1.5.9,2.9,1.3,4.4,1.7-.1,3.4-.1,5,0,.3.3.2.6-.3.7-.9,0-1.8,0-2.6,0,.4.2.4.4,0,.6.4,0,.8.2,1.2.3,1.3.2,2.6,0,3.8-.4h0Z"/>
  <path class="st0" d="M253,124c0,.2.1.3.3.3-.2.5-.6.7-1.2.6.2-1.2-.1-2.3-.9-3.2.2-.6.6-.7,1-.3,0,1,.2,1.9.7,2.7Z"/>
  <path class="st0" d="M237.7,117.8c.4,0,.8,0,1.2.3.4,1.3.4,2.5,0,3.8-.6.2-1.1.3-1.8.3,0-1.4-.1-2.8-.3-4.1.4,0,.7,0,.9-.3h0Z"/>
  <path class="st0" d="M226.3,118.4c-.4.8-.4,1.7,0,2.5-.3.6-.7,1.1-1.2,1.6-.6-.3-1.2-.6-1.8-.9-.3-.4-.4-.8-.1-1.2.7.4,1.4.6,2.2.6,0-.4,0-.7-.3-.9,0-.5,0-1,.1-1.5.3-.6.6-.7,1-.3h0Z"/>
  <path class="st0" d="M237.7,114.3c.7.3,1,.8.9,1.6,0,.6-.1,1-.6,1.3-1-.9-1.1-1.9-.3-2.9h0Z"/>
  <path class="st0" d="M55.7,123.1c.2.4.3.8.3,1.2,0,.3,0,.4-.3.6-.4-.6-.4-1.2,0-1.8h0Z"/>
  <path class="st0" d="M258.9,122.2c0,.5.2.8.6,1-.5.2-1,.2-1.5,0-.3-.5-.6-.5-.9,0,.4.8,1,1.4,1.8,1.9-.7.5-1,1.2-.9,2.1h.9c.4,1,.6,2.1.6,3.2-.3-.4-.7-.7-1.2-.9,0-1.3-.6-2.3-1.5-3.2.2-.4.3-.8.3-1.2-.2-1-.4-2-.6-2.9,0,0,2.4,0,2.4,0Z"/>
  <path class="st0" d="M245.7,124.9c0,1,0,2-.3,2.9-1.1-.7-2.1-1.5-2.9-2.7.1-.4.4-.6.7-.6.8.2,1.6.3,2.5.3h0Z"/>
  <path class="st0" d="M234.8,125.8c-.1.2-.3.4-.6.4.6.2,1.2.4,1.8.7-1.6,0-3.1.2-4.7.3-1.8,0-3.6-.2-5.3-.6-1,.1-1.1.5-.3,1-1.1.5-2.1.9-3.2,1.3-.5-.3-1-.5-1.5-.7-.4-.2-.4-.4,0-.6-1.4,0-2.7,0-4-.2-.3,1.3-1.1,1.9-2.5,1.8,1.3-1.2,2.4-2.6,3.2-4.1.5.4,1,.8,1.5,1.3,1.3.2,2.5.5,3.7,1,1.7-.9,3.4-1.6,5.1-2.2,2.3,0,4.5,0,6.8.4h0Z"/>
  <path class="st0" d="M234.8,125.8h1.2c.7.8,1.6,1.1,2.6.9,0,1.1-.7,1.4-1.8,1.2v.9c.8.1,1.5-.1,2.1-.6.7,1,.4,1.5-.9,1.5.5.7.9,1.5,1.2,2.4-.3.8-.6,1.6-.9,2.4h1.2v-.9h1.2c1.5,1.1,3.2,2,5,2.6.2.7.4,1.4.4,2.1,1,.5,2,1.1,2.8,1.8v.9c1.6.4,2.4-.2,2.4-1.8,1.1,0,1.1-.2.1-.6-.1-1.2.4-1.6,1.6-1.3,1.2,1.4,2.7,2.6,4.4,3.5.4.7.1,1.1-.7,1-.6-.4-1.2-.8-1.8-1.2-.1.5-.2,1-.1,1.5h.9v.9c1,0,1.9.3,2.7.9.2,0,.4-.1.6-.1-.8-.8-.6-1.4.6-1.6.9.3,1.5.8,2.1,1.5-.4.3-.7.4-1.2.3.4,1.9.6,3.9.7,5.9.2.2.5.4.7.6.2,1,.4,2,.6,2.9,0,4.9-.1,9.8-.6,14.7-.2,2.8-.4,5.5-.7,8.2-2.2,5.9-4.8,11.6-7.9,17.1-1.8,3.4-4.1,6.4-6.8,9.1-2.5,4.8-5.8,8.9-9.9,12.5-1.2.3-2.3.6-3.5.7-2.1.2-4.3.3-6.5.3v.9c-3.2,0-6.3.1-9.4.6v.9c-1.6.2-3.1.4-4.7.6,0-.8,0-1.6.1-2.4,2.8-2.9,5.6-5.6,8.5-8.2.5-1,.8-2.1,1-3.2.6-.4,1-.8,1.3-1.5.2-2,.5-3.9.7-5.9-.3-1.8-.3-3.5-.1-5.3,1.2-1.8,2.4-3.5,3.5-5.3.2-1,0-1.9-.4-2.6-1-.4-2-.7-3.1-.9-.2-.4-.1-.8.1-1.2-.5-.6-.6-1.2-.3-2.1-2.3-.2-4.6-.4-6.9-.6-1.9,1.1-3.9,1.4-6,1.2-.7-.2-1.5-.3-2.2-.3-1.5.2-3.1.5-4.6.7-2.1-2.2-4.1-4.5-5.9-6.9.1-1.4,0-2.8-.3-4.1-1-.6-1.7-1.5-2.1-2.6-1.1-.2-1.9-.9-2.4-2.1,0-.7.4-1.3.9-1.8-.2-.7-.5-1.4-.9-2.1.5-.4,1-.8,1.5-1.2.5-1.2,1-2.4,1.6-3.5.1-1.6.2-3.1.4-4.7-.1-.7-.6-1.2-1.2-1.6.8-1.4,1.7-2.8,2.5-4.3.5-.6,1.1-1.1,1.9-1.3.2-.6.5-1,.9-1.3.9-.5,1.9-1.1,2.8-1.8-.2-1,.2-1.7,1.2-2.1.5.7,1,.6,1.3-.3,0-.3-.1-.5-.3-.7.6-.2,1.2-.1,1.8.1.3-.2.4-.5.3-.9.7,0,1.4-.1,2.1-.3v-2.1c0-1.3.2-2.6.6-3.8.4-.7.9-1.4,1.5-2.1.6-.4,1.3-.6,2.1-.6,1.4.2,2.2-.4,2.5-1.8,1.3,0,2.6,0,4,.2-.4.2-.4.4,0,.6.5.2,1,.5,1.5.7,1.1-.4,2.2-.9,3.2-1.3-.8-.5-.7-.9.3-1,1.7.4,3.5.6,5.3.6,1.6,0,3.1-.2,4.7-.3-.6-.3-1.1-.6-1.8-.7.3,0,.5-.2.6-.4h0Z"/>
  <path class="st0" d="M236,125.8c1,.4,2.1.4,3.1,0,1.4.4,1.8,1.2,1,2.3.4.5.7,1,.9,1.6-.3.9-.8,1.6-1.5,2.2.4.5.8,1,1.2,1.5h-1.2v.9h-1.2c.3-.8.6-1.6.9-2.4-.3-.9-.7-1.6-1.2-2.4,1.3,0,1.6-.5.9-1.5-.6.5-1.3.7-2.1.6v-.9c1.1.3,1.7-.1,1.8-1.2-1.1.2-2-.1-2.6-.9h0Z"/>
  <path class="st0" d="M264.2,130.5h-1.5c0,.5,0,.9-.4,1.2-.4-.5-.7-1.1-1-1.6-.3-.1-.6-.2-.9-.1,0,.4,0,.8-.3,1.2-.2,0-.3-.1-.3-.3,0-.7.4-1.1,1-1.2.6.2,1.2.4,1.8.6.5-.3,1.1-.4,1.6-.6v.9h0Z"/>
  <path class="st0" d="M83.3,129.9c1.9-.1,3.7.2,5.3,1.2,2.4,2.1,4.9,3.9,7.7,5.6.3.2.4.5.3.9-1.9.4-3.8.1-5.6-.6.2-.4.5-.6.9-.9-.5-.4-1-.8-1.6-1.2l-.3-1.2c-1.5-.2-2.9-.8-4.3-1.6-.3-.4-.4-.8-.3-1.3-1.2.5-2.5.9-3.8,1.2.2-1.1.8-1.7,1.8-2.1Z"/>
  <path class="st0" d="M77.7,133.7v-1.5c-1.1,0-2.2.2-3.2.3,0,.7,0,1.4.3,2.1-.2.3-.5.4-.9.3,0,.7-.2,1.3-.6,1.9-.8.2-1.4.6-1.8,1.3-.3-.2-.4-.5-.3-.9-.7,0-1.4,0-2.1.3.3.4.6.8.9,1.2-.2.1-.4.2-.6.3-.5-.6-1-.9-1.8-.9,0,.5-.2.9-.6,1.2,1.1.2,2.2.4,3.2.6-.1.3-.2.6-.3.9,1,.9,1.4,2.1,1.2,3.5-.7-1.4-1.6-2.8-2.7-4-.8.4-1.7.5-2.7.6-.8-.5-1.5-1.1-2.1-1.9,1.4-.1,2.5-.7,3.4-1.8.2-.6.2-1.2,0-1.8-.6-.6-.9-1.4-.7-2.4.5.8.9,1.7,1.3,2.6.3.6.8.8,1.5.9.9-.1,1.9-.3,2.8-.6.6-.4,1-1,1.2-1.8.3-.7.5-1.5.6-2.4,1.5-.2,2.9-.3,4.4-.3,0,.6,0,1.2-.2,1.8-.1.2-.3.3-.4.3h0Z"/>
  <path class="st0" d="M210.4,135.8v2.1c-.7.1-1.4.2-2.1.3,0,.4,0,.6-.3.9-.6-.3-1.2-.4-1.8-.1.2.2.3.5.3.7-.4.9-.8,1-1.3.3-1,.4-1.4,1.1-1.2,2.1-.9.6-1.9,1.2-2.8,1.8,0-.5.1-1,.4-1.5,1.3-.9,2.4-2,3.1-3.4,2.3-.4,4.1-1.4,5.6-3.1h0Z"/>
  <path class="st0" d="M89.8,139.9c1.2-.6,2.2-.3,2.9.9-1.3.5-2.3.2-2.9-.9Z"/>
  <path class="st0" d="M98,138.1c1.9.3,3.8.8,5.6,1.3.7.7,1.3,1.3,2.1,1.9-1.7.1-3.3.4-4.8.9-.4-.4-1-.8-1.6-1-1,0-2,0-2.9,0-.2-.3-.4-.6-.6-.9,1.1.1,2.2,0,3.2-.1-.2-.7-.5-1.4-.9-2.1h0Z"/>
  <path class="st0" d="M107.7,142.2c.8,0,1.6,0,2.3.1.4.4.3.7-.3.9-1.1.4-1.8,0-2.1-1Z"/>
  <path class="st0" d="M267.1,126.4c.4,2.2.7,4.4.7,6.8.2,8.9-.4,17.7-2.1,26.5-.5,2.4-1.2,4.8-1.9,7.1,0-.9,0-1.8-.3-2.6,0-2.4.2-4.7.6-7.1-.5-2.8-.7-5.7-.6-8.5.5-.2.7-.6.6-1.2h-.9c0-.7,0-1.4-.3-2.1-.8-.5-.8-1.1,0-1.6-.5-.2-.9,0-1.2.4-.3,1.2-.2,2.4.3,3.5.1,1.9.2,3.7.3,5.6-.2-.9-.4-1.9-.6-2.9-.3-.1-.5-.3-.7-.6,0-2-.3-4-.7-5.9.4,0,.8,0,1.2-.3-.5-.7-1.2-1.2-2.1-1.5-1.2.2-1.4.8-.6,1.6-.2,0-.4.1-.6.1-.8-.6-1.7-.9-2.6-.9v-.9h-.9c0-.5,0-1,.1-1.5.6.4,1.2.8,1.8,1.2.9,0,1.1-.3.7-1-1.7-.9-3.2-2.1-4.4-3.5-1.2-.3-1.8.1-1.6,1.3,1,.4.9.6-.1.6,0,1.6-.8,2.1-2.4,1.8v-.9c.5.6,1,.7,1.6.3.3-1,.5-2.1.6-3.2.9-.7,1.8-.8,2.8-.1,1,1.3,2.3,2.3,3.8,2.9.5.8,1.2,1.2,2.1,1.2.3-.4.7-.7,1.2-.7.6.4,1.2.6,1.8.7.4-.6.6-1.2.7-1.9.2-2.5.5-4.9.7-7.4,0,3.6,0,7.1,0,10.6,0,.5-.3.9-.6,1.2.4.3.7.4,1.2.3-.1-1.6,0-3.1.3-4.7.2,2.1.4,4.1.4,6.2,1.4-6.2,1.9-12.5,1.6-18.8h0Z"/>
  <path class="st0" d="M77.7,133.7c-.3,1.9-.9,3.6-1.8,5.3-.2,1.1-.3,2.2-.6,3.2,1.9,0,3.7.2,5.6.4.3.5.6.9.9,1.3,0,.8,0,1.6-.2,2.4-.2.4-.4.4-.6,0,0,1.1,0,2.2-.2,3.4,0,1.3.2,2.5.6,3.7-.2.3-.5.4-.9.3-.7-.1-1.3-.5-1.8-1-.2-1.9-.9-3.5-2.2-4.9-.1-.3-.2-.6-.2-.9-.5,0-1,0-1.5-.1-1.2-1-2.5-1.8-3.8-2.5.2-1.4-.2-2.6-1.2-3.5,0-.3.2-.6.3-.9-1.1-.2-2.2-.4-3.2-.6.4-.3.6-.7.6-1.2.7,0,1.3.3,1.8.9.2-.1.4-.2.6-.3-.3-.4-.6-.8-.9-1.2.7-.3,1.3-.4,2.1-.3,0,.4,0,.6.3.9.4-.7,1-1.2,1.8-1.3.3-.6.5-1.2.6-1.9.3,0,.6,0,.9-.3-.3-.7-.4-1.4-.3-2.1,1.1-.1,2.2-.2,3.2-.3v1.5h0Z"/>
  <path class="st0" d="M263.6,148.4h-.3c.1-.7-.2-1.1-.9-1.2-.2-1.1-.4-2.2-.6-3.2.2-.5.6-.7,1.2-.4-.8.5-.8,1.1,0,1.6.3.7.4,1.4.3,2.1h.9c.1.6,0,1-.6,1.2h0Z"/>
  <path class="st0" d="M102.4,154c-.5.3-1.1.5-1.8.6v1.5h.9c0,.6-.3,1.1-.9,1.5-1.4.5-2.2,0-2.3-1.5.2-1,.3-1.9.3-2.9h-2.7c1.1-.1,2.1-.6,2.9-1.3.7-.3,1.2,0,1.5.6-.2.4-.5.6-.9.7-.2,1.1-.5,2.1-.9,3.1.2.8.7,1.1,1.5,1-.1-1.1-.2-2.1-.3-3.2,1.1.2,1.9-.2,2.3-1.2.3.4.4.7.3,1.2h0Z"/>
  <path class="st0" d="M102.7,154h1.8c0,.5,0,1,.3,1.5-.4,0-.7-.3-.9-.6-.2.8-.4,1.6-.6,2.4-.2-.1-.3-.4-.4-.6-.2-.9-.2-1.8-.2-2.6h0Z"/>
  <path class="st0" d="M81.8,144c.4.2.6.5.6,1-.7,2.4-.9,4.8-.7,7.2.8.9,1.6,2,2.2,3.1,1.3-.1,2.6-.2,3.8-.3,1.3.4,2.3,1.2,3.2,2.2,1.3-.8,2.2-2,2.7-3.5.5.2,1,.3,1.5.3,0,.5,0,1-.2,1.5-.3-.3-.7-.4-1-.1-.4.9-1,1.7-1.8,2.4.5.6.4.9-.3,1.2.2.2.3.5.3.7-.6,1.8-1.1,3.5-1.5,5.3-.2-1.6-.3-3.1-.4-4.7-.6-1.3-1.1-2.5-1.6-3.8-1.2-.5-1.9-.2-2.3,1,.4.9,0,1.1-.9.9-.9-.9-2-1.6-3.2-2.1-.6-.8-1.1-1.6-1.5-2.5.3,0,.6,0,.9-.3-.4-1.2-.6-2.4-.6-3.7,0-1.1,0-2.3.2-3.4.2.4.4.4.6,0,.2-.8.2-1.6.2-2.4h0Z"/>
  <path class="st0" d="M96,153.1h2.7c0,1,0,2-.3,2.9.1,1.5.9,2,2.3,1.5.5-.4.8-.8.9-1.5h-.9v-1.5c.6,0,1.2-.3,1.8-.6h.3c0,.9,0,1.8.2,2.6,0,.2.2.4.4.6.2-.8.4-1.6.6-2.4.2.3.5.5.9.6,1.1.5,2.4.8,3.7.9.3.1.4.3.4.6-.3.5-.8.7-1.5.7,2,.3,3.9.1,5.7-.4.2.1.5.2.7.3-.4.4-.4.9,0,1.3.8.1,1.6.2,2.3.1,0,1.1-.7,1.4-1.8,1-.2-.2-.3-.4-.6-.4-.4.3-.4.6,0,.9,2.4.9,2.3,1.5-.3,1.8,1.1.3,2.2.2,3.2-.3.8.2,1.5.2,2.3,0,.4,0,.7.2.9.6-.3,0-.5.1-.6.4.4.6.6,1.2.6,1.9h1.2c.2.9.7,1.7,1.5,2.4,1.6,0,3.3,0,5,0,.6,0,1.1.2,1.5.6,2.8,1.1,4.2,3.2,4.3,6.2.5.4.9.9,1.3,1.5-1.4,1.3-2.8,2.6-4.1,4,0,.1.2.2.3.1-.3.2-.6.5-.9.9,1.6.5,3.3.6,5,.3,1,0,1.8-.4,2.4-1.3.2,0,.5-.1.7-.1.7.3,1.4.6,2.2.9.7.4,1.5.8,2.4,1.2.2.7.4,1.4.4,2.1.7-.3,1.4-.4,2.2-.1,1.8.8,3.6,1.2,5.6,1.5.4.6.9,1.1,1.5,1.6,0,.3,0,.5.3.7-.4.5-.6,1-.6,1.6h-.9v1.2c.7-.5,1.5-.9,2.4-1.2v1.5c-.4,0-.8,0-1.2.3,1.2.2,2.3-.2,3.2-1.2.8.4,1.3,1.1,1.5,2.1-.5,1-.7,2.1-.6,3.2-.9,1.4-2.2,2.3-3.8,2.6-.3,1.7-1.3,2.7-2.9,2.9h-.9c-.4,1.9-.7,3.9-.9,5.9h-.9c0,1.1-.2,2.2-.6,3.2,0,.2-.1.3-.3.3-.6,0-.9.2-1.2.7-.7.1-1.4.2-2.1.1,0,.6-.2,1.1-.7,1.5-1-.4-2.1-.4-3.1,0-.8.3-1.5.7-2.1,1.2-.5.6-1.2,1-2.1,1.2-.3,0-.5,0-.7.3-.1.8-.2,1.6-.3,2.4,0-.7-.3-1.4-.6-2.1-.4.2-.6.5-.7.9.8,1,.8,2,0,2.9-1.4.3-2.7.4-4.1.3v.9h-.9c0,.7,0,1.4.3,2.1.5-.9,1.2-1.6,2.1-2.2.6-.4,1.2-.4,1.8,0-.5.6-1.1,1.1-1.8,1.6-.3.8-.4,1.5-.3,2.4-1,0-1.9.1-2.8.6-1.6-.5-3.2-.7-4.8-.4,1,0,1.9.3,2.7.7.2,0,.4.2.6.4-4.4.9-8.8,2-13.1,3.4-.7-.9-1.4-1.8-2.1-2.6,0-2.7-.3-5.2-1.3-7.6-.8-4.4-1.4-8.8-1.8-13.2h-.9c-.4-1.4-.9-2.9-1.5-4.4-2.7-2.2-5.5-4.3-8.4-6.5-2.3-4.6-5-8.9-8.1-12.9.4-.2.4-.4,0-.7,1.2-.4,1.4-1.2.7-2.2-.4.4-.5.9-.4,1.5h-1.2c0-.5,0-1,.2-1.5.8-.5.9-1.1.2-1.6.6-.5,1.1-1.1,1.5-1.8.3-.1.6-.2.9-.1,0-.4,0-.8-.2-1.2-.7.5-1.6.8-2.5.9,0-.9,0-1.9-.3-2.8.6-.6.9-1.3.9-2.2h.9v-2.1c1-.5,1.6-1.2,1.8-2.4.4-1.8.9-3.5,1.5-5.3,0-.3-.1-.5-.3-.7.7-.2.8-.6.3-1.2.8-.7,1.3-1.4,1.8-2.4.4-.2.7-.1,1,.1.1-.5.2-1,.2-1.5-.5,0-1-.1-1.5-.3,0-.3.3-.5.6-.6.6.2,1.2.2,1.8,0h0Z"/>
  <path class="st0" d="M119.2,161.9c-.8.2-1.6.2-2.3,0-1.1.5-2.1.6-3.2.3,2.6-.2,2.7-.8.3-1.8-.4-.3-.4-.6,0-.9.2,0,.4.2.6.4,1.1.4,1.7,0,1.8-1-.8,0-1.6,0-2.3-.1-.4-.4-.4-.9,0-1.3-.2-.1-.5-.2-.7-.3-1.9.6-3.8.7-5.7.4.7,0,1.2-.3,1.5-.7.8.4,1.6.4,2.3-.1,1.2-.3,2.4-.2,3.5.3-.4.1-.6.4-.4.7.8.4,1.7.8,2.5,1.2.4.8.2,1.4-.6,1.9.8.1,1.6.2,2.3.3.3.2.5.4.6.7h0Z"/>
  <path class="st0" d="M263.6,164c.3.8.4,1.7.3,2.6,0,.7-.1,1.4-.3,2.1-.2.7-.5,1.4-.7,2.1.1-2.3.4-4.5.7-6.8h0Z"/>
  <path class="st0" d="M120.1,162.5c.7.5,1,1.2.9,2.1,1.1,0,1.7.5,2.1,1.5,1.7.1,3.2.5,4.7,1.2-1.7,0-3.4,0-5,0-.8-.6-1.2-1.4-1.5-2.4h-1.2c0-.7-.1-1.4-.6-1.9,0-.3.3-.4.6-.4h0Z"/>
  <path class="st0" d="M196,167.5c.4,1.1,1,2,2.1,2.6.3,1.4.4,2.7.3,4.1-.2-.8-.4-1.7-.4-2.6-.7-1.1-1.4-2.2-2.1-3.2-.2-.4-.2-.7.1-.9h0Z"/>
  <path class="st0" d="M136.6,179.3c-.3.7-.8.9-1.5.9-.2-.8-.6-1.1-1.5-.9v.9h-1.2v-.9c.7,0,1.3-.3,1.8-.9.8.4,1.5.7,2.4.9h0Z"/>
  <path class="st0" d="M88.9,167.2v2.1h-.9c0,.9-.3,1.6-.9,2.2.2.9.3,1.9.3,2.8.9,0,1.8-.3,2.5-.9.1.4.2.8.2,1.2-.3,0-.6,0-.9.1-.4.7-.9,1.3-1.5,1.8.7.6.7,1.1-.2,1.6-.2.5-.2,1-.2,1.5h1.2c0-.6,0-1.1.4-1.5.7,1,.5,1.8-.7,2.2.4.3.4.5,0,.7-.4-.2-.7-.5-1-.9-.2-.9-.5-1.8-1-2.6.4-.9,1-1.6,1.8-2.1-.4-.4-.8-.8-1.3-1.2-.4-2.3.2-4.2,1.8-5.9,0-.5.2-.9.4-1.2h0Z"/>
  <path class="st0" d="M227.1,184.3h-3.8c0-1,0-2-.1-2.9-.3-.5-.7-.9-1.3-1-1.2-.2-2.4-.2-3.5,0-1.7.7-3.4,1.2-5.3,1.3-.8-.1-1.5-.4-2.1-.9,2.2.3,4.2-.1,6-1.2,2.3.2,4.6.4,6.9.6-.3.8-.2,1.5.3,2.1-.3.4-.3.8-.1,1.2,1.1.1,2.1.4,3.1.9Z"/>
  <path class="st0" d="M136.6,179.3c-.8-.2-1.6-.5-2.4-.9-.4.6-1,.9-1.8.9v.9h1.2v-.9c.8-.2,1.3.1,1.5.9v.6c-1.7.3-3.4.2-5-.3.2-.4.5-.7.9-.9,1.2-.2,2.2-.8,2.9-1.8,1,.2,1.9.3,2.9.3,0,.5,0,.9-.3,1.2h0Z"/>
  <path class="st0" d="M152.4,186.4c1.4,1.6,3.1,2.5,5.1,2.9.4,1.9,0,3.7-1,5.3,0-1.1.1-2.2.6-3.2-.1-.9-.6-1.6-1.5-2.1-.9.9-2,1.3-3.2,1.2.4-.3.7-.4,1.2-.3v-1.5c-.9.3-1.6.7-2.4,1.2v-1.2h.9c0-.6.2-1.1.6-1.6-.2-.2-.3-.4-.3-.7h0Z"/>
  <path class="st0" d="M149.8,200.2c-.5,1.3-.7,2.7-.7,4.1-.7,1.3-1.2,2.7-1.5,4.1-.3.4-.6.6-1,.9.4-1,.6-2.1.6-3.2h.9c.2-2,.5-4,.9-5.9h.9Z"/>
  <path class="st0" d="M106.3,204.9h.9c.3,4.5.9,8.9,1.8,13.2-.5-.6-.8-1.3-1-2.1-.3-1.6-.5-3.3-.6-5-.1-1-.4-2-.9-2.9-.2-1.1-.2-2.1-.2-3.2h0Z"/>
  <path class="st0" d="M146.3,209.6c-.5.5-.9,1.1-1,1.8-.3.4-.6.6-1,.7-2.4,0-4.8.3-7.1,1,.6-.5,1.3-.9,2.1-1.2,1-.4,2.1-.4,3.1,0,.6-.3.8-.8.7-1.5.7,0,1.4,0,2.1-.1.2-.5.6-.8,1.2-.7h0Z"/>
  <path class="st0" d="M233,215.5c-2.1.6-4.2,1.1-6.5,1.5-3.1.6-6.2,1-9.4,1.2v-.9c3.1-.5,6.2-.7,9.4-.6v-.9c2.2,0,4.3,0,6.5-.3h0Z"/>
  <path class="st0" d="M135.1,214.3c-.2,1.5-.4,2.9-.7,4.4-1.2.6-1.9,1.5-2.2,2.8-.5.2-1,.5-1.5.7-.2.6-.5,1.1-.9,1.5,0-.8,0-1.6.3-2.4.6-.5,1.2-1,1.8-1.6-.5-.4-1.1-.4-1.8,0-.9.6-1.5,1.3-2.1,2.2-.3-.7-.4-1.4-.3-2.1h.9v-.9c1.4,0,2.8,0,4.1-.3.8-1,.8-1.9,0-2.9.1-.4.4-.7.7-.9.3.6.5,1.3.6,2.1.1-.8.2-1.6.3-2.4.2-.2.4-.3.7-.3h0Z"/>
  <path class="st0" d="M129.8,223.7c0,.2-.1.3-.3.4-1,.2-2,.5-2.9.7-.5-.1-1-.3-1.5-.6-.2,0-.3.1-.3.3-.8-.5-1.7-.7-2.7-.7,1.7-.2,3.3-.1,4.8.4.9-.4,1.8-.6,2.8-.6h0Z"/>
  <path class="st1" d="M40.9,303.1c-6,6-14.2,6.9-18.3,5.8,8.5-50.6,57.6-70,48.9-68.9-36.6,4.8-61.9-7.6-66.8-41.7-5.8-39.7,42.5-74,42.4-71.6-3.4,84.5,62.8,107.9,59.4,108.9-61.8,17.6-63.1,65.1-65.5,67.5h0Z"/>
  <path class="st1" d="M181,226.4c-45.1,0-80.6,11.9-102.3,23.4,4.8,6.1,34.3,39,116,18.8,73-18,94.2-78,92.8-76.5-27.8,30.4-58.3,34.3-106.5,34.3h0Z"/>
  <path class="st1" d="M302.9,26.1s-23.4,30.7-57.2,35.3c55,57.8,18.8,135-5,154.6-7.9,6.5,42.8-13.2,50-32.6,29.8-80.8,12.4-150.9,12.2-157.3Z"/>
  <g class="st2">
    <text/>
    <g>
      <path class="st1" d="M498.3,263.7h-43.2v-69.5h-57.5v69.5h-43.2V90.2h43.2v67.7h57.5v-67.7h43.2v173.5Z"/>
      <path class="st1" d="M614.1,87.4c7.6,0,15,.8,22.3,2.5,7.3,1.7,14.1,4.2,20.6,7.5,6.4,3.3,12.3,7.5,17.8,12.4,5.4,4.9,10.1,10.7,14,17.2,3.9,6.6,7,13.9,9.2,22,2.2,8.1,3.2,17,3.2,26.7s-1.1,19.2-3.3,27.6c-2.2,8.4-5.3,15.9-9.2,22.6-3.9,6.7-8.7,12.6-14.2,17.7-5.5,5.1-11.6,9.3-18.2,12.7-6.6,3.4-13.7,5.9-21.2,7.6-7.5,1.7-15.3,2.6-23.3,2.6s-15-.9-22.3-2.6c-7.3-1.7-14.2-4.2-20.6-7.5-6.5-3.3-12.4-7.4-17.8-12.3-5.4-4.9-10.1-10.7-14-17.2-3.9-6.5-7-13.9-9.2-22-2.2-8.1-3.3-17-3.3-26.7s1.1-19.1,3.4-27.5c2.2-8.4,5.4-16,9.3-22.7,4-6.7,8.7-12.6,14.3-17.7,5.5-5.1,11.6-9.3,18.2-12.7,6.6-3.4,13.7-5.9,21.2-7.6,7.5-1.7,15.3-2.6,23.3-2.6ZM612.4,124.5c-5.5,0-10.9,1.1-16.2,3.3s-9.9,5.5-14,9.8c-4.1,4.4-7.3,9.8-9.8,16.2-2.5,6.5-3.7,14-3.7,22.5s1.2,16.7,3.7,23.4c2.5,6.6,5.8,12.1,9.9,16.5,4.1,4.4,8.9,7.6,14.2,9.8s11,3.2,16.8,3.2,10.9-1.1,16.1-3.2c5.2-2.2,9.9-5.4,14-9.8,4.1-4.4,7.4-9.8,9.8-16.2,2.4-6.5,3.7-14,3.7-22.6s-1.2-16.7-3.7-23.4c-2.4-6.6-5.7-12.1-9.9-16.5-4.2-4.4-8.9-7.6-14.2-9.8-5.3-2.2-10.9-3.2-16.8-3.2Z"/>
      <path class="st1" d="M926.5,90.2c2.5,15.8,4.7,31.1,6.6,45.9,1.9,14.8,3.4,29.4,4.7,43.6,1.3,14.3,2.3,28.4,3,42.3.7,13.9,1.3,27.8,1.7,41.6h-43.5c-.4-11.3-.9-22.6-1.5-33.8-.6-11.2-1.2-22.3-2-33.3s-1.6-21.8-2.6-32.5c-1-10.7-2.1-21.2-3.4-31.6l-34.7,131.1h-46.1l-34.5-131.3c-1.4,10.3-2.5,20.8-3.5,31.5-1,10.7-1.8,21.6-2.6,32.7-.8,11-1.4,22.2-1.9,33.4-.5,11.2-.9,22.5-1.3,33.8h-42.4c.4-13.8,1-27.7,1.8-41.6.8-13.9,1.8-28,3-42.3,1.2-14.3,2.8-28.8,4.6-43.6,1.9-14.8,4.1-30.1,6.7-45.9h61.2l33,124.3,33-124.3h60.7Z"/>
      <path class="st1" d="M1077,125.9h-63.2v32.6h59.1v35.6h-59.1v33.9h63.2v35.6h-106.4V90.2h106.4v35.6Z"/>
      <path class="st1" d="M1109.6,217.9c6.4,4.2,13.1,7.3,20.1,9.6,7,2.2,13.9,3.4,20.6,3.4s6.6-.3,9.3-1,5-1.6,6.8-2.8c1.9-1.2,3.3-2.7,4.2-4.5.9-1.8,1.3-3.8,1.3-6.1s-1.1-6-3.2-8.4c-2.1-2.4-4.9-4.6-8.3-6.7-3.4-2-7.3-4-11.8-6s-9-4-13.5-6.3c-4.6-2.2-9.1-4.8-13.6-7.7-4.4-2.9-8.4-6.3-11.8-10.1-3.5-3.9-6.2-8.4-8.4-13.6-2.1-5.2-3.2-11.3-3.2-18.2s1.5-15.3,4.4-21.7c2.9-6.4,7.1-11.9,12.5-16.5,5.4-4.6,11.8-8,19.4-10.4,7.6-2.4,16.1-3.6,25.5-3.6s17.5,1,25,3.1c7.5,2.1,14.6,5.1,21.4,9.1l-9.6,33.9c-5.8-3.3-11.7-6-17.7-7.9-6-1.9-12.1-2.9-18.3-2.9s-5.5.3-7.9.9-4.4,1.5-6.1,2.6c-1.7,1.1-3,2.5-3.9,4.2-.9,1.7-1.4,3.6-1.4,5.8s1.1,5.7,3.2,7.9c2.1,2.3,4.9,4.4,8.4,6.3,3.5,2,7.4,3.9,11.8,5.7,4.4,1.9,8.9,3.9,13.5,6.2,4.6,2.3,9.1,4.8,13.6,7.7,4.4,2.8,8.4,6.3,11.8,10.3,3.5,4,6.2,8.6,8.4,13.9,2.1,5.3,3.2,11.5,3.2,18.6s-1.6,15.5-4.8,22.1-7.6,12.2-13.2,16.8c-5.7,4.6-12.4,8.2-20.3,10.7-7.9,2.5-16.5,3.8-25.8,3.8s-19.6-1.2-27.8-3.6c-8.2-2.4-15.8-6-22.7-10.8l9-34.2Z"/>
      <path class="st1" d="M1322.6,87.4c7.6,0,15,.8,22.3,2.5,7.3,1.7,14.1,4.2,20.6,7.5,6.4,3.3,12.3,7.5,17.8,12.4,5.4,4.9,10.1,10.7,14,17.2,3.9,6.6,7,13.9,9.2,22,2.2,8.1,3.2,17,3.2,26.7s-1.1,19.2-3.3,27.6c-2.2,8.4-5.3,15.9-9.2,22.6-3.9,6.7-8.7,12.6-14.2,17.7-5.5,5.1-11.6,9.3-18.2,12.7s-13.7,5.9-21.2,7.6-15.3,2.6-23.3,2.6-15-.9-22.3-2.6c-7.3-1.7-14.2-4.2-20.6-7.5-6.5-3.3-12.4-7.4-17.8-12.3s-10.1-10.7-14-17.2c-3.9-6.5-7-13.9-9.2-22-2.2-8.1-3.3-17-3.3-26.7s1.1-19.1,3.4-27.5,5.4-16,9.3-22.7c4-6.7,8.7-12.6,14.3-17.7,5.5-5.1,11.6-9.3,18.2-12.7,6.6-3.4,13.7-5.9,21.2-7.6,7.5-1.7,15.3-2.6,23.3-2.6ZM1320.9,124.5c-5.5,0-10.9,1.1-16.2,3.3-5.2,2.2-9.9,5.5-14,9.8-4.1,4.4-7.3,9.8-9.8,16.2s-3.7,14-3.7,22.5,1.2,16.7,3.7,23.4c2.5,6.6,5.8,12.1,9.9,16.5,4.1,4.4,8.8,7.6,14.2,9.8s11,3.2,16.8,3.2,10.9-1.1,16.1-3.2c5.2-2.2,9.9-5.4,14-9.8s7.4-9.8,9.8-16.2c2.4-6.5,3.7-14,3.7-22.6s-1.2-16.7-3.7-23.4c-2.4-6.6-5.7-12.1-9.9-16.5-4.2-4.4-8.9-7.6-14.2-9.8-5.3-2.2-10.9-3.2-16.8-3.2Z"/>
      <path class="st1" d="M1574.8,198.7c0,10.7-1.6,20.2-4.9,28.6-3.3,8.4-8,15.5-14.2,21.3-6.2,5.8-13.7,10.3-22.6,13.3-8.9,3.1-19,4.6-30.3,4.6s-20.4-1.5-29-4.4c-8.6-2.9-15.9-7.2-21.8-12.9-5.9-5.7-10.5-12.6-13.7-20.7-3.2-8.1-4.8-17.5-4.8-28v-110.4h43.2v108.9c0,5.4.7,10,2.1,13.8,1.4,3.8,3.4,7,5.9,9.4,2.5,2.4,5.5,4.2,8.9,5.3,3.4,1.1,7.1,1.6,11.1,1.6s7.7-.5,11.1-1.6c3.4-1.1,6.4-2.8,8.9-5.2,2.5-2.4,4.5-5.3,5.9-8.8,1.4-3.5,2.1-7.8,2.1-12.6v-110.7h42v108.5Z"/>
      <path class="st1" d="M1647.3,227.3h56.6v36.4h-99.9V90.2h43.2v137.1Z"/>
    </g>
  </g>
</svg>