<?xml version="1.0" encoding="UTF-8"?>
<svg id="Layer_1" data-name="Layer 1" xmlns="http://www.w3.org/2000/svg" viewBox="0 0 1491.07 353">
  <defs>
    <style>
      .cls-1 {
        fill-rule: evenodd;
      }

      .cls-1, .cls-2 {
        fill: #00a171;
      }

      .cls-3 {
        isolation: isolate;
      }
    </style>
  </defs>
  <path class="cls-1" d="M148,27.8c3.4,0,6.9,0,10.3.1.8,0,1.6.2,2.4.4-4.7-.5-9.4-.4-14.1.3.4-.4.9-.7,1.5-.9h0l-.1.1Z"/>
  <path class="cls-1" d="M160.7,28.4c1,0,1.8.3,2.4,1,0,.1-.2.2-.3.1-1,.1-2,.4-2.9.6-.6,0-1.1,0-1.5.3-1.2.1-2.4.2-3.5.3-1.4,0-2.9.2-4.3.6-.5-.2-1-.4-1.5-.6-1.4.4-2.8.5-4.3.3.3-.2.6-.4.9-.4,2.4-.1,4.7-.3,7.1-.6-.9-.3-1.9-.5-2.8-.7-1.1.2-2.2.3-3.4.3v-.9c4.7-.6,9.4-.8,14.1-.3h0Z"/>
  <path class="cls-1" d="M146.6,28.7v.9c1.1,0,2.3-.1,3.4-.3.9.2,1.9.4,2.8.7-2.4.2-4.7.5-7.1.6-.3,0-.6.2-.9.4,1.4.2,2.8.1,4.3-.3.5.2,1,.4,1.5.6,1.4-.4,2.8-.6,4.3-.6-1.9.8-3.9,1-6,.6-.1.4-.2.8-.1,1.2-1.8.4-3.5.8-5.3,1.2-.4.4-.9.7-1.5.9,0-.6.2-1.2.6-1.6-.1-.2-.2-.3-.3-.4-.8.1-1.5.1-2.4,0,.2-.4.5-.7.9-1,1.1,0,2.2-.1,3.2-.1-1.8-.4-3.5-.3-5.1.3-.5,0-.8-.2-1-.6,0-.2.1-.3.3-.3,1-.5,2-1,2.9-1.6,1.6-.6,3.3-.8,5-.6l-1.5,1.5c.1,0,.2.1.3.1.8-.3,1.4-.8,1.8-1.5h0l-.1-.1Z"/>
  <path class="cls-1" d="M166.6,30.2c.5,0,.9.3,1.3.6.7-.7,1.4-.7,2.2,0,.4-.1.4-.2,0-.4,2.6-.2,5.1-.2,7.6,0,1,.1,1.9.5,2.6,1-1.3,0-2.6,0-3.8.1.9.3,1.9.5,2.9.6-.7,0-1.4.2-2.1.3-.2.2-.4.5-.6.7,1,.2,2,.5,2.9.9.2-.1.5-.2.7-.3,1.2.6,2.4,1.1,3.7,1.5v-.9h3.2v.9c0,1.1-.5,2.2-1.2,3.2-.2.6-.3,1.2-.3,1.8.5,0,1,0,1.5.2-.9.8-2,1.2-3.2,1.3.5.2.9.4,1.5.4.2.3.3.6.3,1-.6,0-1.2,0-1.8.3.2,0,.5.2.7.3,1.3-.5,2.6-.6,4-.6.1.9,0,1.7-.6,2.3,0,.2.2.3.3.4-.5.3-1.1.5-1.8.4h-1.5v.9c-.4,0-.8,0-1.2.3,1.4,0,2,.7,1.8,2.1-.6-.2-1.2-.2-1.8-.2.5.2.9.4,1.2.7v.3c-.2.5-.6.7-1.2.7.6.2,1.2.2,1.8.2-.3.5-.9.8-1.8,1,.6.2,1.2.2,1.8.2-.2.5-.6.7-1.2.6v.9c1.1-.2,2.2-.5,3.2-.9v1.2c-.7.3-1.4.7-2.1,1-1.8,0-3.5.3-5.1.7-.5-.2-.9-.4-1.3-.6-1,.6-2,1.4-2.9,2.5-.4.2-.8.4-1.2.6-1.2.1-2.3.5-3.4,1v-1.5c-.1.3-.3.5-.4.7-1.3,0-2.4.5-3.5,1-.4,0-.8,0-1.2.2.5,1.1.3,2.1-.7,2.8-.1.3-.2.6-.1.9h-2.1c0,1.5-.4,2.8-1.3,3.8-.1,0-.2-.2-.3-.3-.1.4-.2.8-.1,1.2h-1.5c-.2-.5-.5-1-.9-1.5-1.2-.3-2.3-.4-3.5-.3-.9-2.4-1.8-4.7-2.6-7.1.5-.3.9-.5,1.5-.6.4-1,.3-1.9-.3-2.8-.4-.1-.8-.2-1.2-.2-.1-.8,0-1.4.6-1.9-.6-.5-.7-1-.3-1.6.7-.2,1.4-.5,2.1-.9.2.9.5,1,.9.3.5-.5,1.1-.7,1.8-.6,0,.9.3,1.4,1.2,1.5.7-1.1.4-1.7-.9-1.9-.2-.2-.3-.5-.3-.7.3-.5.6-1,.9-1.5-.5-.3-1.1-.3-1.6,0-.5-.2-.5-.5-.1-.9.3,0,.6,0,.9-.2-.9-.5-1.2-1.2-1.2-2.2-.6,0-1.2.2-1.8.6-.5-.2-.9-.5-1.2-.9,1.4-.9,2-2.2,1.8-4,.2-1.5-.3-2.8-1.5-3.7,0-.5-.2-.8-.6-1-1.5-.2-2.9,0-4.4.2h-1.8c0-.5.1-.8.6-1-.2,0-.4-.2-.6-.4,1.3-.3,2.5-.4,3.8-.3,1.4,0,2.8-.1,4.1-.3v-.9c-1.7,0-3.4,0-5.1.3-.3,0-.6-.2-.7-.4,2-.3,3.9-.6,5.9-1,.2-.4.2-.9,0-1.5.9,0,1.6-.3,2.4-.6,1.1.2,2.2.2,3.2,0,1.6-.3,3.3-.4,5-.3h0v.3Z"/>
  <path class="cls-1" d="M139.8,32.5c0,.3,0,.5-.3.7.5.2,1,.2,1.5.2v1.2h.9c-.6.2-1.2.4-1.8.6h-.9v-.9c-1.5,0-3-.2-4.4-.6-.1-.2-.2-.4-.3-.6h.3c.9,0,1.8,0,2.6-.2.6-.9,1.2-.9,1.9-.2.1-.2.3-.3.4-.3h0l.1.1Z"/>
  <path class="cls-1" d="M139.8,32.5c.8.1,1.6.1,2.4,0,.1.2.2.3.3.4-.4.5-.6,1-.6,1.6h-.9v-1.2c-.5,0-1,0-1.5-.2.2-.2.3-.4.3-.7h0v.1Z"/>
  <path class="cls-1" d="M180.4,31.4c.7.3,1.4.5,2.1.7-.4,0-.7.2-1,.4-.2.2-.1.4.1.6.6-.2,1.1-.3,1.8-.3,0,.4,0,.8.3,1.2,1.4-.3,2.7-.4,4.1-.2.4.6.3,1-.3,1.3v-.9h-3.2v.9c-1.3-.4-2.5-.9-3.7-1.5-.3,0-.5.2-.7.3-.9-.4-1.9-.7-2.9-.9.1-.3.3-.5.6-.7.7,0,1.4-.2,2.1-.3-1,0-2-.2-2.9-.6,1.3-.1,2.5-.2,3.8-.1h0l-.2.1Z"/>
  <path class="cls-1" d="M156,32.5c-1.9.4-3.9.8-5.9,1,.2.3.4.4.7.4,1.7-.3,3.4-.4,5.1-.3v.9c-1.4.2-2.7.3-4.1.3-.7-.2-1.5-.4-2.4-.4-.5-.5-.6-.9-.1-1.3,2.2-.2,4.4-.5,6.6-.6h.1Z"/>
  <path class="cls-1" d="M137.7,35.2c0,.2.1.3.3.3.4.3.4.7,0,1-.8.5-1.7.7-2.6.7-2.2-.3-4.3-.7-6.5-1.2.4-.4.7-.9.9-1.5,1.4,0,1.8-.8,1.2-2.1.9,0,1.8,0,2.5.6,0,.6-.2,1.1-.7,1.5.1.2.4.3.6.4,1.5.2,2.9.2,4.4.2h0l-.1.1Z"/>
  <path class="cls-1" d="M154.8,37.5c-1.7-.4-3.3-.7-5-.9,1.5-.2,2.9-.3,4.4-.2.4.2.6.6.6,1v.1Z"/>
  <path class="cls-1" d="M133,38.1h.3c.9.5,1.8.8,2.9.9.3.2.4.5.3.9-2.2-.1-2.3.3-.1,1.2,0,.6.2,1.2.4,1.8.2,0,.3-.1.3-.3,1,0,1.4.4,1.2,1.2-.2-.3-.5-.5-.9-.6-.2.4-.5.5-.9.4-.9-.6-1.4-1.4-1.3-2.5-.5-.2-1.1-.4-1.6-.6-.1-.5-.3-1-.4-1.5-.1.4-.4.7-.7.9-1.4-.2-2.7-.3-4.1-.3.9-.6,1.8-1.1,2.9-1.3.6-.2,1.2-.2,1.8-.2h-.1Z"/>
  <path class="cls-1" d="M205.7,38.7c1.3.4,2.6.9,3.8,1.6-.3,0-.6.2-.9.3,1,.2,1.7.7,2.1,1.6.2,0,.4-.2.6-.3.8.6,1.7,1,2.6,1.3.4.3.6.8.6,1.3-.3,0-.6,0-.9-.2-.4-.8-.9-1.3-1.8-1.6-.3.2-.4.3-.1.6.6.5,1.1,1.1,1.6,1.8-.1,0-.2.2-.3.3-1.4-.9-2.8-1.8-4.1-2.7-.2-.4-.4-.8-.4-1.2-.8.4-1.5.3-2.2-.2-.7-.8-1.4-1.4-2.4-1.9.7-.2,1.3-.4,1.8-.9h0v.2Z"/>
  <path class="cls-1" d="M186.3,38.4c.3.2.4.5.3.9h1.2v.9c.8-.1,1.4.2,1.8.9-3,.1-3.1.6-.3,1.3.4.4.7.9.9,1.3-.1.2-.2.5-.3.7.9,1.3.6,1.8-.9,1.5.4.3.7.6,1.2.7-.2.5-.7.8-1.3.9-.8-.2-1.4-.6-1.9-1.2.6,0,1.2-.1,1.8-.4-.1-.1-.2-.3-.3-.4.5-.7.7-1.5.6-2.3-1.4,0-2.7.1-4,.6-.2,0-.5-.2-.7-.3.6-.3,1.1-.4,1.8-.3,0-.4,0-.7-.3-1-.5,0-1-.2-1.5-.4,1.2-.1,2.3-.6,3.2-1.3-.5-.2-1-.2-1.5-.2,0-.6.1-1.2.3-1.8h0l-.1-.1Z"/>
  <path class="cls-1" d="M102.4,42.5c0,.8-.4,1.4-1.2,1.6.7,0,1.2.3,1.5.7-.8,0-1.6,0-2.3-.2.2-.3.4-.6.6-.9,0-.1-.2-.2-.3-.2.5-.5,1.1-.9,1.8-1.2l-.1.2Z"/>
  <path class="cls-1" d="M128.3,39.6c1.4,0,2.8,0,4.1.3-.3.3-.3.5,0,.7.4.2.8.1,1.2-.2.5.2,1.1.4,1.6.6,0,1.1.4,1.9,1.3,2.5.4,0,.7,0,.9-.4.4.1.7.3.9.6,0,.2.1.3.3.3-.4.2-.9.4-1.5.6.8,1.1.8,2.2,0,3.4.3.9.9,1.5,1.8,1.6.4,1.5.2,3-.4,4.4-.2-1-.7-1.9-1.3-2.7.1-.5.3-.9.6-1.3-.1-.2-.2-.3-.3-.4-.3.2-.4.5-.3.9-1,0-2,.1-2.9.3v3.5h1.2c0,.5.2.9.6,1.2,0,.2,0,.4-.1.6-.8-.3-1.5-.7-2.2-1.2-.8,0-1.2.4-1.2,1.2-1.4,0-2.4.4-3.1,1.5-.7-.1-1.2-.4-1.6-.9-.4-.2-.7-.5-.9-.9v-1.5h-4.7c-.7-.5-.7-1,0-1.6,1.9-.1,3.7,0,5.6.2,0-.7.3-1.2.9-1.6.7-.1,1.3-.4,1.8-.9.5-.2,1-.2,1.5-.2.4-.1.6-.4.6-.9-.2-2.1-1-3.9-2.4-5.4-.9-.2-1.8-.2-2.7.2-1.5-.5-2.9-.9-4.4-1.3-.4-.3-.7-.7-.9-1,.3,0,.6,0,.9-.3-.4-.4-.4-.7,0-1,1.8-1.1,3.6-2,5.6-2.7.9-.3,1.6-.2,2.4.3-1.7.3-3.2,1-4.4,2.2-.3.4-.4.8-.2,1.2.6-.7,1.2-1.2,1.9-1.8h0l-.2-.1Z"/>
  <path class="cls-1" d="M100.7,43.7c.1,0,.2,0,.3.2-.2.3-.4.6-.6.9.8.2,1.6.2,2.3.2-.4.7-.3.9.3.6.3.8.9,1.5,1.6,2.1.7-.3,1.3-.7,1.9-1.2,1.5,0,2.9.5,4.1,1.3-.7.2-1,.6-.9,1.3-.3,0-.6,0-.9.3.4.3.8.4,1.2.2.7-.3,1.4-.8,1.9-1.3.4.1.8.4,1,.7.5.2,1,.2,1.5.2v1.2c-.8-.3-1.6-.5-2.5-.6-1,0-2.1.2-3.1.3v.9c1.2,0,2.4-.2,3.4-.9.8,0,1,.4.7.9-.2.2-.2.5.3.7-1.9,1.4-4.1,2-6.5,1.9,0,.4,0,.7-.3,1-3.3,1.2-6.2,3-8.7,5.4-.2.4-.4.8-.4,1.2.4,1.3.2,2.5-.6,3.5.6.2,1.2.4,1.8.4,1.2,1.5,2.4,2.9,3.5,4.4.8,0,1.6.2,2.3.3l.4.4c-.7,1.5-1.3,3-1.9,4.6.1,1.2.6,2.2,1.5,3.1,1.1-.1,2.2-.5,3.1-1.2.3-1.6.6-3.1.9-4.7l.4-.4c1,.1,2,.4,2.9.7,0-.5-.2-.9-.6-1.2.8-.3,1.5-.4,2.3-.3v-1.8c.5-.8.8-1.8.9-2.8-.2-.8-.3-1.5-.4-2.2.7-.5,1.3-.9,1.9-1.5.7-1.7,1.5-3.3,2.5-4.7.3-.2.7-.3,1-.3.8.2,1.6.4,2.3.6.7.2,1.4.5,2.1.9.3.7.5,1.3.7,2.1.3.2.6.3,1,.3,0,.8.2,1.6.6,2.3-.1.8-.5,1.4-1.2,1.9.6,0,1.2.2,1.8.4.1.6.5,1,1,1.2.7-.3,1.5-.5,2.2-.6h1.5c.2.7.5,1.2,1,1.8,0-1-.1-1.8-.6-2.7.2-.3.5-.3.7-.2.4.2.7.6.9,1,.3,2.1.3,4.3,0,6.5h1.2c.3.4.6.8.9,1.3,1.2.4,2.4,1,3.5,1.8-.5.3-1.1.5-1.8.4-.6,0-1.2.3-1.8.7.6,0,1.2-.1,1.8-.4,1.3.4,2.6.8,3.8,1.2-.2,1.2-.5,2.3-.7,3.5-.4.3-.9.5-1.3.7.4,0,.8.2,1.2.3-.4.3-.6.7-.9,1-.6.5-1.2,1-1.8,1.6h1.2c.2.6.5,1.3.7,1.9,1-.7,2-.7,3.1,0-.3.4-.6.8-.9,1.2,1,.5.9.9-.3,1.5-.4-.3-.8-.3-1.2,0,.6.4,1.1.9,1.5,1.5,0,.4-.3.6-.6.6-.4,0-.6,0-.9-.3.2-.4.3-.8.3-1.2h-.9c-.6-.6-1.3-1-2.1-1.5-1.4.4-2.8.4-4.1,0,.4-.6.3-1.1-.3-1.5,1.6-1.4,3.1-2.9,4.7-4.4.5-.2.6-.4.3-.7-.9-.2-1.8-.2-2.6.2-.6.2-1.1.5-1.5.9-.7.3-1.4.5-2.2.6-1.6-.2-3.1-.5-4.6-1-1.9-.2-3.7-.2-5.6-.2-1.9.3-3.7.9-5.3,1.8,0,.4,0,.7.3.9-.4.3-.8.6-1.2.9,1.7-.7,3.5-1.3,5.3-1.9.7-.2,1.4-.2,2.1-.2,1.8.1,2.3.9,1.5,2.3-.5.1-1,.3-1.5.6-.5-.3-1-.5-1.5-.4.5.5,1.1.7,1.8.7,0,.8-.2,1.6-.3,2.3v1.5c1.5.3,1.5.5,0,.6-4.1.4-8,1.3-11.8,2.7-.1.9-.2,1.8-.3,2.7-2.3.2-4.6.7-6.8,1.5v1.2c-.2.7-.6,1.2-1.2,1.6-.5,0-1-.2-1.5-.3.5,1.3.1,2.3-1,3.1-.2-1-.2-2,.2-2.9-.2-.2-.5-.1-.7.3-.7,1.5-.7,3-.2,4.4-.6.6-.6,1.1,0,1.6-2.6,1.4-5.1,3-7.7,4.6-.7,0-1.3-.1-1.8-.6-.3.3-.4.7-.3,1.2-.6,0-1.2.2-1.6.6-.5-.3-1.1-.5-1.8-.6-.7,1.2-1.1,2.5-1.2,3.8,0-.3-.2-.6-.4-.9-.4.6-1,.9-1.8.9v-1.2h-.9c-.3-1.3-1.2-1.9-2.7-1.8-.8,0-1.5.4-2.1.9.1.2.2.4.3.6h-.3c-.6.4-1.1.9-1.6,1.5-.1-.4-.2-.8-.2-1.2h-2.9c-1-.1-1.8.2-2.3.9v-.9c-.6.4-1.3.7-2.1.9v-.9h-.9c0,.4,0,.8.3,1.2,0,.2-.2.4-.4.6-.2,2.3-.6,4.5-1,6.8-.3,1.5-.5,3-.6,4.6.1,1.5.3,3.1.6,4.6-.2.9,0,1.7.7,2.4.2.6.2,1.2,0,1.8-.9,1.1-2,1.6-3.4,1.8-.9-.7-1.7-1.5-2.3-2.4.2-.8.6-1.5,1.2-2.1-.2-.6-.4-1.2-.6-1.8-.2-2.6-.4-5.3-.4-7.9,0,2.6-.2,5.2-.4,7.8.1.9.3,1.7.6,2.5-1.5.2-2.2-.5-1.9-2.1-.3-.2-.6-.3-1-.3,0-3.4,0-6.9-.3-10.3,0-.8.2-1.4.6-2.1-.3-.3-.7-.4-1.2-.3v1.8h-.9c-.2-1.8-.3-3.5-.6-5.3,0-2.1,0-4.2.3-6.3,0-1-.3-1.5-1.3-1.6,0-.3,0-.7-.2-1,0-2.4.1-4.8.3-7.2.2.3.4.6.6.9.2-1.4,0-2.8-.3-4.1,1.8-6.3,4.5-12.2,8.2-17.7h1.2c0-1,.4-1.9,1-2.7,0,.3.2.6.4.9.3-.7.4-1.3.3-2.1.8-.7,1.7-1.3,2.7-1.8,0-.6,0-1.2.2-1.8.8,1,1.7,1.1,2.8.4-.5-.3-1.1-.5-1.8-.4,0-.7.2-1.4.3-2.1.8,0,1.4.5,1.9,1.2,1-.7,1-1.4,0-2.1-.2-.5-.2-1,0-1.5.6-.8,1.2-1.6,1.6-2.3,6.6-7.6,14-14.2,22.3-19.8,1.2-.7,2.3-1.4,3.5-1.9h0l.8-.1Z"/>
  <path class="cls-1" d="M126,36.4c.6,0,1.1.2,1.5.7-2.1,1.2-4.4,1.9-6.8,2.2,0,.4,0,.8-.2,1.2l-2.3,2.3c0,.9-.4,1.6-1.3,2.2.7,0,1.3-.2,1.8-.7.3.5.3,1-.2,1.5-.6.2-1,.6-1.3,1.2,0,0,.2.2.3.3,1.1-.9,2.4-1.5,3.8-1.9.4-1,1.2-1.6,2.3-1.8-.8-.2-1.4-.5-1.9-1-.2-.5,0-.8.4-.9.2.4.5.7.9,1,1.5.4,2.9.9,4.4,1.3.9-.3,1.8-.4,2.6-.2,1.3,1.5,2.1,3.4,2.4,5.4,0,.5-.2.7-.6.9-.2-2.2-1-4.3-2.2-6.2-.4.4-1,.6-1.6.6-1.1-.1-2.2-.4-3.2-.9,0,.5.1,1.1.6,1.6-.7.7-1.4,1.1-2.3,1.3.4-.5.6-1.1.6-1.8-.7,0-1.2,0-1.8.4.7.2.7.5,0,.9-1.2.1-2.4.3-3.5.4v1.5c.6,0,1.2,0,1.8.2.2.4.5.7.9.7-.8.4-1.7.7-2.7.9-.2.3-.4.6-.7.9-.3-.5-.7-1-1.2-1.5-.9,1.2-2,1.7-3.4,1.5.3-.5,0-.8-.7-.9-1,.7-2.2,1-3.4.9v-.9c1-.1,2.1-.2,3.1-.3.9.1,1.7.3,2.5.6v-1.2c-.5,0-1,0-1.5-.2-.3-.4-.6-.6-1-.7-.6.5-1.2,1-1.9,1.3-.4.2-.8.2-1.2-.2.2-.3.5-.4.9-.3-.1-.7.2-1.2.9-1.3-1.2-.9-2.6-1.3-4.1-1.3-.6.4-1.2.8-1.9,1.2-.7-.5-1.3-1.2-1.6-2.1.8-1.5,1.9-2.1,3.5-1.9-.4.5-.4.9,0,1.3.5.4,1.1.6,1.8.6.8-.3,1.6-.6,2.3-.9.3,0,.5.1.7.3,0,.4,0,.7.2.9,2.4-.4,3.6-1.8,3.5-4.1,3.4-1.4,6.6-3.1,9.7-5.2.4-.1.8-.2,1.2-.2h0l-.1.4Z"/>
  <path class="cls-1" d="M123,46.7c0,.4,0,.7-.3.9-.7,0-1,.5-.9,1.2-.3.2-.6.3-.9.3-.4,0-.7-.3-.9-.7-.6-.2-1.2-.2-1.8-.2v-1.5c1.2-.2,2.3-.3,3.5-.4.7-.4.7-.7,0-.9.5-.4,1.1-.5,1.8-.4,0,.7-.2,1.2-.6,1.8h0l.1-.1Z"/>
  <path class="cls-1" d="M122.7,47.5c0,.6-.4,1-.9,1.2-.1-.7.2-1.1.9-1.2Z"/>
  <path class="cls-1" d="M138.6,44c.5.2,1,.3,1.5.3.3,1.1.3,2.3,0,3.5-1.8-.2-2.1.4-1.2,1.8-.9-.2-1.5-.7-1.8-1.6.8-1.1.8-2.3,0-3.4.5-.2,1-.4,1.5-.6h0Z"/>
  <path class="cls-1" d="M186.8,47.5c.7,0,1.4.2,2.1.4.4.4.4.9,0,1.3-1-.2-1.7-.8-2.1-1.8v.1Z"/>
  <path class="cls-1" d="M157.7,47.8c-.4.4-.4.7.1.9.6-.3,1.1-.3,1.6,0-.3.5-.6,1-.9,1.5,0,.3.1.5.3.7,1.2.2,1.5.8.9,1.9-.9,0-1.3-.6-1.2-1.5-.7,0-1.3.1-1.8.6.4-1,1-2,1.8-2.8-1.4.2-2.7.4-4.1.6-.5-.5-.7-1.2-.6-1.9.5,0,1,0,1.5-.2-.1-.1-.2-.3-.3-.4,1-.4,1.9-.2,2.6.6h.1Z"/>
  <path class="cls-1" d="M156,51.7c-.6.4-1.3.7-2.1.9.5-.3.8-.8.9-1.5.6,0,1.2,0,1.8.3-.1.2-.3.3-.6.3h0Z"/>
  <path class="cls-1" d="M186,52.5c1.2,0,2.2.3,3.2.9.5,0,.6,0,.3.3-.5.2-1,.4-1.5.6v-1.2c-1,.4-2.1.7-3.2.9v-.9c.6,0,1,0,1.2-.6h0Z"/>
  <path class="cls-1" d="M138.9,49.6c1.3,0,2.2.5,2.6,1.8.8.4,1.5.9,2.1,1.6-.7.2-1.3.6-1.8,1-.8.4-1.6.8-2.4,1.3-.4.2-.8.2-1.2,0-.8-.6-1-1.4-.7-2.2-1.5-1.3-2.2-.9-2.2,1.2h-1.2v-3.5c1-.2,1.9-.3,2.9-.3,0-.3,0-.6.3-.9.1.2.2.3.3.4-.3.4-.5.8-.6,1.3.6.8,1.1,1.7,1.3,2.7.7-1.4.8-2.9.4-4.4h.2Z"/>
  <path class="cls-1" d="M153.9,52.5c-.4.6-.3,1.2.3,1.6-.5.5-.7,1.2-.6,1.9.4,0,.8,0,1.2.2.6.9.7,1.8.3,2.8-.5-.3-1.1-.4-1.8-.3,0-.7,0-1.2-.3-1.8,0-.7-.3-1.3-.6-1.9.1-.5.4-.8.9-.9-.5-.8-.3-1.4.6-1.6h0Z"/>
  <path class="cls-1" d="M136,55.5h.9v2.9h-1.2c0,.5-.1.9-.6,1.2-.9-.6-1.8-1.2-2.6-1.8-.1,0-.2.2-.3.3.9.7,1.1,1.6.6,2.7-1.8-.7-3.4-1.5-5-2.3-.2-.4-.4-.8-.6-1.2,0-.3.3-.5.6-.6.4.5.9.8,1.6.9.7-1.1,1.7-1.6,3.1-1.5,0-.8.4-1.2,1.2-1.2.7.5,1.4.9,2.2,1.2.1-.2.2-.4.1-.6h0Z"/>
  <path class="cls-1" d="M133.3,56.4c1,.2,1.9.3,2.9.3v.9c-.9,0-1.8,0-2.6-.2-.2-.3-.3-.6-.3-1h0Z"/>
  <path class="cls-1" d="M233.3,60.2c-.8.2-1.2-.2-1.2-1.2h-.9c0,.4,0,.8-.3,1.2-.2,0-.3-.2-.4-.3-.4.2-.9.4-1.3.4-.3.2-.6.4-.7.7-.4,2-.5,4.1-.4,6.2-.2-.6-.4-1.2-.6-1.9v-5.7c.4,0,.7,0,1,.3,0-.4,0-.8-.1-1.2.4.3.8.3,1.2,0-.3-.3-.3-.6,0-.9,1.2,0,2.4.5,3.5,1.2.3.3.4.7.3,1.2h-.1Z"/>
  <path class="cls-1" d="M200.4,63.7c-1.6-1.3-3.5-1.7-5.6-1.3-.9,0-1.7.4-2.4,1,.8.2,1.4.6,2.1,1-.9-.2-1.8-.1-2.6.2-.6-.6-1.4-1-2.4-1.2.8-.2,1.6-.2,2.4-.2-.8-.8-1.8-1.2-2.9-1.3.3-.8.8-1.4,1.5-1.8,1.1.5,1.9,1.3,2.4,2.3.4-.3.7-.7.7-1.2.2.2.4.5.7.6.8-.2,1.5-.2,2.4,0,.6,0,1-.3,1.5-.6,1.3.3,2.1,1.1,2.4,2.3h0l-.2.2Z"/>
  <path class="cls-1" d="M121.8,58.1c.8,0,1.6,0,2.3.2.4.8.8,1.7,1.2,2.5,2.4.4,2.7,1.4.9,2.9-.3-.7-.5-1.5-.6-2.3-.4,0-.7,0-1-.3-.2-.7-.4-1.4-.7-2.1-.7-.3-1.4-.6-2.1-.9h0Z"/>
  <path class="cls-1" d="M191.9,64.9c1,.3,1.9.7,2.9,1,.2.3.3.6.3,1-.7-.3-1.4-.7-2.1-1-.7,0-1.4-.2-2.1-.3.3-.3.6-.6.9-.7h.1Z"/>
  <path class="cls-1" d="M134.8,73.1h-1.2c.3-2.2.3-4.3,0-6.5-.1-.5-.4-.8-.9-1-.3-.2-.5-.1-.7.2.4.8.6,1.7.6,2.7-.5-.5-.8-1.1-1-1.8h-1.5c.9-.8,1.8-1.6,2.6-2.5.3-.2.5-.1.7.2.6,2.1,1.1,4.1,1.6,6.2-.4.5-.8,1-1.2,1.5.3.4.6.8.9,1.2h0l.1-.2Z"/>
  <path class="cls-1" d="M200.4,63.7c.4,0,.7,0,.9.3-1.1,1.2-2.5,1.8-4.1,1.8v1.2c-.4,0-.7,0-1-.3-.2.2-.4.4-.4.6-.3,0-.5,0-.6-.3,0-.4,0-.7-.3-1-1-.4-2-.7-2.9-1v-.3c.8-.3,1.7-.3,2.6-.2-.6-.5-1.3-.8-2.1-1,.6-.6,1.4-.9,2.4-1,2.1-.4,3.9,0,5.6,1.3h0l-.1-.1Z"/>
  <path class="cls-1" d="M201.3,64c.7.5.7,1,0,1.6-1.8.9-3.6,1.4-5.6,1.6,0-.2.2-.4.4-.6.3.2.6.3,1,.3v-1.2c1.6,0,3-.6,4.1-1.8l.1.1Z"/>
  <path class="cls-1" d="M168,59.9c0,.6-.1,1-.6,1.3.4.2.6.6.4,1-.6.5-1,1-1.3,1.6-.5.1-1,.2-1.5.1,0,1.7-.5,3.2-1.6,4.4-1,.4-1.9.4-2.8,0h1.5c0-.4,0-.8.1-1.2.1,0,.2.2.3.3.9-1.1,1.4-2.3,1.3-3.8h2.1c0-.3,0-.6.1-.9,1-.7,1.3-1.7.7-2.8.4-.1.8-.2,1.2-.2h0l.1.2Z"/>
  <path class="cls-1" d="M239.8,64.3c1.5,1.5,2.8,3,4.1,4.7-.1,0-.2.2-.3.3-.6-.5-1.1-.9-1.8-1.3-.3-.2-.5-.2-.6.2-.3.3-.6.7-.9,1.2-1.5-1.1-1.2-1.7.9-1.8,0-.5,0-1-.3-1.5-.6-.4-1-1-1.2-1.8h.1Z"/>
  <path class="cls-1" d="M226,73.1c0-.2-.1-.3-.3-.4.4,0,.7-.2,1-.4.6-1.2,1.1-2.5,1.3-3.8h.9c0-2.2,0-4.3.4-6.5.9-.4,1.7-1,2.4-1.8.2.5.2,1,0,1.5-.7.6-1.2,1.3-1.8,2.1-.1,2-.2,3.9-.1,5.9-.4,0-.6,0-.9.3-.2.6-.4,1.2-.4,1.8-.5.3-.8.8-1,1.3-.5.2-1,.2-1.5.2h0v-.2Z"/>
  <path class="cls-1" d="M74.8,65.5c-.4.8-1,1.6-1.6,2.3-.2.5-.2,1,0,1.5,1,.7,1,1.4,0,2.1-.5-.7-1.1-1.1-1.9-1.2-.1.7-.2,1.4-.3,2.1.6,0,1.2.1,1.8.4-1.1.7-2,.5-2.8-.4-.2.6-.2,1.2-.2,1.8-1,.5-1.9,1.1-2.7,1.8,0,.7,0,1.4-.3,2.1-.2-.3-.4-.6-.4-.9-.7.8-1,1.6-1,2.7h-1.2c3.1-5,6.6-9.7,10.6-14.1h0v-.2Z"/>
  <path class="cls-1" d="M249.8,76.9c.2.3.3.6.3.9-.3,0-.5,0-.7-.3-1.1-1.3-2.1-2.7-3.1-4.1-.5-.2-.9-.4-1.5-.4-.2-.2-.3-.4-.3-.7.3.4.7.5,1.2.4-.5-.3-.8-.8-.7-1.3.3.4.8.7,1.3.7,1.2,1.6,2.4,3.2,3.5,4.8h0Z"/>
  <path class="cls-1" d="M113.6,69v1.8c-.8,0-1.6,0-2.3.3.4.3.6.7.6,1.2-1-.4-2-.6-2.9-.7l-.4.4c-.3,1.6-.6,3.1-.9,4.7-.9.7-2,1.1-3.1,1.2.7-.4,1.5-.9,2.2-1.5.8-1.7,1.2-3.4,1.3-5.3,2.1-.1,4-.8,5.6-2.1h-.1Z"/>
  <path class="cls-1" d="M93.9,81.4c-.5-.3-1.1-.4-1.6-.6-1.3.2-2.4.7-3.4,1.5-.2-.5-.3-1-.3-1.5,1.3,0,2.5-.4,3.7-.9.8.2,1.7.4,2.5.6,0,.5,0,1-.2,1.5-.2-.3-.4-.4-.7-.6h0Z"/>
  <path class="cls-1" d="M213.3,79.6c.8.5.6,1-.3,1.5-.3,0-.5-.3-.6-.6.2-.4.5-.7.9-.9h0Z"/>
  <path class="cls-1" d="M227.4,80.2h1.2c-.1,1.7.7,2.4,2.4,2.3-.4.6-1,.7-1.8.4-.7-.3-1.3-.7-1.8-1.3v-1.5h0v.1Z"/>
  <path class="cls-1" d="M217.1,81.9c.6-.4,1.3-.4,2.1,0,.1.2.2.4.3.6-.3,1-.5,1.9-.6,2.9,0,.2-.1.3-.3.3-.4-1.1-.3-2,.3-2.9-.5-.6-1.1-.9-1.8-.9Z"/>
  <path class="cls-1" d="M214.8,81.1v.9c.6.2,1.2.4,1.8.6,0,.8-.2,1.6-.6,2.3.4,0,.7,0,1-.3.1,1,.2,2,.1,2.9-.2,0-.3-.1-.4-.3,0-.7-.2-1.4-.4-2.1-.4.2-.6.5-.7.9-.1-.7-.2-1.4-.1-2.1-.4,0-.6,0-.9-.3.2-.4.3-.8.3-1.2-.6,0-1-.3-1.2-.9l1.2-.6h0l-.1.2Z"/>
  <path class="cls-1" d="M121.8,82.8c-1.6,1-3.2,1.9-5,2.7-.3-.2-.4-.5-.3-.9,1.7-.9,3.4-1.5,5.3-1.8h0Z"/>
  <path class="cls-1" d="M125.7,83.7c1.3,0,2.5.5,3.5,1.2,0,.6-.3,1-.9,1.2-.9-.8-1.8-1.6-2.7-2.3h0l.1-.1Z"/>
  <path class="cls-1" d="M233.3,60.2c.7.2,1.4.4,2.1.4.2.3.4.5.6.7,1.4.8,2.7,1.8,3.8,2.9.1.7.5,1.3,1.2,1.8.3.4.4.9.3,1.5-2.1,0-2.4.6-.9,1.8.3-.4.6-.8.9-1.2,1.5,1,2.6,2.4,3.2,4.1,0,.3,0,.5.3.7.5,0,1,.2,1.5.4,1,1.4,2,2.8,3.1,4.1.2.2.4.3.7.3,2.1,3,4,6.1,5.6,9.4,0,.6,0,1.2-.3,1.8-.5-.3-.7-.1-.6.6,0,.5.3.9.7,1.2,0-.5.3-.9.7-1.2.3.8.4,1.6.3,2.3-.4,0-.8,0-1.2.3.6.6.8,1.2.6,1.9.1.4.2.7.4,1,.6-2.7,1.3-2.7,1.9,0,.2-.6.5-.7.9-.3.4.7.7,1.5.9,2.3.7,2.5,1.3,5.1,1.6,7.7,1,.9,1.6,2.1,1.8,3.5.2.4.4.4.4,0,.3.3.4.7.3,1.2-.1,1.2-.3,2.3-.4,3.5-.4.4-.8.7-1.3.9-.6.2-1,.4-1.5.9-.6-1.2-1-2.5-1.2-3.8-.1-.8-.1-1.7,0-2.7-.9,0-1.8.2-2.6.3,0,.7,0,1.3-.3,1.9.2,2.9.4,5.8.4,8.7,0,.5.3.8.7.9.2,0,.3,0,.3.3-.7,0-1.4-.2-2.1-.3,0-2.4,0-4.9-.1-7.3,0-.7-.2-1.4-.4-2.1-.3,2.2-.3,4.5,0,6.8,0,.7-.1,1.4-.1,2.1-.2.3-.4.6-.7.9.1.2.2.4.3.6-.3,0-.5.3-.6.6-1.4.2-1.9,1-1.5,2.3-.5-.7-.8-1.6-.7-2.7-.4-.4-.8-.3-1,.3.8.9,1.1,2,.9,3.2.6,0,1,0,1.2-.6.2.3.5.5.9.6,1.1.4,1.3,1.1.6,2.1-1.8-1.7-2-1.6-.7.3.4,2.3-.1,2.5-1.5.9-.4-.8-.5-1.6-.1-2.3-.3-.4-.6-.8-1-1.2-.1-.5-.2-1-.4-1.5-.3-.6-.6-1.2-1-1.8,0-1.3-.2-2.6-.6-3.8-2.6-1.8-4.6-4.2-5.9-7.1,0,.2-.2.4-.4.6-.2-.4-.4-.8-.6-1.2-.2-.3-.6-.4-.9-.2-.6,1.6-.2,2.8,1.3,3.7.6,1,1.1,2.1,1.5,3.2.5.6,1.1.9,1.9.9,0,.4,0,.8.1,1.2,1.1.7,1.9,1.5,2.5,2.7,0,.2-.1.4-.1.6-.4-.4-.8-.8-1.3-1.2-.4.8-.3,1.5.3,2.2-.3.6-.5,1.2-.6,1.9-.3,0-.6,0-.9-.2.2-.3.3-.6.3-1-.6-2.7-2.1-4.6-4.6-5.9-.5-1-1.1-1.9-1.9-2.7.4-.9.5-1.9.4-2.9-.3.2-.6.3-1,.3.2-.6.2-1.2,0-1.8-.2.3-.5.5-.9.6-.7-.5-1.5-.6-2.4-.4-1.1,1-2.3,1.6-3.8,1.6-.7,0-1.4,0-2.1.2,0,.9-.1,1.8-.3,2.8-.7.7-1.6,1.1-2.6,1.2-.3.7-.7,1.3-1.2,1.8-.4-.3-.8-.3-1,.3-.1.5-.2,1-.1,1.5-.1-1.7-.6-3.2-1.5-4.7.8,0,1.5-.2,2.2-.6,1.2.8,1.8.4,1.6-1.2-1.1,0-2.1-.5-2.9-1.3-.9-.2-1.8-.2-2.6-.2v1.2c.9,0,1.8,0,2.6.2.4.3.4.6,0,.9-1.8.3-3.4-.2-4.7-1.3-.7.8-1.6,1.1-2.6.9,0,.8,0,1.6-.3,2.3-.3-1.8-.4-3.7-.3-5.6h3.5c1.3.2,2.5.3,3.8.3.3-1.7.3-3.3.1-5-.3-.7-.8-1.2-1.5-1.5-.2-.6-.4-1.2-.7-1.8-2,0-3.2-1-3.5-2.9,1.5,0,3,.1,4.4.6,0-.5,0-1-.3-1.5.1,0,.3-.2.4-.3.4.3.8.5,1.2.6,1.6-.3,2.5-1.1,2.8-2.7.9-.2,1.7-.7,2.2-1.5.2-.9.6-1.7,1-2.5,1.1-.5,2.3-.8,3.5-.7,0-.7-.3-1.4-.6-2.1.2-.4.4-.8.6-1.2.2.3.4.6.6.9.7.8,1.4,1.6,2.2,2.3.5-.2.9-.3,1.3-.6.8.4,1.5.9,2.2,1.5.9-1.2,2-1.6,3.4-1.3.6,1,1,.9,1.2-.2h.9c-.5-1.4-1-2.7-1.5-4.1,0-.5.3-.9.7-1.2.4.7.9,1,1.6,1.2-.2-1.9-1.1-3.1-2.9-3.5v-.9c.8,0,1.4-.2,2.1-.6.6.2,1.2.3,1.8.3h.9c.4-2.2-.5-3.2-2.6-2.9,0-.3,0-.6-.3-.9-.7-.4-1.4-.7-2.1-.7.7,1,1.4,1.8,2.4,2.5-1.6,1-3.1.7-4.3-.9-.9-1.6-1.8-3.1-2.6-4.7v-4.7c-.6-.9-1.4-1.4-2.5-1.5,0,.5,0,1,.1,1.5,1.2,1.2,1.2,2.4,0,3.5-.1,2.9,1,5.2,3.5,6.8.3,1.2,0,2.2-.7,3.1.9,1.4,1.2,2.9,1,4.6-.4.3-.8.4-1.3.3v1.2c-.9,0-1.4-.3-1.5-1.2.2-.4.5-.7,1-.9.1-.4.2-.8.1-1.2h-.9v.9h-.9c-1.5-2.1-2.9-4.3-4.4-6.5-.4.6-.8,1.2-1.2,1.8-1.7,0-2.4-.7-2.4-2.3h-1.2c-.2-.3-.5-.4-.9-.3,0-.7.1-1.3.6-1.8,0,0-.1-.2-.1-.3-.2.2-.4.4-.7.6-.2-.7-.5-1.3-1-1.8-.5-1-.6-1.9-.1-2.9.2-.3.5-.5.9-.6.5,0,1,0,1.5-.2.2-.6.5-1,1-1.3,0-.6.2-1.2.4-1.8.2-.3.5-.4.9-.3,0-2,0-3.9.1-5.9.5-.8,1.1-1.4,1.8-2.1.2-.5.2-1,0-1.5-.6.8-1.4,1.4-2.4,1.8-.4,2.1-.5,4.3-.4,6.5h-.9v-1.2c-.1-2.1,0-4.1.4-6.2.1-.3.4-.6.7-.7.5,0,.9-.2,1.3-.4.1.1.3.2.4.3.3-.3.4-.7.3-1.2h.9c0,1,.4,1.4,1.2,1.2h0v.2Z"/>
  <path class="cls-1" d="M247.1,82.5c0-.3.1-.6.3-.9-.6-.7-1.2-1.1-2.1-1.2-.9-.7-1.7-1.5-2.4-2.5.7,0,1.4.3,2.1.7.3.2.4.5.3.9,2.2-.2,3.1.8,2.6,2.9h-.9l.1.1Z"/>
  <path class="cls-1" d="M240.7,84.9c1.1.3,1.4,1,.9,2.1-.7-.5-1-1.2-.9-2.1Z"/>
  <path class="cls-1" d="M217.1,81.9c.7,0,1.3.3,1.8.9-.6.9-.7,1.9-.3,2.9.2,0,.3-.1.3-.3h.3c.3.6.6,1.2.9,1.9-.2.6-.6.8-1.2.7v-.9c-.6,0-1.1,0-1.5.3h-.3c0-1,0-2-.1-2.9-.3.2-.6.3-1,.3.3-.7.5-1.5.6-2.3-.6-.2-1.2-.4-1.8-.6v-.9c0-.3.1-.6.3-.9.7-.3,1.4-.4,2.1-.3-.2.8-.2,1.4,0,2.1h-.1Z"/>
  <path class="cls-1" d="M91.3,86.4c-.8,0-1.6.2-2.3.3v1.2c-.7-.2-1.4-.5-2.1-.9.8-.1,1.5-.4,2.1-.9-.7-.4-1.4-.8-2.1-1.2,1.1-.3,2.2-.5,3.2-.6,0,.3,0,.6.2.9.6.2.9.6,1,1.2h0Z"/>
  <path class="cls-1" d="M219.2,85.5c1.1.5,1.9,1.4,2.2,2.7,1.4,1.1,2.3,2.6,2.5,4.4.6,0,1.2,0,1.8.2.3.2.5.4.6.7-.2.8-.6,1.5-1.2,2.1-.3.2-.6.4-1,.6-.2-1-.4-1.9-.4-2.9-.8,0-1.6.2-2.4.6-.7-.5-1.5-.6-2.4-.4.3.4.5.8.6,1.3-.8-.3-1.6-.7-2.4-1,.5-.3.9-.7,1.2-1.2-1-1.6-.6-2.2,1.2-1.6v1.2c-.3,0-.6,0-.9.2.9,0,1.9.2,2.8.4.3,0,.5-.2.7-.3.4-.8.4-1.6,0-2.3-.4.6-.7,1.3-.9,2.1h-1.2c-.1-.9.3-1.3,1.2-1.2,0-.7,0-1.4-.3-2.1-.4.4-.9.7-1.5.9-.5-.5-.9-1.1-1-1.8-.3-.2-.6-.3-1-.3.4-.3.9-.4,1.5-.3v.9c.6,0,1-.1,1.2-.7-.3-.7-.6-1.3-.9-1.9h0v-.3Z"/>
  <path class="cls-1" d="M89.2,87.8c.3,0,.6,0,.9.2-.7.5-1.2,1-1.8,1.6v-1.5c.4,0,.7,0,.9-.3h0Z"/>
  <path class="cls-1" d="M133.3,87.5c.6.4.7.9.3,1.5,1.4.4,2.7.4,4.1,0,.8.4,1.4.9,2.1,1.5-.6.8-1.4,1.1-2.4.9,1.1-.2,1.3-.7.6-1.3-1.9-.3-3.7-.6-5.6-.7,0-.8.3-1.3.9-1.8h0v-.1Z"/>
  <path class="cls-1" d="M211,90.5c.2-.3.3-.6.3-.9,0-.2-.1-.3-.3-.4.5-.3.9-.7,1.3-1,0,.3.2.6.4.9.4-.6.4-1.2,0-1.8.1-.3.3-.5.6-.6.4.3.6.7.6,1.2-.3,1.5-.3,2.9,0,4.3-.2.3-.5.4-.9.4-.8-.2-1.6-.3-2.4-.4.3-.5.4-1,.3-1.6h0l.1-.1Z"/>
  <path class="cls-1" d="M233.9,86.1c.2.3.6.7.9,1-.8.6-.8,1.1,0,1.6.7-.4,1.3-.8,1.8-1.5h.9v-.9h.9c0,.4,0,.8-.1,1.2-.5.1-.9.4-1,.9-.3.7-.4,1.5-.3,2.3-.9.1-1.2-.2-.9-.9-.5-1.1-.8-1.1-1,0-.2-.2-.4-.3-.7-.3-.2-.3-.4-.6-.6-.9-.2.4-.4.8-.6,1.2-.5-1-1-2-1.5-3.1,0-.4.3-.7.6-.9-.2,0-.4-.2-.6-.4.5-.4,1-.8,1.6-1.2.6.4.8,1,.7,1.8h0l-.1.1Z"/>
  <path class="cls-1" d="M233.9,86.1c.1,1.2-.4,1.9-1.5,2.1-.4-.9-.3-1.8.1-2.7.3-.2.6-.3,1-.3,0,.4,0,.7.3.9h.1Z"/>
  <path class="cls-1" d="M214.2,92.8c-1.2.2-2.4.2-3.5.2-.4-.9-.3-1.8.3-2.5,0,.6,0,1.1-.3,1.6.8.1,1.6.3,2.4.4.4,0,.7-.2.9-.4-.3-1.4-.3-2.8,0-4.3,0-.5-.2-.9-.6-1.2-.3,0-.5.3-.6.6.4.6.4,1.2,0,1.8-.2-.3-.4-.6-.4-.9-.4.4-.9.7-1.3,1,.2.1.3.3.3.4-.4,0-.7,0-1-.3,0-.7-.2-1.3-.4-1.9.3-.1.6-.2.9-.2.3.3.7.4,1.2.3v-1.5c1.1,0,2.2.1,3.2.4,1.1.9,1.1,1.8,0,2.7,1,1,1.2,2.1.6,3.4-.5,0-1,.1-1.5.3l-.2.1Z"/>
  <path class="cls-1" d="M141.6,89.9c1.6.2,1.8,1,.6,2.3-.5.4-.8.3-.9-.3.3,0,.5-.2.6-.6-.4-.6-.9-1.1-1.5-1.5.4-.3.8-.3,1.2,0h0v.1Z"/>
  <path class="cls-1" d="M90.1,89.6c-.2,1.6-.4,3.1-.6,4.7-.5,0-1,0-1.5-.3.9-1.2,1.5-2.6,1.6-4.1.1-.2.3-.3.4-.3h.1Z"/>
  <path class="cls-1" d="M93.6,89.9c.2.5.6.7,1.2.6,0,.6,0,1.1-.3,1.5-.5-.5-1.1-.9-1.8-1.2l.9-.9h0Z"/>
  <path class="cls-1" d="M93.6,87.2c1.2.9,1.2,1.8,0,2.7-.4-.4-.7-.9-.9-1.5.2-.4.5-.8.9-1.2Z"/>
  <path class="cls-1" d="M219.5,90.8v-1.2c.6-.2,1.1-.5,1.5-.9.3.7.4,1.3.3,2.1-.9,0-1.3.3-1.2,1.2h1.2c.1-.7.4-1.4.9-2.1.4.8.4,1.6,0,2.3-.2.1-.5.2-.7.3-.9-.2-1.9-.3-2.8-.4.3-.1.6-.2.9-.2v-1.2h0l-.1.1Z"/>
  <path class="cls-1" d="M255.7,87.2c1.3,2.4,2.5,5,3.5,7.7-.4-.4-.7-.3-.9.3-.6-2.7-1.3-2.7-1.9,0-.2-.3-.3-.7-.4-1,.2-.7,0-1.3-.6-1.9.4-.3.7-.4,1.2-.3,0-.8,0-1.6-.3-2.3-.4.3-.7.7-.7,1.2-.4-.3-.7-.7-.7-1.2,0-.7.1-.9.6-.6.3-.6.4-1.2.3-1.8h0l-.1-.1Z"/>
  <path class="cls-1" d="M98.9,91.9c.8.7,1.9,1.1,3.1,1.2.5,0,1-.3,1.3-.6.3,0,.6,0,.9.3-1.3,1.5-2.7,1.6-4.1.3-.5.2-1,.3-1.5.3h-2.3c.5-.4,1.1-.6,1.8-.6v-.9h.9-.1Z"/>
  <path class="cls-1" d="M123,89.9c.5.7,1.1,1.3,1.8,1.8.8.2,1.6.3,2.3.6.6-1,1.5-1.7,2.7-2.1.6.6.8,1.4.3,2.2-1.4.7-2.9,1-4.4,1-.7-.7-1.6-1-2.7-.9v-.6c1.5,0,1.5-.3,0-.6v-1.5h0v.1Z"/>
  <path class="cls-1" d="M123,92.5c1.1-.1,1.9.2,2.7.9-.8.3-1.7.5-2.7.6-.8,0-1.5.2-2.2.6-.2,0-.3-.2-.4-.3.9-.6,1.8-1.2,2.7-1.8h-.1Z"/>
  <path class="cls-1" d="M123,92.5c-.8.6-1.7,1.2-2.7,1.8.2,0,.3.2.4.3.7-.4,1.4-.6,2.2-.6-.9.3-1.7.8-2.3,1.5h-1.2c-.2-.6-.2-1.2,0-1.8,1-.9,2.2-1.3,3.5-1.2h.1Z"/>
  <path class="cls-1" d="M225.1,95.5c1.1,0,1.2.4.6,1-1.8.2-3.6.2-5.3-.2-.9.2-1.8.5-2.6.9-.3-.8,0-1.5.6-2.1.7-.2,1.4-.3,2.1-.4-.3-.1-.6-.2-.9-.2,0-.5-.3-.9-.6-1.3.8-.2,1.6,0,2.4.4.7-.4,1.5-.6,2.4-.6,0,1,.2,2,.4,2.9.4-.2.7-.4,1-.6h0l-.1.2Z"/>
  <path class="cls-1" d="M111,97.2c.4.1.6.4.6.9-1.7,0-3.3,0-5,.2.5,0,1,.2,1.5.3-1.1.4-2.3.6-3.5.4,0,.4,0,.7-.3.9v-1.2c2.2-.8,4.4-1.3,6.8-1.5h-.1Z"/>
  <path class="cls-1" d="M221.8,102.8v-1.5c.5,0,.9.2,1.3.6.5-.1.8-.4,1-.9.4.1.7.3.9.7-.6.5-1,1.2-1.2,2.1-.2,0-.4,0-.6.2-.5-.4-1-.8-1.5-1.2h.1Z"/>
  <path class="cls-1" d="M260.1,97.2c1.7,3.5,3,7.2,3.8,11.2,0,.4-.2.4-.4,0-.2-1.4-.8-2.6-1.8-3.5-.4-2.6-.9-5.1-1.6-7.7Z"/>
  <path class="cls-1" d="M56,97.2c.4,1.4.5,2.7.3,4.1-.2-.3-.4-.6-.6-.9-.2,2.4-.3,4.8-.3,7.2,0,.3,0,.7.2,1,1,0,1.4.6,1.3,1.6-.3,2.1-.3,4.2-.3,6.3-.3-.3-.4-.7-.3-1.2,0-2,0-3.9-.2-5.9-.3-.4-.6-.4-.9,0-.2,2-.2,4,.2,5.9,0,2.6,0,5.1.3,7.7-.4.6-.4,1.1,0,1.8.2-.1.3-.3.3-.6.4.5.3,1-.3,1.5,0,0-.2-.2-.3-.3-.2-1.3-.5-2.6-.9-3.8.3-1.7,0-3.4-.9-5,.4-3.6.9-7.1,1.5-10.7-.9-3-.6-5.9.9-8.7h0Z"/>
  <path class="cls-1" d="M259.8,111.1c-.5-.2-.8-.5-1.2-.9-.2,0-.3.2-.4.3-.2,2.4-.4,4.7-.7,7.1.2.9.4,1.8.6,2.7-.4-.1-.7-.4-.7-.9,0-2.9-.2-5.8-.4-8.7.3-.6.4-1.2.3-1.9.9-.1,1.8-.2,2.6-.3-.1.9-.1,1.8,0,2.7h0l-.1-.1Z"/>
  <path class="cls-1" d="M240.1,115.2c-.5-1.4-1.3-2.6-2.4-3.7-.4-.2-.8-.2-1.2.2-.7.8-1.5,1.4-2.5,1.8-.6-.2-1.2-.5-1.6-.9,1.5,0,2.8-.6,3.8-1.6.8-.2,1.6,0,2.4.4.3-.1.6-.3.9-.6.2.6.2,1.2,0,1.8.4,0,.7,0,1-.3.1,1,0,2-.4,2.9h0Z"/>
  <path class="cls-1" d="M216.6,110.8c-.1,1.9,0,3.7.3,5.6.3-.8.4-1.5.3-2.3,1.1.2,1.9-.1,2.6-.9,1.4,1.2,2.9,1.6,4.7,1.3.4-.3.4-.6,0-.9-.9-.2-1.8-.2-2.6-.2v-1.2c.9,0,1.8,0,2.6.2.8.8,1.8,1.2,2.9,1.3.1,1.6-.4,2-1.6,1.2-.7.4-1.4.6-2.2.6.9,1.5,1.3,3,1.5,4.7.3.2.4.5.3.9-.8,0-1.5-.2-2.2-.6-.2.4-.2.8.1,1.2l1.8.9c-.2.3-.5.5-.9.6-1.2.5-2.5.6-3.8.4l-1.2-.3c.4-.2.4-.4,0-.6h2.6c.5-.2.6-.4.3-.7-1.6-.1-3.3-.1-5,0-.4-1.5-.9-2.9-1.3-4.4-.2-.4-.6-.6-1-.6,0,1.1.2,2.2.6,3.2-.4,0-.6,0-.9.3l.6.3c.5-.2,1-.3,1.5-.3v1.2h-2.9c-.4-.7-.3-1.4.3-2.1-.4-.8-.6-1.7-.6-2.7h.9c-.5-2.2-.7-4.5-.6-6.8,1.1,0,2,0,2.9.6h0v.1Z"/>
  <path class="cls-1" d="M92.1,112.2c-1.3.6-2.4,1.6-3.1,2.9-.2,2.5,0,5,.2,7.5,0,1.2-.1,2.3-.6,3.4-.4.3-.8.4-1.2.2-1.1-1.7-1.6-3.5-1.5-5.4.3,1.4.7,2.8,1.2,4.1.4.9.9,1.1,1.5.3-.3-.2-.5-.5-.6-.9.4-.6.6-1.2.6-1.9-.4-2-.4-4,0-6,0-.3-.2-.6-.3-.9-.8,3-1.2,3-1.2,0h-.9c.2.9.2,1.8.3,2.8,0,.8-.2,1.4-.6,1.9.3-.6.3-1.2.2-1.8-.5-.4-.8-.8-.9-1.5-.7.2-1.4.2-2.2,0-.2-.5-.4-1-.6-1.5h.9v1.2c.7,0,1.3-.3,1.8-.9.2.3.4.6.4.9.1-1.3.5-2.6,1.2-3.8.7,0,1.2.3,1.8.6.5-.4,1-.6,1.6-.6,0-.4,0-.8.3-1.2.5.5,1.1.7,1.8.6h-.1Z"/>
  <path class="cls-1" d="M82.4,115.5c-1.4-.3-2.9-.4-4.4-.3,0-.2-.2-.4-.3-.6.6-.5,1.3-.8,2.1-.9,1.4-.2,2.3.4,2.7,1.8h-.1Z"/>
  <path class="cls-1" d="M70.7,116.4c-.3.2-.4.5-.3.9-.8-.1-1.4,0-1.9.6-.7,1.6-1.1,3.2-1.2,5-.2.5-.4.8-.7,1.2.5-2.2.8-4.5,1-6.8.2-.2.3-.3.4-.6-.2-.4-.3-.8-.3-1.2h.9v.9c.7-.2,1.4-.5,2.1-.9v.9Z"/>
  <path class="cls-1" d="M77.7,115.2c.2.8.2,1.6,0,2.3-.7-.5-1.5-.7-2.3-.6v-.9c-.9,0-1.7-.1-2.3-.6h2.9c0,.4,0,.8.2,1.2.5-.6,1-1.1,1.6-1.5h0l-.1.1Z"/>
  <path class="cls-1" d="M220.1,110.8h-3.5c-.9-.5-1.9-.7-2.9-.6,0,2.3.1,4.5.6,6.8h-.9c0,.9.2,1.8.6,2.7-.6.7-.7,1.3-.3,2.1v.6h-.9c0-.7,0-1.4.3-2.1-.4-.6-.7-1.3-.9-2.1,1.1-1.9,1.4-4,1-6.2,0-.4-.2-.7-.4-.9-.2-.4-.3-.8-.3-1.2.8-.1,1.6-.3,2.4-.6,1.8.6,3.5,1.1,5.3,1.5h-.1Z"/>
  <path class="cls-1" d="M61.5,136.6c-2.8-2.1-3.8-4.9-2.9-8.4,0-1.2-.2-2.3-.6-3.4-.3-1-.6-2-.9-2.9h.9v-1.8c.4,0,.8,0,1.2.3-.4.6-.6,1.3-.6,2.1.3,3.4.4,6.9.3,10.3.4,0,.7,0,1,.3-.3,1.6.4,2.3,1.9,2.1-.3-.8-.5-1.6-.6-2.5.2-2.6.3-5.2.4-7.8,0,2.7.2,5.3.4,7.9.2.6.4,1.2.6,1.8-.6.6-1,1.2-1.2,2.1h0l.1-.1Z"/>
  <path class="cls-1" d="M86,120.8v-.6c.4-.5.6-1.1.6-1.9,0-.9-.1-1.9-.3-2.8h.9c0,3,.4,3,1.2,0l.3.9c-.4,2-.4,4,0,6,0,.7-.2,1.3-.6,1.9.1.3.3.6.6.9-.6.8-1.1.7-1.5-.3-.4-1.4-.8-2.7-1.2-4.1Z"/>
  <path class="cls-1" d="M266.9,123.1c.3,1,.4,2.1.3,3.2.3,6.3-.2,12.6-1.6,18.8,0-2.1-.2-4.1-.4-6.2-.3,1.6-.4,3.1-.3,4.7-.4,0-.8,0-1.2-.3.3-.3.5-.7.6-1.2v-12.7c-.5.1-1.1.3-1.6.6-.6-.2-1.2-.4-1.8-.6-.7.1-1,.5-1,1.2-.2,0-.3-.1-.3-.3,0-1.1-.2-2.2-.6-3.2h-.9c0-.9.2-1.5.9-2.1-.8-.5-1.3-1.1-1.8-1.9.2-.5.5-.5.9,0,.5.2,1,.2,1.5,0-.4-.2-.6-.6-.6-1v-.6c.5.2.7.6.6,1.2.4,0,.7,0,1-.3.1-.6.2-1.2.1-1.8.5.2,1,.2,1.5,0,.4.4.8.9,1.2,1.3-.1,0-.2.2-.3.3.9.5,1.9.7,2.9.7.1,2.3.4,2.3.9,0h0v.2Z"/>
  <path class="cls-1" d="M254.5,121.7v.9c-.5-.1-.9-.1-1.2,0,.4.8.7,1.5.9,2.3-.4,0-.7-.3-.9-.6-.2,0-.3,0-.3-.3-.4-1.3,0-2.1,1.5-2.3h0Z"/>
  <path class="cls-1" d="M224.2,123.1c-.4.3-.8.6-1.2,1-1.8-.4-3.5-.2-5.1.7-.4,0-.7-.3-.9-.6-.1-.6-.4-1.1-.7-1.6-.9,0-1.8-.2-2.6-.4v-.6h2.9v-1.2c-.5,0-1,.1-1.5.3-.2,0-.4-.2-.6-.3.2-.3.5-.4.9-.3-.4-1-.6-2.1-.6-3.2.5,0,.8.2,1,.6.4,1.5.9,2.9,1.3,4.4,1.7-.1,3.4-.1,5,0,.3.3.2.6-.3.7h-2.6c.4.2.4.4,0,.6.4,0,.8.2,1.2.3,1.3.2,2.6,0,3.8-.4h0Z"/>
  <path class="cls-1" d="M253,124c0,.2.1.3.3.3-.2.5-.6.7-1.2.6.2-1.2-.1-2.3-.9-3.2.2-.6.6-.7,1-.3,0,1,.2,1.9.7,2.7l.1-.1Z"/>
  <path class="cls-1" d="M237.7,117.8c.4,0,.8,0,1.2.3.4,1.3.4,2.5,0,3.8-.6.2-1.1.3-1.8.3,0-1.4-.1-2.8-.3-4.1.4,0,.7,0,.9-.3h0Z"/>
  <path class="cls-1" d="M226.3,118.4c-.4.8-.4,1.7,0,2.5-.3.6-.7,1.1-1.2,1.6l-1.8-.9c-.3-.4-.4-.8-.1-1.2.7.4,1.4.6,2.2.6,0-.4,0-.7-.3-.9,0-.5,0-1,.1-1.5.3-.6.6-.7,1-.3h0l.1.1Z"/>
  <path class="cls-1" d="M237.7,114.3c.7.3,1,.8.9,1.6,0,.6-.1,1-.6,1.3-1-.9-1.1-1.9-.3-2.9h0Z"/>
  <path class="cls-1" d="M55.7,123.1c.2.4.3.8.3,1.2,0,.3,0,.4-.3.6-.4-.6-.4-1.2,0-1.8h0Z"/>
  <path class="cls-1" d="M258.9,122.2c0,.5.2.8.6,1-.5.2-1,.2-1.5,0-.3-.5-.6-.5-.9,0,.4.8,1,1.4,1.8,1.9-.7.5-1,1.2-.9,2.1h.9c.4,1,.6,2.1.6,3.2-.3-.4-.7-.7-1.2-.9,0-1.3-.6-2.3-1.5-3.2.2-.4.3-.8.3-1.2-.2-1-.4-2-.6-2.9h2.4Z"/>
  <path class="cls-1" d="M245.7,124.9c0,1,0,2-.3,2.9-1.1-.7-2.1-1.5-2.9-2.7.1-.4.4-.6.7-.6.8.2,1.6.3,2.5.3h0v.1Z"/>
  <path class="cls-1" d="M234.8,125.8c-.1.2-.3.4-.6.4.6.2,1.2.4,1.8.7-1.6,0-3.1.2-4.7.3-1.8,0-3.6-.2-5.3-.6-1,.1-1.1.5-.3,1-1.1.5-2.1.9-3.2,1.3-.5-.3-1-.5-1.5-.7-.4-.2-.4-.4,0-.6-1.4,0-2.7,0-4-.2-.3,1.3-1.1,1.9-2.5,1.8,1.3-1.2,2.4-2.6,3.2-4.1.5.4,1,.8,1.5,1.3,1.3.2,2.5.5,3.7,1,1.7-.9,3.4-1.6,5.1-2.2,2.3,0,4.5,0,6.8.4h0v.2Z"/>
  <path class="cls-1" d="M234.8,125.8h1.2c.7.8,1.6,1.1,2.6.9,0,1.1-.7,1.4-1.8,1.2v.9c.8.1,1.5-.1,2.1-.6.7,1,.4,1.5-.9,1.5.5.7.9,1.5,1.2,2.4-.3.8-.6,1.6-.9,2.4h1.2v-.9h1.2c1.5,1.1,3.2,2,5,2.6.2.7.4,1.4.4,2.1,1,.5,2,1.1,2.8,1.8v.9c1.6.4,2.4-.2,2.4-1.8,1.1,0,1.1-.2.1-.6-.1-1.2.4-1.6,1.6-1.3,1.2,1.4,2.7,2.6,4.4,3.5.4.7.1,1.1-.7,1-.6-.4-1.2-.8-1.8-1.2-.1.5-.2,1-.1,1.5h.9v.9c1,0,1.9.3,2.7.9.2,0,.4-.1.6-.1-.8-.8-.6-1.4.6-1.6.9.3,1.5.8,2.1,1.5-.4.3-.7.4-1.2.3.4,1.9.6,3.9.7,5.9.2.2.5.4.7.6.2,1,.4,2,.6,2.9,0,4.9-.1,9.8-.6,14.7-.2,2.8-.4,5.5-.7,8.2-2.2,5.9-4.8,11.6-7.9,17.1-1.8,3.4-4.1,6.4-6.8,9.1-2.5,4.8-5.8,8.9-9.9,12.5-1.2.3-2.3.6-3.5.7-2.1.2-4.3.3-6.5.3v.9c-3.2,0-6.3.1-9.4.6v.9c-1.6.2-3.1.4-4.7.6,0-.8,0-1.6.1-2.4,2.8-2.9,5.6-5.6,8.5-8.2.5-1,.8-2.1,1-3.2.6-.4,1-.8,1.3-1.5.2-2,.5-3.9.7-5.9-.3-1.8-.3-3.5-.1-5.3,1.2-1.8,2.4-3.5,3.5-5.3.2-1,0-1.9-.4-2.6-1-.4-2-.7-3.1-.9-.2-.4-.1-.8.1-1.2-.5-.6-.6-1.2-.3-2.1-2.3-.2-4.6-.4-6.9-.6-1.9,1.1-3.9,1.4-6,1.2-.7-.2-1.5-.3-2.2-.3-1.5.2-3.1.5-4.6.7-2.1-2.2-4.1-4.5-5.9-6.9.1-1.4,0-2.8-.3-4.1-1-.6-1.7-1.5-2.1-2.6-1.1-.2-1.9-.9-2.4-2.1,0-.7.4-1.3.9-1.8-.2-.7-.5-1.4-.9-2.1.5-.4,1-.8,1.5-1.2.5-1.2,1-2.4,1.6-3.5.1-1.6.2-3.1.4-4.7-.1-.7-.6-1.2-1.2-1.6.8-1.4,1.7-2.8,2.5-4.3.5-.6,1.1-1.1,1.9-1.3.2-.6.5-1,.9-1.3.9-.5,1.9-1.1,2.8-1.8-.2-1,.2-1.7,1.2-2.1.5.7,1,.6,1.3-.3,0-.3-.1-.5-.3-.7.6-.2,1.2-.1,1.8.1.3-.2.4-.5.3-.9.7,0,1.4-.1,2.1-.3v-2.1c0-1.3.2-2.6.6-3.8.4-.7.9-1.4,1.5-2.1.6-.4,1.3-.6,2.1-.6,1.4.2,2.2-.4,2.5-1.8,1.3,0,2.6,0,4,.2-.4.2-.4.4,0,.6.5.2,1,.5,1.5.7,1.1-.4,2.2-.9,3.2-1.3-.8-.5-.7-.9.3-1,1.7.4,3.5.6,5.3.6,1.6,0,3.1-.2,4.7-.3-.6-.3-1.1-.6-1.8-.7.3,0,.5-.2.6-.4h0l.1-.1Z"/>
  <path class="cls-1" d="M236,125.8c1,.4,2.1.4,3.1,0,1.4.4,1.8,1.2,1,2.3.4.5.7,1,.9,1.6-.3.9-.8,1.6-1.5,2.2.4.5.8,1,1.2,1.5h-1.2v.9h-1.2c.3-.8.6-1.6.9-2.4-.3-.9-.7-1.6-1.2-2.4,1.3,0,1.6-.5.9-1.5-.6.5-1.3.7-2.1.6v-.9c1.1.3,1.7-.1,1.8-1.2-1.1.2-2-.1-2.6-.9h0v.2Z"/>
  <path class="cls-1" d="M264.2,130.5h-1.5c0,.5,0,.9-.4,1.2-.4-.5-.7-1.1-1-1.6-.3-.1-.6-.2-.9-.1,0,.4,0,.8-.3,1.2-.2,0-.3-.1-.3-.3,0-.7.4-1.1,1-1.2.6.2,1.2.4,1.8.6.5-.3,1.1-.4,1.6-.6v.9h0v-.1Z"/>
  <path class="cls-1" d="M83.3,129.9c1.9-.1,3.7.2,5.3,1.2,2.4,2.1,4.9,3.9,7.7,5.6.3.2.4.5.3.9-1.9.4-3.8.1-5.6-.6.2-.4.5-.6.9-.9-.5-.4-1-.8-1.6-1.2l-.3-1.2c-1.5-.2-2.9-.8-4.3-1.6-.3-.4-.4-.8-.3-1.3-1.2.5-2.5.9-3.8,1.2.2-1.1.8-1.7,1.8-2.1h-.1Z"/>
  <path class="cls-1" d="M77.7,133.7v-1.5c-1.1,0-2.2.2-3.2.3,0,.7,0,1.4.3,2.1-.2.3-.5.4-.9.3,0,.7-.2,1.3-.6,1.9-.8.2-1.4.6-1.8,1.3-.3-.2-.4-.5-.3-.9-.7,0-1.4,0-2.1.3.3.4.6.8.9,1.2-.2.1-.4.2-.6.3-.5-.6-1-.9-1.8-.9,0,.5-.2.9-.6,1.2,1.1.2,2.2.4,3.2.6-.1.3-.2.6-.3.9,1,.9,1.4,2.1,1.2,3.5-.7-1.4-1.6-2.8-2.7-4-.8.4-1.7.5-2.7.6-.8-.5-1.5-1.1-2.1-1.9,1.4-.1,2.5-.7,3.4-1.8.2-.6.2-1.2,0-1.8-.6-.6-.9-1.4-.7-2.4.5.8.9,1.7,1.3,2.6.3.6.8.8,1.5.9.9-.1,1.9-.3,2.8-.6.6-.4,1-1,1.2-1.8.3-.7.5-1.5.6-2.4,1.5-.2,2.9-.3,4.4-.3,0,.6,0,1.2-.2,1.8-.1.2-.3.3-.4.3h0l.2.2Z"/>
  <path class="cls-1" d="M210.4,135.8v2.1c-.7.1-1.4.2-2.1.3,0,.4,0,.6-.3.9-.6-.3-1.2-.4-1.8-.1.2.2.3.5.3.7-.4.9-.8,1-1.3.3-1,.4-1.4,1.1-1.2,2.1-.9.6-1.9,1.2-2.8,1.8,0-.5.1-1,.4-1.5,1.3-.9,2.4-2,3.1-3.4,2.3-.4,4.1-1.4,5.6-3.1h0l.1-.1Z"/>
  <path class="cls-1" d="M89.8,139.9c1.2-.6,2.2-.3,2.9.9-1.3.5-2.3.2-2.9-.9Z"/>
  <path class="cls-1" d="M98,138.1c1.9.3,3.8.8,5.6,1.3.7.7,1.3,1.3,2.1,1.9-1.7.1-3.3.4-4.8.9-.4-.4-1-.8-1.6-1h-2.9c-.2-.3-.4-.6-.6-.9,1.1.1,2.2,0,3.2-.1-.2-.7-.5-1.4-.9-2.1h-.1Z"/>
  <path class="cls-1" d="M107.7,142.2c.8,0,1.6,0,2.3.1.4.4.3.7-.3.9-1.1.4-1.8,0-2.1-1h.1Z"/>
  <path class="cls-1" d="M267.1,126.4c.4,2.2.7,4.4.7,6.8.2,8.9-.4,17.7-2.1,26.5-.5,2.4-1.2,4.8-1.9,7.1,0-.9,0-1.8-.3-2.6,0-2.4.2-4.7.6-7.1-.5-2.8-.7-5.7-.6-8.5.5-.2.7-.6.6-1.2h-.9c0-.7,0-1.4-.3-2.1-.8-.5-.8-1.1,0-1.6-.5-.2-.9,0-1.2.4-.3,1.2-.2,2.4.3,3.5.1,1.9.2,3.7.3,5.6-.2-.9-.4-1.9-.6-2.9-.3-.1-.5-.3-.7-.6,0-2-.3-4-.7-5.9.4,0,.8,0,1.2-.3-.5-.7-1.2-1.2-2.1-1.5-1.2.2-1.4.8-.6,1.6-.2,0-.4.1-.6.1-.8-.6-1.7-.9-2.6-.9v-.9h-.9c0-.5,0-1,.1-1.5.6.4,1.2.8,1.8,1.2.9,0,1.1-.3.7-1-1.7-.9-3.2-2.1-4.4-3.5-1.2-.3-1.8.1-1.6,1.3,1,.4.9.6-.1.6,0,1.6-.8,2.1-2.4,1.8v-.9c.5.6,1,.7,1.6.3.3-1,.5-2.1.6-3.2.9-.7,1.8-.8,2.8-.1,1,1.3,2.3,2.3,3.8,2.9.5.8,1.2,1.2,2.1,1.2.3-.4.7-.7,1.2-.7.6.4,1.2.6,1.8.7.4-.6.6-1.2.7-1.9.2-2.5.5-4.9.7-7.4v10.6c0,.5-.3.9-.6,1.2.4.3.7.4,1.2.3-.1-1.6,0-3.1.3-4.7.2,2.1.4,4.1.4,6.2,1.4-6.2,1.9-12.5,1.6-18.8h0l.1-.1Z"/>
  <path class="cls-1" d="M77.7,133.7c-.3,1.9-.9,3.6-1.8,5.3-.2,1.1-.3,2.2-.6,3.2,1.9,0,3.7.2,5.6.4.3.5.6.9.9,1.3,0,.8,0,1.6-.2,2.4-.2.4-.4.4-.6,0,0,1.1,0,2.2-.2,3.4,0,1.3.2,2.5.6,3.7-.2.3-.5.4-.9.3-.7-.1-1.3-.5-1.8-1-.2-1.9-.9-3.5-2.2-4.9-.1-.3-.2-.6-.2-.9-.5,0-1,0-1.5-.1-1.2-1-2.5-1.8-3.8-2.5.2-1.4-.2-2.6-1.2-3.5,0-.3.2-.6.3-.9-1.1-.2-2.2-.4-3.2-.6.4-.3.6-.7.6-1.2.7,0,1.3.3,1.8.9.2-.1.4-.2.6-.3-.3-.4-.6-.8-.9-1.2.7-.3,1.3-.4,2.1-.3,0,.4,0,.6.3.9.4-.7,1-1.2,1.8-1.3.3-.6.5-1.2.6-1.9.3,0,.6,0,.9-.3-.3-.7-.4-1.4-.3-2.1,1.1-.1,2.2-.2,3.2-.3v1.5h.1Z"/>
  <path class="cls-1" d="M263.6,148.4h-.3c.1-.7-.2-1.1-.9-1.2-.2-1.1-.4-2.2-.6-3.2.2-.5.6-.7,1.2-.4-.8.5-.8,1.1,0,1.6.3.7.4,1.4.3,2.1h.9c.1.6,0,1-.6,1.2h0v-.1Z"/>
  <path class="cls-1" d="M102.4,154c-.5.3-1.1.5-1.8.6v1.5h.9c0,.6-.3,1.1-.9,1.5-1.4.5-2.2,0-2.3-1.5.2-1,.3-1.9.3-2.9h-2.7c1.1-.1,2.1-.6,2.9-1.3.7-.3,1.2,0,1.5.6-.2.4-.5.6-.9.7-.2,1.1-.5,2.1-.9,3.1.2.8.7,1.1,1.5,1-.1-1.1-.2-2.1-.3-3.2,1.1.2,1.9-.2,2.3-1.2.3.4.4.7.3,1.2h0l.1-.1Z"/>
  <path class="cls-1" d="M102.7,154h1.8c0,.5,0,1,.3,1.5-.4,0-.7-.3-.9-.6-.2.8-.4,1.6-.6,2.4-.2-.1-.3-.4-.4-.6-.2-.9-.2-1.8-.2-2.6h0v-.1Z"/>
  <path class="cls-1" d="M81.8,144c.4.2.6.5.6,1-.7,2.4-.9,4.8-.7,7.2.8.9,1.6,2,2.2,3.1,1.3-.1,2.6-.2,3.8-.3,1.3.4,2.3,1.2,3.2,2.2,1.3-.8,2.2-2,2.7-3.5.5.2,1,.3,1.5.3,0,.5,0,1-.2,1.5-.3-.3-.7-.4-1-.1-.4.9-1,1.7-1.8,2.4.5.6.4.9-.3,1.2.2.2.3.5.3.7-.6,1.8-1.1,3.5-1.5,5.3-.2-1.6-.3-3.1-.4-4.7-.6-1.3-1.1-2.5-1.6-3.8-1.2-.5-1.9-.2-2.3,1,.4.9,0,1.1-.9.9-.9-.9-2-1.6-3.2-2.1-.6-.8-1.1-1.6-1.5-2.5.3,0,.6,0,.9-.3-.4-1.2-.6-2.4-.6-3.7,0-1.1,0-2.3.2-3.4.2.4.4.4.6,0,.2-.8.2-1.6.2-2.4h-.2Z"/>
  <path class="cls-1" d="M96,153.1h2.7c0,1,0,2-.3,2.9.1,1.5.9,2,2.3,1.5.5-.4.8-.8.9-1.5h-.9v-1.5c.6,0,1.2-.3,1.8-.6h.3c0,.9,0,1.8.2,2.6,0,.2.2.4.4.6.2-.8.4-1.6.6-2.4.2.3.5.5.9.6,1.1.5,2.4.8,3.7.9.3.1.4.3.4.6-.3.5-.8.7-1.5.7,2,.3,3.9.1,5.7-.4.2.1.5.2.7.3-.4.4-.4.9,0,1.3.8.1,1.6.2,2.3.1,0,1.1-.7,1.4-1.8,1-.2-.2-.3-.4-.6-.4-.4.3-.4.6,0,.9,2.4.9,2.3,1.5-.3,1.8,1.1.3,2.2.2,3.2-.3.8.2,1.5.2,2.3,0,.4,0,.7.2.9.6-.3,0-.5.1-.6.4.4.6.6,1.2.6,1.9h1.2c.2.9.7,1.7,1.5,2.4h5c.6,0,1.1.2,1.5.6,2.8,1.1,4.2,3.2,4.3,6.2.5.4.9.9,1.3,1.5-1.4,1.3-2.8,2.6-4.1,4,0,.1.2.2.3.1-.3.2-.6.5-.9.9,1.6.5,3.3.6,5,.3,1,0,1.8-.4,2.4-1.3.2,0,.5-.1.7-.1.7.3,1.4.6,2.2.9.7.4,1.5.8,2.4,1.2.2.7.4,1.4.4,2.1.7-.3,1.4-.4,2.2-.1,1.8.8,3.6,1.2,5.6,1.5.4.6.9,1.1,1.5,1.6,0,.3,0,.5.3.7-.4.5-.6,1-.6,1.6h-.9v1.2c.7-.5,1.5-.9,2.4-1.2v1.5c-.4,0-.8,0-1.2.3,1.2.2,2.3-.2,3.2-1.2.8.4,1.3,1.1,1.5,2.1-.5,1-.7,2.1-.6,3.2-.9,1.4-2.2,2.3-3.8,2.6-.3,1.7-1.3,2.7-2.9,2.9h-.9c-.4,1.9-.7,3.9-.9,5.9h-.9c0,1.1-.2,2.2-.6,3.2,0,.2-.1.3-.3.3-.6,0-.9.2-1.2.7-.7.1-1.4.2-2.1.1,0,.6-.2,1.1-.7,1.5-1-.4-2.1-.4-3.1,0-.8.3-1.5.7-2.1,1.2-.5.6-1.2,1-2.1,1.2-.3,0-.5,0-.7.3-.1.8-.2,1.6-.3,2.4,0-.7-.3-1.4-.6-2.1-.4.2-.6.5-.7.9.8,1,.8,2,0,2.9-1.4.3-2.7.4-4.1.3v.9h-.9c0,.7,0,1.4.3,2.1.5-.9,1.2-1.6,2.1-2.2.6-.4,1.2-.4,1.8,0-.5.6-1.1,1.1-1.8,1.6-.3.8-.4,1.5-.3,2.4-1,0-1.9.1-2.8.6-1.6-.5-3.2-.7-4.8-.4,1,0,1.9.3,2.7.7.2,0,.4.2.6.4-4.4.9-8.8,2-13.1,3.4-.7-.9-1.4-1.8-2.1-2.6,0-2.7-.3-5.2-1.3-7.6-.8-4.4-1.4-8.8-1.8-13.2h-.9c-.4-1.4-.9-2.9-1.5-4.4-2.7-2.2-5.5-4.3-8.4-6.5-2.3-4.6-5-8.9-8.1-12.9.4-.2.4-.4,0-.7,1.2-.4,1.4-1.2.7-2.2-.4.4-.5.9-.4,1.5h-1.2c0-.5,0-1,.2-1.5.8-.5.9-1.1.2-1.6.6-.5,1.1-1.1,1.5-1.8.3-.1.6-.2.9-.1,0-.4,0-.8-.2-1.2-.7.5-1.6.8-2.5.9,0-.9,0-1.9-.3-2.8.6-.6.9-1.3.9-2.2h.9v-2.1c1-.5,1.6-1.2,1.8-2.4.4-1.8.9-3.5,1.5-5.3,0-.3-.1-.5-.3-.7.7-.2.8-.6.3-1.2.8-.7,1.3-1.4,1.8-2.4.4-.2.7-.1,1,.1.1-.5.2-1,.2-1.5-.5,0-1-.1-1.5-.3,0-.3.3-.5.6-.6.6.2,1.2.2,1.8,0h0l-.1-.1Z"/>
  <path class="cls-1" d="M119.2,161.9c-.8.2-1.6.2-2.3,0-1.1.5-2.1.6-3.2.3,2.6-.2,2.7-.8.3-1.8-.4-.3-.4-.6,0-.9.2,0,.4.2.6.4,1.1.4,1.7,0,1.8-1-.8,0-1.6,0-2.3-.1-.4-.4-.4-.9,0-1.3-.2-.1-.5-.2-.7-.3-1.9.6-3.8.7-5.7.4.7,0,1.2-.3,1.5-.7.8.4,1.6.4,2.3-.1,1.2-.3,2.4-.2,3.5.3-.4.1-.6.4-.4.7.8.4,1.7.8,2.5,1.2.4.8.2,1.4-.6,1.9.8.1,1.6.2,2.3.3.3.2.5.4.6.7h-.2Z"/>
  <path class="cls-1" d="M263.6,164c.3.8.4,1.7.3,2.6,0,.7-.1,1.4-.3,2.1-.2.7-.5,1.4-.7,2.1.1-2.3.4-4.5.7-6.8h0Z"/>
  <path class="cls-1" d="M120.1,162.5c.7.5,1,1.2.9,2.1,1.1,0,1.7.5,2.1,1.5,1.7.1,3.2.5,4.7,1.2h-5c-.8-.6-1.2-1.4-1.5-2.4h-1.2c0-.7-.1-1.4-.6-1.9,0-.3.3-.4.6-.4h0v-.1Z"/>
  <path class="cls-1" d="M196,167.5c.4,1.1,1,2,2.1,2.6.3,1.4.4,2.7.3,4.1-.2-.8-.4-1.7-.4-2.6-.7-1.1-1.4-2.2-2.1-3.2-.2-.4-.2-.7.1-.9h0Z"/>
  <path class="cls-1" d="M136.6,179.3c-.3.7-.8.9-1.5.9-.2-.8-.6-1.1-1.5-.9v.9h-1.2v-.9c.7,0,1.3-.3,1.8-.9.8.4,1.5.7,2.4.9h0Z"/>
  <path class="cls-1" d="M88.9,167.2v2.1h-.9c0,.9-.3,1.6-.9,2.2.2.9.3,1.9.3,2.8.9,0,1.8-.3,2.5-.9.1.4.2.8.2,1.2-.3,0-.6,0-.9.1-.4.7-.9,1.3-1.5,1.8.7.6.7,1.1-.2,1.6-.2.5-.2,1-.2,1.5h1.2c0-.6,0-1.1.4-1.5.7,1,.5,1.8-.7,2.2.4.3.4.5,0,.7-.4-.2-.7-.5-1-.9-.2-.9-.5-1.8-1-2.6.4-.9,1-1.6,1.8-2.1-.4-.4-.8-.8-1.3-1.2-.4-2.3.2-4.2,1.8-5.9,0-.5.2-.9.4-1.2h0v.1Z"/>
  <path class="cls-1" d="M227.1,184.3h-3.8c0-1,0-2-.1-2.9-.3-.5-.7-.9-1.3-1-1.2-.2-2.4-.2-3.5,0-1.7.7-3.4,1.2-5.3,1.3-.8-.1-1.5-.4-2.1-.9,2.2.3,4.2-.1,6-1.2,2.3.2,4.6.4,6.9.6-.3.8-.2,1.5.3,2.1-.3.4-.3.8-.1,1.2,1.1.1,2.1.4,3.1.9l-.1-.1Z"/>
  <path class="cls-1" d="M136.6,179.3c-.8-.2-1.6-.5-2.4-.9-.4.6-1,.9-1.8.9v.9h1.2v-.9c.8-.2,1.3.1,1.5.9v.6c-1.7.3-3.4.2-5-.3.2-.4.5-.7.9-.9,1.2-.2,2.2-.8,2.9-1.8,1,.2,1.9.3,2.9.3,0,.5,0,.9-.3,1.2h.1Z"/>
  <path class="cls-1" d="M152.4,186.4c1.4,1.6,3.1,2.5,5.1,2.9.4,1.9,0,3.7-1,5.3,0-1.1.1-2.2.6-3.2-.1-.9-.6-1.6-1.5-2.1-.9.9-2,1.3-3.2,1.2.4-.3.7-.4,1.2-.3v-1.5c-.9.3-1.6.7-2.4,1.2v-1.2h.9c0-.6.2-1.1.6-1.6-.2-.2-.3-.4-.3-.7h0Z"/>
  <path class="cls-1" d="M149.8,200.2c-.5,1.3-.7,2.7-.7,4.1-.7,1.3-1.2,2.7-1.5,4.1-.3.4-.6.6-1,.9.4-1,.6-2.1.6-3.2h.9c.2-2,.5-4,.9-5.9h.9-.1Z"/>
  <path class="cls-1" d="M106.3,204.9h.9c.3,4.5.9,8.9,1.8,13.2-.5-.6-.8-1.3-1-2.1-.3-1.6-.5-3.3-.6-5-.1-1-.4-2-.9-2.9-.2-1.1-.2-2.1-.2-3.2h0Z"/>
  <path class="cls-1" d="M146.3,209.6c-.5.5-.9,1.1-1,1.8-.3.4-.6.6-1,.7-2.4,0-4.8.3-7.1,1,.6-.5,1.3-.9,2.1-1.2,1-.4,2.1-.4,3.1,0,.6-.3.8-.8.7-1.5.7,0,1.4,0,2.1-.1.2-.5.6-.8,1.2-.7h-.1Z"/>
  <path class="cls-1" d="M233,215.5c-2.1.6-4.2,1.1-6.5,1.5-3.1.6-6.2,1-9.4,1.2v-.9c3.1-.5,6.2-.7,9.4-.6v-.9c2.2,0,4.3,0,6.5-.3h0Z"/>
  <path class="cls-1" d="M135.1,214.3c-.2,1.5-.4,2.9-.7,4.4-1.2.6-1.9,1.5-2.2,2.8-.5.2-1,.5-1.5.7-.2.6-.5,1.1-.9,1.5,0-.8,0-1.6.3-2.4.6-.5,1.2-1,1.8-1.6-.5-.4-1.1-.4-1.8,0-.9.6-1.5,1.3-2.1,2.2-.3-.7-.4-1.4-.3-2.1h.9v-.9c1.4,0,2.8,0,4.1-.3.8-1,.8-1.9,0-2.9.1-.4.4-.7.7-.9.3.6.5,1.3.6,2.1.1-.8.2-1.6.3-2.4.2-.2.4-.3.7-.3h0l.1.1Z"/>
  <path class="cls-1" d="M129.8,223.7c0,.2-.1.3-.3.4-1,.2-2,.5-2.9.7-.5-.1-1-.3-1.5-.6-.2,0-.3.1-.3.3-.8-.5-1.7-.7-2.7-.7,1.7-.2,3.3-.1,4.8.4.9-.4,1.8-.6,2.8-.6h0l.1.1Z"/>
  <path class="cls-2" d="M40.9,303.1c-6,6-14.2,6.9-18.3,5.8,8.5-50.6,57.6-70,48.9-68.9-36.6,4.8-61.9-7.6-66.8-41.7-5.8-39.7,42.5-74,42.4-71.6-3.4,84.5,62.8,107.9,59.4,108.9-61.8,17.6-63.1,65.1-65.5,67.5h-.1Z"/>
  <path class="cls-2" d="M181,226.4c-45.1,0-80.6,11.9-102.3,23.4,4.8,6.1,34.3,39,116,18.8,73-18,94.2-78,92.8-76.5-27.8,30.4-58.3,34.3-106.5,34.3h0Z"/>
  <path class="cls-2" d="M302.9,26.1s-23.4,30.7-57.2,35.3c55,57.8,18.8,135-5,154.6-7.9,6.5,42.8-13.2,50-32.6,29.8-80.8,12.4-150.9,12.2-157.3h0Z"/>
  <g class="cls-3">
    <g>
      <path class="cls-2" d="M480.57,232.25h-36.21v-58.25h-48.19v58.25h-36.21V86.83h36.21v56.74h48.19v-56.74h36.21v145.42Z"/>
      <path class="cls-2" d="M577.63,84.48c6.37,0,12.57.67,18.69,2.1s11.82,3.52,17.27,6.29c5.36,2.77,10.31,6.29,14.92,10.39,4.53,4.11,8.47,8.97,11.73,14.42,3.27,5.53,5.87,11.65,7.71,18.44s2.68,14.25,2.68,22.38-.92,16.09-2.77,23.13c-1.84,7.04-4.44,13.33-7.71,18.94-3.27,5.62-7.29,10.56-11.9,14.84-4.61,4.27-9.72,7.79-15.25,10.64-5.53,2.85-11.48,4.95-17.77,6.37-6.29,1.42-12.82,2.18-19.53,2.18s-12.57-.75-18.69-2.18c-6.12-1.42-11.9-3.52-17.27-6.29-5.45-2.77-10.39-6.2-14.92-10.31-4.53-4.11-8.47-8.97-11.73-14.42-3.27-5.45-5.87-11.65-7.71-18.44s-2.77-14.25-2.77-22.38.92-16.01,2.85-23.05c1.84-7.04,4.53-13.41,7.79-19.03,3.35-5.62,7.29-10.56,11.99-14.84,4.61-4.27,9.72-7.79,15.25-10.64,5.53-2.85,11.48-4.95,17.77-6.37s12.82-2.18,19.53-2.18h-.17ZM576.2,115.58c-4.61,0-9.14.92-13.58,2.77-4.44,1.84-8.3,4.61-11.73,8.21-3.44,3.69-6.12,8.21-8.21,13.58-2.1,5.45-3.1,11.73-3.1,18.86s1.01,14,3.1,19.61c2.1,5.53,4.86,10.14,8.3,13.83,3.44,3.69,7.46,6.37,11.9,8.21s9.22,2.68,14.08,2.68,9.14-.92,13.49-2.68c4.36-1.84,8.3-4.53,11.73-8.21,3.44-3.69,6.2-8.21,8.21-13.58,2.01-5.45,3.1-11.73,3.1-18.94s-1.01-14-3.1-19.61c-2.01-5.53-4.78-10.14-8.3-13.83s-7.46-6.37-11.9-8.21-9.14-2.68-14.08-2.68h.08Z"/>
      <path class="cls-2" d="M839.47,86.83c2.1,13.24,3.94,26.07,5.53,38.47,1.59,12.4,2.85,24.64,3.94,36.54,1.09,11.99,1.93,23.8,2.51,35.45.59,11.65,1.09,23.3,1.42,34.87h-36.46c-.34-9.47-.75-18.94-1.26-28.33-.5-9.39-1.01-18.69-1.68-27.91s-1.34-18.27-2.18-27.24-1.76-17.77-2.85-26.49l-29.08,109.88h-38.64l-28.92-110.05c-1.17,8.63-2.1,17.43-2.93,26.4s-1.51,18.1-2.18,27.41c-.67,9.22-1.17,18.61-1.59,27.99s-.75,18.86-1.09,28.33h-35.54c.34-11.57.84-23.22,1.51-34.87.67-11.65,1.51-23.47,2.51-35.45,1.01-11.99,2.35-24.14,3.86-36.54,1.59-12.4,3.44-25.23,5.62-38.47h51.3l27.66,104.18,27.66-104.18h50.88Z"/>
      <path class="cls-2" d="M965.62,116.75h-52.97v27.32h49.54v29.84h-49.54v28.41h52.97v29.84h-89.18V86.83h89.18v29.92Z"/>
      <path class="cls-2" d="M992.94,193.86c5.36,3.52,10.98,6.12,16.85,8.05,5.87,1.84,11.65,2.85,17.27,2.85s5.53-.25,7.8-.84,4.19-1.34,5.7-2.35c1.59-1.01,2.77-2.26,3.52-3.77.75-1.51,1.09-3.19,1.09-5.11s-.92-5.03-2.68-7.04-4.11-3.86-6.96-5.62c-2.85-1.68-6.12-3.35-9.89-5.03s-7.54-3.35-11.32-5.28c-3.86-1.84-7.63-4.02-11.4-6.45-3.69-2.43-7.04-5.28-9.89-8.47-2.93-3.27-5.2-7.04-7.04-11.4-1.76-4.36-2.68-9.47-2.68-15.25s1.26-12.82,3.69-18.19c2.43-5.36,5.95-9.97,10.48-13.83s9.89-6.71,16.26-8.72,13.49-3.02,21.37-3.02,14.67.84,20.95,2.6,12.24,4.27,17.94,7.63l-8.05,28.41c-4.86-2.77-9.81-5.03-14.84-6.62s-10.14-2.43-15.34-2.43-4.61.25-6.62.75-3.69,1.26-5.11,2.18-2.51,2.1-3.27,3.52-1.17,3.02-1.17,4.86.92,4.78,2.68,6.62c1.76,1.93,4.11,3.69,7.04,5.28,2.93,1.68,6.2,3.27,9.89,4.78,3.69,1.59,7.46,3.27,11.32,5.2s7.63,4.02,11.4,6.45c3.69,2.35,7.04,5.28,9.89,8.63,2.93,3.35,5.2,7.21,7.04,11.65,1.76,4.44,2.68,9.64,2.68,15.59s-1.34,12.99-4.02,18.52-6.37,10.23-11.06,14.08c-4.78,3.86-10.39,6.87-17.01,8.97s-13.83,3.19-21.62,3.19-16.43-1.01-23.3-3.02c-6.87-2.01-13.24-5.03-19.03-9.05l7.54-28.67-.08.34Z"/>
      <path class="cls-2" d="M1171.47,84.48c6.37,0,12.57.67,18.69,2.1s11.82,3.52,17.27,6.29c5.36,2.77,10.31,6.29,14.92,10.39,4.53,4.11,8.47,8.97,11.73,14.42,3.27,5.53,5.87,11.65,7.71,18.44,1.84,6.79,2.68,14.25,2.68,22.38s-.92,16.09-2.77,23.13c-1.84,7.04-4.44,13.33-7.71,18.94-3.27,5.62-7.29,10.56-11.9,14.84-4.61,4.27-9.72,7.79-15.25,10.64-5.53,2.85-11.48,4.95-17.77,6.37-6.29,1.42-12.82,2.18-19.53,2.18s-12.57-.75-18.69-2.18c-6.12-1.42-11.9-3.52-17.27-6.29-5.45-2.77-10.39-6.2-14.92-10.31s-8.47-8.97-11.73-14.42-5.87-11.65-7.71-18.44-2.77-14.25-2.77-22.38.92-16.01,2.85-23.05c1.93-7.04,4.53-13.41,7.8-19.03,3.35-5.62,7.29-10.56,11.99-14.84,4.61-4.27,9.72-7.79,15.25-10.64,5.53-2.85,11.48-4.95,17.77-6.37s12.82-2.18,19.53-2.18h-.17ZM1170.05,115.58c-4.61,0-9.14.92-13.58,2.77-4.36,1.84-8.3,4.61-11.73,8.21-3.44,3.69-6.12,8.21-8.21,13.58s-3.1,11.73-3.1,18.86,1.01,14,3.1,19.61c2.1,5.53,4.86,10.14,8.3,13.83,3.44,3.69,7.38,6.37,11.9,8.21s9.22,2.68,14.08,2.68,9.14-.92,13.49-2.68c4.36-1.84,8.3-4.53,11.73-8.21s6.2-8.21,8.21-13.58c2.01-5.45,3.1-11.73,3.1-18.94s-1.01-14-3.1-19.61c-2.01-5.53-4.78-10.14-8.3-13.83-3.52-3.69-7.46-6.37-11.9-8.21-4.44-1.84-9.14-2.68-14.08-2.68h.08Z"/>
      <path class="cls-2" d="M1382.86,177.77c0,8.97-1.34,16.93-4.11,23.97-2.77,7.04-6.71,12.99-11.9,17.85-5.2,4.86-11.48,8.63-18.94,11.15-7.46,2.6-15.93,3.86-25.4,3.86s-17.1-1.26-24.31-3.69c-7.21-2.43-13.33-6.03-18.27-10.81-4.95-4.78-8.8-10.56-11.48-17.35-2.68-6.79-4.02-14.67-4.02-23.47v-92.53h36.21v91.28c0,4.53.59,8.38,1.76,11.57,1.17,3.19,2.85,5.87,4.95,7.88s4.61,3.52,7.46,4.44,5.95,1.34,9.3,1.34,6.45-.42,9.3-1.34,5.36-2.35,7.46-4.36,3.77-4.44,4.95-7.38,1.76-6.54,1.76-10.56v-92.79h35.2v90.94h.08Z"/>
      <path class="cls-2" d="M1443.63,201.74h47.44v30.51h-83.73V86.83h36.21v114.91h.08Z"/>
    </g>
  </g>
</svg>